<?xml version="1.0" encoding="UTF-8" standalone="no"?>
<!DOCTYPE svg PUBLIC "-//W3C//DTD SVG 1.1//EN" "http://www.w3.org/Graphics/SVG/1.1/DTD/svg11.dtd">
<svg width="100%" height="100%" viewBox="0 0 1350 1080" version="1.1" xmlns="http://www.w3.org/2000/svg" xmlns:xlink="http://www.w3.org/1999/xlink" xml:space="preserve" xmlns:serif="http://www.serif.com/" style="fill-rule:evenodd;clip-rule:evenodd;stroke-linejoin:round;stroke-miterlimit:2;">
    <g transform="matrix(1,0,0,1,-2900,0)">
        <rect id="Artboard3" x="2900" y="0" width="1350" height="1080" style="fill:none;"/>
        <clipPath id="_clip1">
            <rect id="Artboard31" serif:id="Artboard3" x="2900" y="0" width="1350" height="1080"/>
        </clipPath>
        <g clip-path="url(#_clip1)">
            <g transform="matrix(1,0,0,1,2900,0)">
                <rect x="0" y="0" width="1350" height="1080"/>
            </g>
            <g transform="matrix(0.240603,0,0,0.240603,2195.44,125.056)">
                <path d="M3344.44,242.156C3343.96,129.913 3312.71,76.397 3249.72,76.397L3107.64,76.397L3107.64,407.916L3249.72,407.916C3313.18,407.916 3344.91,354.873 3344.44,242.156ZM3287.61,242.156C3287.13,349.19 3274.34,398.444 3249.72,398.444L3164.47,398.444L3164.47,85.869L3249.72,85.869C3275.76,85.869 3288.08,133.702 3287.61,242.156Z" style="fill:rgb(252,252,252);fill-rule:nonzero;"/>
                <path d="M3466.62,412.652C3522.04,412.652 3566.08,368.133 3566.08,313.196C3566.08,257.785 3522.04,213.74 3466.62,213.74C3411.69,213.74 3367.17,257.785 3367.17,313.196C3367.17,368.133 3411.69,412.652 3466.62,412.652ZM3466.62,403.18C3433,403.18 3424,362.45 3424,313.196C3424,262.995 3433,223.212 3466.62,223.212C3501.2,223.212 3509.25,262.995 3509.25,313.196C3509.25,362.45 3501.2,403.18 3466.62,403.18Z" style="fill:rgb(252,252,252);fill-rule:nonzero;"/>
                <path d="M3734.21,218.476L3701.53,309.407L3683.53,258.259L3697.74,218.476L3637.59,218.476L3604.92,309.407L3572.71,218.476L3562.29,218.476L3630.02,407.916L3678.32,272.94L3726.63,407.916L3794.36,218.476L3734.21,218.476Z" style="fill:rgb(252,252,252);fill-rule:nonzero;"/>
                <path d="M3951.59,213.74C3914.65,213.74 3889.08,243.103 3873.92,262.995L3873.92,218.476L3817.09,218.476L3817.09,407.916L3873.92,407.916L3873.92,275.308C3893.34,248.787 3917.02,227.948 3934.07,233.158C3944.49,236.473 3949.7,245.471 3949.7,279.571L3949.7,407.916L4006.53,407.916L4006.53,279.571C4006.53,243.577 3987.58,213.74 3951.59,213.74Z" style="fill:rgb(252,252,252);fill-rule:nonzero;"/>
                <rect x="4036.84" y="76.397" width="56.832" height="331.519" style="fill:rgb(252,252,252);fill-rule:nonzero;"/>
                <path d="M4215.86,412.652C4271.27,412.652 4315.31,368.133 4315.31,313.196C4315.31,257.785 4271.27,213.74 4215.86,213.74C4160.92,213.74 4116.4,257.785 4116.4,313.196C4116.4,368.133 4160.92,412.652 4215.86,412.652ZM4215.86,403.18C4182.23,403.18 4173.23,362.45 4173.23,313.196C4173.23,262.995 4182.23,223.212 4215.86,223.212C4250.43,223.212 4258.48,262.995 4258.48,313.196C4258.48,362.45 4250.43,403.18 4215.86,403.18Z" style="fill:rgb(252,252,252);fill-rule:nonzero;"/>
                <path d="M4431.82,213.267C4373.09,213.267 4363.62,250.207 4363.62,274.835L4373.09,274.835C4373.09,236.947 4398.19,222.739 4427.08,222.739C4455.97,222.739 4461.66,250.207 4462.6,288.095C4448.87,279.097 4429.93,280.518 4385.41,280.518C4349.41,280.518 4330.47,310.354 4330.47,346.348C4330.47,382.341 4349.41,412.178 4385.41,412.178C4422.35,412.178 4447.92,382.815 4463.08,362.924L4463.08,407.442L4519.91,407.442L4519.91,312.722C4519.91,257.311 4487.23,213.267 4431.82,213.267ZM4402.93,392.761C4392.51,389.445 4387.3,380.447 4387.3,346.348C4387.3,294.726 4429.45,274.835 4463.08,298.514L4463.08,350.61C4443.66,377.132 4419.98,397.97 4402.93,392.761Z" style="fill:rgb(252,252,252);fill-rule:nonzero;"/>
                <path d="M4679.98,256.838C4671.46,233.631 4656.78,213.74 4630.26,213.74C4574.85,213.74 4542.64,257.785 4542.64,313.196C4542.64,368.133 4574.85,412.652 4630.26,412.652C4656.78,412.652 4671.46,392.287 4679.98,369.554L4679.98,407.916L4736.82,407.916L4736.82,76.397L4679.98,76.397L4679.98,256.838ZM4630.26,403.18C4607.52,403.18 4599.47,362.45 4599.47,313.196C4599.47,262.995 4607.52,223.212 4630.26,223.212C4659.15,223.212 4679.98,262.995 4679.98,313.196C4679.98,362.45 4659.15,403.18 4630.26,403.18Z" style="fill:rgb(252,252,252);fill-rule:nonzero;"/>
                <path d="M5153.58,351.084C5153.58,379.5 5115.7,379.5 5115.7,351.084L5115.7,227.948L5144.11,227.948L5144.11,218.476L5115.7,218.476L5115.7,161.644L5058.86,161.644L5058.86,218.476L5043.71,218.476L5043.71,227.948L5058.86,227.948L5058.86,351.084C5058.86,426.86 5163.06,426.86 5163.06,351.084L5153.58,351.084Z" style="fill:rgb(252,252,252);fill-rule:nonzero;"/>
                <path d="M5320.29,213.74C5283.35,213.74 5257.78,243.103 5242.62,262.995L5242.62,76.397L5185.79,76.397L5185.79,407.916L5242.62,407.916L5242.62,275.308C5262.04,248.787 5285.72,227.948 5302.77,233.158C5313.19,236.473 5318.4,245.471 5318.4,279.571L5318.4,407.916L5375.23,407.916L5375.23,279.571C5375.23,243.577 5356.28,213.74 5320.29,213.74Z" style="fill:rgb(252,252,252);fill-rule:nonzero;"/>
                <path d="M5438.69,194.796C5457.16,194.796 5471.84,180.115 5471.84,161.644C5471.84,143.174 5457.16,128.493 5438.69,128.493C5420.22,128.493 5405.54,143.174 5405.54,161.644C5405.54,180.115 5420.22,194.796 5438.69,194.796ZM5467.11,407.916L5467.11,218.476L5410.27,218.476L5410.27,407.916L5467.11,407.916Z" style="fill:rgb(252,252,252);fill-rule:nonzero;"/>
                <path d="M5558.98,262.995C5558.98,247.366 5558.98,222.265 5574.14,222.265C5588.82,222.265 5588.82,247.366 5588.82,273.414L5645.65,273.414C5645.65,247.366 5611.55,212.793 5574.14,212.793C5536.73,212.793 5502.15,228.422 5502.15,262.995C5502.15,322.194 5588.82,282.886 5588.82,363.397C5588.82,379.026 5588.82,404.127 5574.14,404.127C5558.98,404.127 5558.98,379.026 5558.98,353.926L5502.15,353.926C5502.15,379.026 5536.73,413.599 5574.14,413.599C5611.55,413.599 5645.65,397.497 5645.65,363.397C5645.65,304.671 5558.98,343.033 5558.98,262.995Z" style="fill:rgb(252,252,252);fill-rule:nonzero;"/>
                <path d="M6094.62,213.74C6057.68,213.74 6032.11,243.103 6016.95,262.995L6016.95,218.476L5960.12,218.476L5960.12,407.916L6016.95,407.916L6016.95,275.308C6036.37,248.787 6060.05,227.948 6077.1,233.158C6087.52,236.473 6092.73,245.471 6092.73,279.571L6092.73,407.916L6149.56,407.916L6149.56,279.571C6149.56,243.577 6130.62,213.74 6094.62,213.74Z" style="fill:rgb(252,252,252);fill-rule:nonzero;"/>
                <path d="M6181.77,312.722C6181.77,307.513 6182.24,301.83 6183.66,296.62L6357,296.62C6357,252.102 6326.69,213.74 6271.28,213.74C6216.34,213.74 6171.82,257.785 6172.29,312.722C6172.77,387.077 6245.23,433.49 6324.32,403.653L6300.17,348.716C6228.65,407.442 6181.77,370.028 6181.77,312.722ZM6186.03,287.148C6205.45,229.843 6283.59,193.849 6298.74,287.148L6186.03,287.148Z" style="fill:rgb(252,252,252);fill-rule:nonzero;"/>
                <path d="M6525.12,218.476L6492.45,309.407L6474.45,258.259L6488.66,218.476L6428.51,218.476L6395.83,309.407L6363.63,218.476L6353.21,218.476L6420.93,407.916L6469.24,272.94L6517.55,407.916L6585.27,218.476L6525.12,218.476Z" style="fill:rgb(252,252,252);fill-rule:nonzero;"/>
                <path d="M6894.06,312.722C6894.06,307.513 6894.53,301.83 6895.95,296.62L7069.29,296.62C7069.29,252.102 7038.98,213.74 6983.57,213.74C6928.63,213.74 6884.11,257.785 6884.59,312.722C6885.06,387.077 6957.52,433.49 7036.61,403.653L7012.46,348.716C6940.94,407.442 6894.06,370.028 6894.06,312.722ZM6898.32,287.148C6917.74,229.843 6995.88,193.849 7011.04,287.148L6898.32,287.148Z" style="fill:rgb(252,252,252);fill-rule:nonzero;"/>
                <path d="M7241.21,218.476L7177.27,287.148L7133.23,218.476L7065.5,218.476L7137.02,330.719L7065.5,407.916L7078.29,407.916L7142.7,338.77L7186.74,407.916L7254.94,407.916L7182.95,295.673L7254.94,218.476L7241.21,218.476Z" style="fill:rgb(252,252,252);fill-rule:nonzero;"/>
                <path d="M7388.97,284.78C7385.65,248.787 7377.6,223.212 7350.61,223.212C7316.03,223.212 7307.98,262.995 7307.98,313.196C7307.98,362.45 7316.03,403.18 7350.61,403.18C7377.6,403.18 7385.65,377.132 7388.97,341.612L7445.8,341.612C7433.49,382.815 7395.6,412.652 7350.61,412.652C7295.2,412.652 7251.15,368.133 7251.15,313.196C7251.15,257.785 7295.2,213.74 7350.61,213.74C7395.6,213.74 7433.96,243.577 7445.8,284.78L7388.97,284.78Z" style="fill:rgb(252,252,252);fill-rule:nonzero;"/>
                <path d="M7456.22,312.722C7456.22,307.513 7456.69,301.83 7458.11,296.62L7631.45,296.62C7631.45,252.102 7601.14,213.74 7545.73,213.74C7490.79,213.74 7446.28,257.785 7446.75,312.722C7447.22,387.077 7519.68,433.49 7598.77,403.653L7574.62,348.716C7503.11,407.442 7456.22,370.028 7456.22,312.722ZM7460.48,287.148C7479.9,229.843 7558.04,193.849 7573.2,287.148L7460.48,287.148Z" style="fill:rgb(252,252,252);fill-rule:nonzero;"/>
                <rect x="7654.19" y="76.397" width="56.832" height="331.519" style="fill:rgb(252,252,252);fill-rule:nonzero;"/>
                <rect x="7741.33" y="76.397" width="56.832" height="331.519" style="fill:rgb(252,252,252);fill-rule:nonzero;"/>
                <path d="M7830.36,312.722C7830.36,307.513 7830.84,301.83 7832.26,296.62L8005.6,296.62C8005.6,252.102 7975.28,213.74 7919.87,213.74C7864.94,213.74 7820.42,257.785 7820.89,312.722C7821.36,387.077 7893.82,433.49 7972.92,403.653L7948.76,348.716C7877.25,407.442 7830.36,370.028 7830.36,312.722ZM7834.63,287.148C7854.04,229.843 7932.19,193.849 7947.34,287.148L7834.63,287.148Z" style="fill:rgb(252,252,252);fill-rule:nonzero;"/>
                <path d="M8162.83,213.74C8125.89,213.74 8100.31,243.103 8085.16,262.995L8085.16,218.476L8028.33,218.476L8028.33,407.916L8085.16,407.916L8085.16,275.308C8104.58,248.787 8128.26,227.948 8145.31,233.158C8155.73,236.473 8160.94,245.471 8160.94,279.571L8160.94,407.916L8217.77,407.916L8217.77,279.571C8217.77,243.577 8198.82,213.74 8162.83,213.74Z" style="fill:rgb(252,252,252);fill-rule:nonzero;"/>
                <path d="M8350.38,351.084C8350.38,379.5 8312.49,379.5 8312.49,351.084L8312.49,227.948L8340.9,227.948L8340.9,218.476L8312.49,218.476L8312.49,161.644L8255.66,161.644L8255.66,218.476L8240.5,218.476L8240.5,227.948L8255.66,227.948L8255.66,351.084C8255.66,426.86 8359.85,426.86 8359.85,351.084L8350.38,351.084Z" style="fill:rgb(252,252,252);fill-rule:nonzero;"/>
                <path d="M4021.92,810.475L3993.5,810.475L3993.5,819.947L4021.92,819.947L4021.92,999.914L4078.75,999.914L4078.75,819.947L4126.11,819.947L4126.11,810.475L4078.75,810.475L4078.75,763.115C4078.75,706.283 4087.75,651.819 4170.16,681.656L4173.94,672.657C4094.85,643.294 4021.92,689.233 4021.92,763.115L4021.92,810.475Z" style="fill:rgb(252,252,252);fill-rule:nonzero;"/>
                <path d="M4222.25,1004.65C4277.66,1004.65 4321.71,960.132 4321.71,905.194C4321.71,849.783 4277.66,805.739 4222.25,805.739C4167.31,805.739 4122.8,849.783 4122.8,905.194C4122.8,960.132 4167.31,1004.65 4222.25,1004.65ZM4222.25,995.178C4188.63,995.178 4179.63,954.449 4179.63,905.194C4179.63,854.993 4188.63,815.211 4222.25,815.211C4256.82,815.211 4264.88,854.993 4264.88,905.194C4264.88,954.449 4256.82,995.178 4222.25,995.178Z" style="fill:rgb(252,252,252);fill-rule:nonzero;"/>
                <path d="M4478.94,805.739C4442,805.739 4416.43,835.102 4401.27,854.993L4401.27,810.475L4344.44,810.475L4344.44,999.914L4401.27,999.914L4401.27,867.306C4420.69,840.785 4444.37,819.947 4461.42,825.156C4471.84,828.471 4477.05,837.47 4477.05,871.569L4477.05,999.914L4533.88,999.914L4533.88,871.569C4533.88,835.575 4514.94,805.739 4478.94,805.739Z" style="fill:rgb(252,252,252);fill-rule:nonzero;"/>
                <path d="M4666.49,943.082C4666.49,971.498 4628.6,971.498 4628.6,943.082L4628.6,819.947L4657.02,819.947L4657.02,810.475L4628.6,810.475L4628.6,753.643L4571.77,753.643L4571.77,810.475L4556.61,810.475L4556.61,819.947L4571.77,819.947L4571.77,943.082C4571.77,1018.86 4675.96,1018.86 4675.96,943.082L4666.49,943.082Z" style="fill:rgb(252,252,252);fill-rule:nonzero;"/>
                <path d="M5011.27,810.475L4982.85,810.475L4982.85,819.947L5011.27,819.947L5011.27,999.914L5068.1,999.914L5068.1,819.947L5115.46,819.947L5115.46,810.475L5068.1,810.475L5068.1,763.115C5068.1,706.283 5077.1,651.819 5159.5,681.656L5163.29,672.657C5084.2,643.294 5011.27,689.233 5011.27,763.115L5011.27,810.475Z" style="fill:rgb(252,252,252);fill-rule:nonzero;"/>
                <path d="M5211.6,1004.65C5267.01,1004.65 5311.06,960.132 5311.06,905.194C5311.06,849.783 5267.01,805.739 5211.6,805.739C5156.66,805.739 5112.14,849.783 5112.14,905.194C5112.14,960.132 5156.66,1004.65 5211.6,1004.65ZM5211.6,995.178C5177.97,995.178 5168.98,954.449 5168.98,905.194C5168.98,854.993 5177.97,815.211 5211.6,815.211C5246.17,815.211 5254.22,854.993 5254.22,905.194C5254.22,954.449 5246.17,995.178 5211.6,995.178Z" style="fill:rgb(252,252,252);fill-rule:nonzero;"/>
                <path d="M5439.87,805.739C5412.88,805.739 5398.67,821.367 5390.62,840.311L5390.62,810.475L5333.79,810.475L5333.79,999.914L5390.62,999.914L5390.62,905.194C5390.62,854.993 5401.51,815.211 5435.14,815.211C5469.71,815.211 5471.13,854.993 5471.13,905.194L5527.96,905.194C5527.96,849.783 5495.28,805.739 5439.87,805.739Z" style="fill:rgb(252,252,252);fill-rule:nonzero;"/>
                <path d="M5903.05,786.795C5921.52,786.795 5936.2,772.113 5936.2,753.643C5936.2,735.172 5921.52,720.491 5903.05,720.491C5884.58,720.491 5869.9,735.172 5869.9,753.643C5869.9,772.113 5884.58,786.795 5903.05,786.795ZM5874.64,999.914C5874.64,1028.33 5836.75,1028.33 5836.75,999.914L5827.28,999.914C5827.28,1075.69 5931.47,1075.69 5931.47,999.914L5931.47,810.475L5874.64,810.475L5874.64,999.914Z" style="fill:rgb(252,252,252);fill-rule:nonzero;"/>
                <path d="M6099.12,942.609C6079.71,969.13 6056.03,989.968 6038.98,984.759C6028.56,981.444 6023.35,972.445 6023.35,938.346L6023.35,810.001L5966.52,810.001L5966.52,938.346C5966.52,974.34 5985.46,1004.18 6021.45,1004.18C6058.39,1004.18 6083.97,974.813 6099.12,954.922L6099.12,999.44L6155.95,999.44L6155.95,810.001L6099.12,810.001L6099.12,942.609Z" style="fill:rgb(252,252,252);fill-rule:nonzero;"/>
                <path d="M6243.1,854.993C6243.1,839.364 6243.1,814.263 6258.25,814.263C6272.93,814.263 6272.93,839.364 6272.93,865.412L6329.77,865.412C6329.77,839.364 6295.67,804.791 6258.25,804.791C6220.84,804.791 6186.27,820.42 6186.27,854.993C6186.27,914.193 6272.93,874.884 6272.93,955.396C6272.93,971.025 6272.93,996.125 6258.25,996.125C6243.1,996.125 6243.1,971.025 6243.1,945.924L6186.27,945.924C6186.27,971.025 6220.84,1005.6 6258.25,1005.6C6295.67,1005.6 6329.77,989.495 6329.77,955.396C6329.77,896.67 6243.1,935.031 6243.1,854.993Z" style="fill:rgb(252,252,252);fill-rule:nonzero;"/>
                <path d="M6462.37,943.082C6462.37,971.498 6424.49,971.498 6424.49,943.082L6424.49,819.947L6452.9,819.947L6452.9,810.475L6424.49,810.475L6424.49,753.643L6367.65,753.643L6367.65,810.475L6352.5,810.475L6352.5,819.947L6367.65,819.947L6367.65,943.082C6367.65,1018.86 6471.85,1018.86 6471.85,943.082L6462.37,943.082Z" style="fill:rgb(252,252,252);fill-rule:nonzero;"/>
                <path d="M6780.63,943.082C6780.63,836.996 6959.65,896.67 6959.65,763.115C6959.65,707.704 6915.61,663.659 6860.2,663.659C6824.68,663.659 6788.68,684.024 6771.16,718.596L6780.63,718.596C6797.21,690.181 6824.68,673.131 6860.2,673.131C6894.77,673.131 6902.82,712.913 6902.82,763.115C6902.82,896.67 6771.16,839.838 6771.16,943.082L6771.16,999.914L6960.6,999.914L6960.6,943.082L6780.63,943.082Z" style="fill:rgb(252,252,252);fill-rule:nonzero;"/>
                <path d="M7098.89,999.914C7191.72,999.914 7214.45,924.612 7214.45,834.155C7214.45,741.329 7192.19,668.395 7098.89,668.395C7007.49,668.395 6983.33,741.329 6983.33,834.155C6983.33,924.612 7007.49,999.914 7098.89,999.914ZM7098.89,990.442C7050.11,990.442 7037.32,918.929 7037.32,834.155C7037.32,746.539 7050.11,677.867 7098.89,677.867C7148.62,677.867 7160.46,746.539 7160.46,834.155C7160.46,918.929 7148.62,990.442 7098.89,990.442Z" style="fill:rgb(252,252,252);fill-rule:nonzero;"/>
                <path d="M7360.32,677.867C7417.15,680.235 7417.15,726.174 7417.15,767.851L7473.98,767.851C7473.98,726.174 7419.99,671.237 7360.32,668.395L7360.32,639.979L7350.85,639.979L7350.85,668.395C7291.17,669.816 7237.18,695.864 7237.18,751.275C7237.18,808.58 7299.7,818.052 7350.85,838.417L7350.85,990.442C7294.01,988.074 7294.01,942.135 7294.01,900.458L7237.18,900.458C7237.18,942.135 7291.17,997.072 7350.85,999.914L7350.85,1028.33L7360.32,1028.33L7360.32,999.914C7419.99,998.493 7473.98,972.445 7473.98,917.034C7473.98,859.729 7411.47,850.257 7360.32,829.892L7360.32,677.867ZM7294.01,751.275C7294.01,725.7 7294.01,680.235 7350.85,677.867L7350.85,826.103C7319.11,811.895 7294.01,792.004 7294.01,751.275ZM7360.32,842.206C7392.05,856.414 7417.15,876.305 7417.15,917.034C7417.15,942.609 7417.15,988.074 7360.32,990.442L7360.32,842.206Z" style="fill:rgb(252,252,252);fill-rule:nonzero;"/>
                <path d="M5596.4,1591.91C5688.75,1591.91 5762.16,1517.56 5762.16,1426.15C5762.16,1333.8 5688.75,1260.39 5596.4,1260.39C5504.99,1260.39 5430.64,1333.8 5430.64,1426.15C5430.64,1517.56 5504.99,1591.91 5596.4,1591.91ZM5596.4,1582.44C5510.2,1582.44 5487.47,1511.87 5487.47,1426.15C5487.47,1339.01 5510.2,1269.87 5596.4,1269.87C5683.54,1269.87 5705.33,1339.01 5705.33,1426.15C5705.33,1511.87 5683.54,1582.44 5596.4,1582.44Z" style="fill:rgb(252,252,252);fill-rule:nonzero;"/>
                <path d="M5926.97,1407.21C5990.43,1407.21 6022.16,1380.21 6021.69,1333.8C6021.22,1287.86 5989.96,1260.39 5926.97,1260.39L5784.89,1260.39L5784.89,1591.91L5794.36,1591.91L5794.36,1407.21L5948.28,1591.91L6021.69,1591.91L5868.24,1407.21L5926.97,1407.21ZM5926.97,1269.87C5953.02,1269.87 5965.33,1291.65 5964.86,1333.8C5964.39,1374.53 5951.6,1397.74 5926.97,1397.74L5794.36,1397.74L5794.36,1269.87L5926.97,1269.87Z" style="fill:rgb(252,252,252);fill-rule:nonzero;"/>
                <path d="M4217.28,2018.15C4216.81,1905.91 4185.55,1852.39 4122.56,1852.39L3980.48,1852.39L3980.48,2183.91L4122.56,2183.91C4186.02,2183.91 4217.75,2130.87 4217.28,2018.15ZM4160.45,2018.15C4159.97,2125.18 4147.19,2174.44 4122.56,2174.44L4037.31,2174.44L4037.31,1861.86L4122.56,1861.86C4148.61,1861.86 4160.92,1909.7 4160.45,2018.15Z" style="fill:rgb(252,252,252);fill-rule:nonzero;"/>
                <path d="M4339.47,2188.65C4394.88,2188.65 4438.92,2144.13 4438.92,2089.19C4438.92,2033.78 4394.88,1989.74 4339.47,1989.74C4284.53,1989.74 4240.01,2033.78 4240.01,2089.19C4240.01,2144.13 4284.53,2188.65 4339.47,2188.65ZM4339.47,2179.18C4305.84,2179.18 4296.84,2138.45 4296.84,2089.19C4296.84,2038.99 4305.84,1999.21 4339.47,1999.21C4374.04,1999.21 4382.09,2038.99 4382.09,2089.19C4382.09,2138.45 4374.04,2179.18 4339.47,2179.18Z" style="fill:rgb(252,252,252);fill-rule:nonzero;"/>
                <path d="M4607.05,1994.47L4574.37,2085.4L4556.38,2034.25L4570.58,1994.47L4510.44,1994.47L4477.76,2085.4L4445.55,1994.47L4435.13,1994.47L4502.86,2183.91L4551.17,2048.93L4599.47,2183.91L4667.2,1994.47L4607.05,1994.47Z" style="fill:rgb(252,252,252);fill-rule:nonzero;"/>
                <path d="M4824.43,1989.74C4787.49,1989.74 4761.92,2019.1 4746.76,2038.99L4746.76,1994.47L4689.93,1994.47L4689.93,2183.91L4746.76,2183.91L4746.76,2051.3C4766.18,2024.78 4789.86,2003.94 4806.91,2009.15C4817.33,2012.47 4822.54,2021.47 4822.54,2055.57L4822.54,2183.91L4879.37,2183.91L4879.37,2055.57C4879.37,2019.57 4860.43,1989.74 4824.43,1989.74Z" style="fill:rgb(252,252,252);fill-rule:nonzero;"/>
                <rect x="4909.68" y="1852.39" width="56.832" height="331.519" style="fill:rgb(252,252,252);fill-rule:nonzero;"/>
                <path d="M5088.7,2188.65C5144.11,2188.65 5188.16,2144.13 5188.16,2089.19C5188.16,2033.78 5144.11,1989.74 5088.7,1989.74C5033.76,1989.74 4989.24,2033.78 4989.24,2089.19C4989.24,2144.13 5033.76,2188.65 5088.7,2188.65ZM5088.7,2179.18C5055.07,2179.18 5046.08,2138.45 5046.08,2089.19C5046.08,2038.99 5055.07,1999.21 5088.7,1999.21C5123.27,1999.21 5131.32,2038.99 5131.32,2089.19C5131.32,2138.45 5123.27,2179.18 5088.7,2179.18Z" style="fill:rgb(252,252,252);fill-rule:nonzero;"/>
                <path d="M5304.66,1989.26C5245.94,1989.26 5236.46,2026.2 5236.46,2050.83L5245.94,2050.83C5245.94,2012.94 5271.04,1998.73 5299.93,1998.73C5328.82,1998.73 5334.5,2026.2 5335.45,2064.09C5321.71,2055.09 5302.77,2056.51 5258.25,2056.51C5222.26,2056.51 5203.31,2086.35 5203.31,2122.34C5203.31,2158.34 5222.26,2188.17 5258.25,2188.17C5295.19,2188.17 5320.76,2158.81 5335.92,2138.92L5335.92,2183.44L5392.75,2183.44L5392.75,2088.72C5392.75,2033.31 5360.07,1989.26 5304.66,1989.26ZM5275.77,2168.76C5265.35,2165.44 5260.14,2156.44 5260.14,2122.34C5260.14,2070.72 5302.29,2050.83 5335.92,2074.51L5335.92,2126.61C5316.5,2153.13 5292.82,2173.97 5275.77,2168.76Z" style="fill:rgb(252,252,252);fill-rule:nonzero;"/>
                <path d="M5552.83,2032.83C5544.3,2009.63 5529.62,1989.74 5503.1,1989.74C5447.69,1989.74 5415.48,2033.78 5415.48,2089.19C5415.48,2144.13 5447.69,2188.65 5503.1,2188.65C5529.62,2188.65 5544.3,2168.28 5552.83,2145.55L5552.83,2183.91L5609.66,2183.91L5609.66,1852.39L5552.83,1852.39L5552.83,2032.83ZM5503.1,2179.18C5480.37,2179.18 5472.32,2138.45 5472.32,2089.19C5472.32,2038.99 5480.37,1999.21 5503.1,1999.21C5531.99,1999.21 5552.83,2038.99 5552.83,2089.19C5552.83,2138.45 5531.99,2179.18 5503.1,2179.18Z" style="fill:rgb(252,252,252);fill-rule:nonzero;"/>
                <path d="M6026.43,2127.08C6026.43,2155.49 5988.54,2155.49 5988.54,2127.08L5988.54,2003.94L6016.95,2003.94L6016.95,1994.47L5988.54,1994.47L5988.54,1937.64L5931.71,1937.64L5931.71,1994.47L5916.55,1994.47L5916.55,2003.94L5931.71,2003.94L5931.71,2127.08C5931.71,2202.86 6035.9,2202.86 6035.9,2127.08L6026.43,2127.08Z" style="fill:rgb(252,252,252);fill-rule:nonzero;"/>
                <path d="M6193.13,1989.74C6156.19,1989.74 6130.62,2019.1 6115.46,2038.99L6115.46,1852.39L6058.63,1852.39L6058.63,2183.91L6115.46,2183.91L6115.46,2051.3C6134.88,2024.78 6158.56,2003.94 6175.61,2009.15C6186.03,2012.47 6191.24,2021.47 6191.24,2055.57L6191.24,2183.91L6248.07,2183.91L6248.07,2055.57C6248.07,2019.57 6229.13,1989.74 6193.13,1989.74Z" style="fill:rgb(252,252,252);fill-rule:nonzero;"/>
                <path d="M6280.28,2088.72C6280.28,2083.51 6280.75,2077.82 6282.17,2072.62L6455.51,2072.62C6455.51,2028.1 6425.2,1989.74 6369.78,1989.74C6314.85,1989.74 6270.33,2033.78 6270.8,2088.72C6271.28,2163.07 6343.74,2209.49 6422.83,2179.65L6398.68,2124.71C6327.16,2183.44 6280.28,2146.02 6280.28,2088.72ZM6284.54,2063.14C6303.95,2005.84 6382.1,1969.84 6397.25,2063.14L6284.54,2063.14Z" style="fill:rgb(252,252,252);fill-rule:nonzero;"/>
                <path d="M6864.7,2127.08C6864.7,2155.49 6826.81,2155.49 6826.81,2127.08L6826.81,2003.94L6855.22,2003.94L6855.22,1994.47L6826.81,1994.47L6826.81,1937.64L6769.98,1937.64L6769.98,1994.47L6754.82,1994.47L6754.82,2003.94L6769.98,2003.94L6769.98,2127.08C6769.98,2202.86 6874.17,2202.86 6874.17,2127.08L6864.7,2127.08Z" style="fill:rgb(252,252,252);fill-rule:nonzero;"/>
                <path d="M7002.99,1989.74C6975.99,1989.74 6961.78,2005.36 6953.73,2024.31L6953.73,1994.47L6896.9,1994.47L6896.9,2183.91L6953.73,2183.91L6953.73,2089.19C6953.73,2038.99 6964.62,1999.21 6998.25,1999.21C7032.82,1999.21 7034.24,2038.99 7034.24,2089.19L7091.08,2089.19C7091.08,2033.78 7058.4,1989.74 7002.99,1989.74Z" style="fill:rgb(252,252,252);fill-rule:nonzero;"/>
                <path d="M7146.96,1970.79C7165.43,1970.79 7180.11,1956.11 7180.11,1937.64C7180.11,1919.17 7165.43,1904.49 7146.96,1904.49C7128.49,1904.49 7113.81,1919.17 7113.81,1937.64C7113.81,1956.11 7128.49,1970.79 7146.96,1970.79ZM7175.38,2183.91L7175.38,1994.47L7118.54,1994.47L7118.54,2183.91L7175.38,2183.91Z" style="fill:rgb(252,252,252);fill-rule:nonzero;"/>
                <path d="M7304.19,1989.26C7245.47,1989.26 7236,2026.2 7236,2050.83L7245.47,2050.83C7245.47,2012.94 7270.57,1998.73 7299.46,1998.73C7328.35,1998.73 7334.03,2026.2 7334.98,2064.09C7321.24,2055.09 7302.3,2056.51 7257.78,2056.51C7221.79,2056.51 7202.85,2086.35 7202.85,2122.34C7202.85,2158.34 7221.79,2188.17 7257.78,2188.17C7294.72,2188.17 7320.3,2158.81 7335.45,2138.92L7335.45,2183.44L7392.28,2183.44L7392.28,2088.72C7392.28,2033.31 7359.61,1989.26 7304.19,1989.26ZM7275.31,2168.76C7264.89,2165.44 7259.68,2156.44 7259.68,2122.34C7259.68,2070.72 7301.83,2050.83 7335.45,2074.51L7335.45,2126.61C7316.03,2153.13 7292.36,2173.97 7275.31,2168.76Z" style="fill:rgb(252,252,252);fill-rule:nonzero;"/>
                <rect x="7422.6" y="1852.39" width="56.832" height="331.519" style="fill:rgb(252,252,252);fill-rule:nonzero;"/>
                <path d="M3934.3,2586.47L3905.89,2586.47L3905.89,2595.94L3934.3,2595.94L3934.3,2775.91L3991.14,2775.91L3991.14,2595.94L4038.5,2595.94L4038.5,2586.47L3991.14,2586.47L3991.14,2539.11C3991.14,2482.28 4000.13,2427.81 4082.54,2457.65L4086.33,2448.65C4007.24,2419.29 3934.3,2465.23 3934.3,2539.11L3934.3,2586.47Z" style="fill:rgb(252,252,252);fill-rule:nonzero;"/>
                <path d="M4134.64,2780.64C4190.05,2780.64 4234.09,2736.13 4234.09,2681.19C4234.09,2625.78 4190.05,2581.73 4134.64,2581.73C4079.7,2581.73 4035.18,2625.78 4035.18,2681.19C4035.18,2736.13 4079.7,2780.64 4134.64,2780.64ZM4134.64,2771.17C4101.01,2771.17 4092.01,2730.44 4092.01,2681.19C4092.01,2630.99 4101.01,2591.21 4134.64,2591.21C4169.21,2591.21 4177.26,2630.99 4177.26,2681.19C4177.26,2730.44 4169.21,2771.17 4134.64,2771.17Z" style="fill:rgb(252,252,252);fill-rule:nonzero;"/>
                <path d="M4391.33,2581.73C4354.39,2581.73 4328.81,2611.1 4313.66,2630.99L4313.66,2586.47L4256.82,2586.47L4256.82,2775.91L4313.66,2775.91L4313.66,2643.3C4333.07,2616.78 4356.75,2595.94 4373.8,2601.15C4384.22,2604.47 4389.43,2613.47 4389.43,2647.56L4389.43,2775.91L4446.26,2775.91L4446.26,2647.56C4446.26,2611.57 4427.32,2581.73 4391.33,2581.73Z" style="fill:rgb(252,252,252);fill-rule:nonzero;"/>
                <path d="M4578.87,2719.08C4578.87,2747.49 4540.98,2747.49 4540.98,2719.08L4540.98,2595.94L4569.4,2595.94L4569.4,2586.47L4540.98,2586.47L4540.98,2529.64L4484.15,2529.64L4484.15,2586.47L4469,2586.47L4469,2595.94L4484.15,2595.94L4484.15,2719.08C4484.15,2794.85 4588.34,2794.85 4588.34,2719.08L4578.87,2719.08Z" style="fill:rgb(252,252,252);fill-rule:nonzero;"/>
                <path d="M4997.53,2719.08C4997.53,2747.49 4959.65,2747.49 4959.65,2719.08L4959.65,2595.94L4988.06,2595.94L4988.06,2586.47L4959.65,2586.47L4959.65,2529.64L4902.81,2529.64L4902.81,2586.47L4887.66,2586.47L4887.66,2595.94L4902.81,2595.94L4902.81,2719.08C4902.81,2794.85 5007.01,2794.85 5007.01,2719.08L4997.53,2719.08Z" style="fill:rgb(252,252,252);fill-rule:nonzero;"/>
                <path d="M5121.62,2780.64C5177.03,2780.64 5221.07,2736.13 5221.07,2681.19C5221.07,2625.78 5177.03,2581.73 5121.62,2581.73C5066.68,2581.73 5022.16,2625.78 5022.16,2681.19C5022.16,2736.13 5066.68,2780.64 5121.62,2780.64ZM5121.62,2771.17C5087.99,2771.17 5078.99,2730.44 5078.99,2681.19C5078.99,2630.99 5087.99,2591.21 5121.62,2591.21C5156.19,2591.21 5164.24,2630.99 5164.24,2681.19C5164.24,2730.44 5156.19,2771.17 5121.62,2771.17Z" style="fill:rgb(252,252,252);fill-rule:nonzero;"/>
                <path d="M5584.8,2630.99C5584.8,2615.36 5584.8,2590.26 5599.95,2590.26C5614.63,2590.26 5614.63,2615.36 5614.63,2641.41L5671.46,2641.41C5671.46,2615.36 5637.36,2580.79 5599.95,2580.79C5562.54,2580.79 5527.96,2596.41 5527.96,2630.99C5527.96,2690.19 5614.63,2650.88 5614.63,2731.39C5614.63,2747.02 5614.63,2772.12 5599.95,2772.12C5584.8,2772.12 5584.8,2747.02 5584.8,2721.92L5527.96,2721.92C5527.96,2747.02 5562.54,2781.59 5599.95,2781.59C5637.36,2781.59 5671.46,2765.49 5671.46,2731.39C5671.46,2672.66 5584.8,2711.03 5584.8,2630.99Z" style="fill:rgb(252,252,252);fill-rule:nonzero;"/>
                <path d="M5703.67,2680.72C5703.67,2675.51 5704.14,2669.82 5705.56,2664.61L5878.9,2664.61C5878.9,2620.1 5848.59,2581.73 5793.18,2581.73C5738.24,2581.73 5693.72,2625.78 5694.2,2680.72C5694.67,2755.07 5767.13,2801.48 5846.22,2771.65L5822.07,2716.71C5750.56,2775.43 5703.67,2738.02 5703.67,2680.72ZM5707.93,2655.14C5727.35,2597.84 5805.49,2561.84 5820.65,2655.14L5707.93,2655.14Z" style="fill:rgb(252,252,252);fill-rule:nonzero;"/>
                <path d="M5903.53,2680.72C5903.53,2675.51 5904,2669.82 5905.42,2664.61L6078.76,2664.61C6078.76,2620.1 6048.45,2581.73 5993.04,2581.73C5938.1,2581.73 5893.58,2625.78 5894.06,2680.72C5894.53,2755.07 5966.99,2801.48 6046.08,2771.65L6021.93,2716.71C5950.41,2775.43 5903.53,2738.02 5903.53,2680.72ZM5907.79,2655.14C5927.21,2597.84 6005.35,2561.84 6020.51,2655.14L5907.79,2655.14Z" style="fill:rgb(252,252,252);fill-rule:nonzero;"/>
                <path d="M6418.8,2562.79C6437.27,2562.79 6451.95,2548.11 6451.95,2529.64C6451.95,2511.17 6437.27,2496.49 6418.8,2496.49C6400.33,2496.49 6385.65,2511.17 6385.65,2529.64C6385.65,2548.11 6400.33,2562.79 6418.8,2562.79ZM6447.22,2775.91L6447.22,2586.47L6390.39,2586.47L6390.39,2775.91L6447.22,2775.91Z" style="fill:rgb(252,252,252);fill-rule:nonzero;"/>
                <path d="M6501.21,2586.47L6472.79,2586.47L6472.79,2595.94L6501.21,2595.94L6501.21,2775.91L6558.04,2775.91L6558.04,2595.94L6605.4,2595.94L6605.4,2586.47L6558.04,2586.47L6558.04,2539.11C6558.04,2482.28 6567.04,2427.81 6649.44,2457.65L6653.23,2448.65C6574.14,2419.29 6501.21,2465.23 6501.21,2539.11L6501.21,2586.47Z" style="fill:rgb(252,252,252);fill-rule:nonzero;"/>
                <path d="M7036.38,2769.75L6963.44,2586.47L6952.55,2586.47L7033.06,2783.49L7023.59,2818.53C7012.22,2861.63 7001.8,2884.84 6971.49,2884.84L6971.49,2894.31C7050.58,2894.31 7069.53,2839.85 7075.68,2818.53L7141.99,2586.47L7085.16,2586.47L7036.38,2769.75Z" style="fill:rgb(252,252,252);fill-rule:nonzero;"/>
                <path d="M7242.39,2780.64C7297.8,2780.64 7341.85,2736.13 7341.85,2681.19C7341.85,2625.78 7297.8,2581.73 7242.39,2581.73C7187.45,2581.73 7142.94,2625.78 7142.94,2681.19C7142.94,2736.13 7187.45,2780.64 7242.39,2780.64ZM7242.39,2771.17C7208.77,2771.17 7199.77,2730.44 7199.77,2681.19C7199.77,2630.99 7208.77,2591.21 7242.39,2591.21C7276.96,2591.21 7285.01,2630.99 7285.01,2681.19C7285.01,2730.44 7276.96,2771.17 7242.39,2771.17Z" style="fill:rgb(252,252,252);fill-rule:nonzero;"/>
                <path d="M7497.19,2718.6C7477.77,2745.12 7454.09,2765.96 7437.04,2760.75C7426.62,2757.44 7421.41,2748.44 7421.41,2714.34L7421.41,2586L7364.58,2586L7364.58,2714.34C7364.58,2750.34 7383.52,2780.17 7419.52,2780.17C7456.46,2780.17 7482.03,2750.81 7497.19,2730.92L7497.19,2775.43L7554.02,2775.43L7554.02,2586L7497.19,2586L7497.19,2718.6Z" style="fill:rgb(252,252,252);fill-rule:nonzero;"/>
                <rect x="4381.62" y="3036.39" width="56.832" height="331.519" style="fill:rgb(252,252,252);fill-rule:nonzero;"/>
                <path d="M4501.91,3154.79C4520.38,3154.79 4535.06,3140.11 4535.06,3121.64C4535.06,3103.17 4520.38,3088.48 4501.91,3088.48C4483.44,3088.48 4468.76,3103.17 4468.76,3121.64C4468.76,3140.11 4483.44,3154.79 4501.91,3154.79ZM4530.33,3367.91L4530.33,3178.47L4473.5,3178.47L4473.5,3367.91L4530.33,3367.91Z" style="fill:rgb(252,252,252);fill-rule:nonzero;"/>
                <path d="M4670.99,3178.47L4622.21,3222.04L4622.21,3036.39L4565.37,3036.39L4565.37,3367.91L4622.21,3367.91L4622.21,3298.29L4636.89,3285.03L4740.13,3367.91L4754.81,3367.91L4643.99,3278.4L4754.81,3178.47L4670.99,3178.47Z" style="fill:rgb(252,252,252);fill-rule:nonzero;"/>
                <path d="M4760.5,3272.71C4760.5,3267.5 4760.97,3261.82 4762.39,3256.61L4935.73,3256.61C4935.73,3212.09 4905.42,3173.73 4850.01,3173.73C4795.07,3173.73 4750.55,3217.78 4751.03,3272.71C4751.5,3347.07 4823.96,3393.48 4903.05,3363.64L4878.9,3308.71C4807.38,3367.43 4760.5,3330.02 4760.5,3272.71ZM4764.76,3247.14C4784.18,3189.83 4862.32,3153.84 4877.48,3247.14L4764.76,3247.14Z" style="fill:rgb(252,252,252);fill-rule:nonzero;"/>
                <path d="M5275.77,3154.79C5294.24,3154.79 5308.92,3140.11 5308.92,3121.64C5308.92,3103.17 5294.24,3088.48 5275.77,3088.48C5257.3,3088.48 5242.62,3103.17 5242.62,3121.64C5242.62,3140.11 5257.3,3154.79 5275.77,3154.79ZM5304.19,3367.91L5304.19,3178.47L5247.36,3178.47L5247.36,3367.91L5304.19,3367.91Z" style="fill:rgb(252,252,252);fill-rule:nonzero;"/>
                <path d="M5441.53,3311.08C5441.53,3339.49 5403.64,3339.49 5403.64,3311.08L5403.64,3187.94L5432.06,3187.94L5432.06,3178.47L5403.64,3178.47L5403.64,3121.64L5346.81,3121.64L5346.81,3178.47L5331.66,3178.47L5331.66,3187.94L5346.81,3187.94L5346.81,3311.08C5346.81,3386.85 5451,3386.85 5451,3311.08L5441.53,3311.08Z" style="fill:rgb(252,252,252);fill-rule:nonzero;"/>
                <path d="M5849.77,3372.64C5905.19,3372.64 5949.23,3328.12 5949.23,3273.19C5949.23,3217.78 5905.19,3173.73 5849.77,3173.73C5794.84,3173.73 5750.32,3217.78 5750.32,3273.19C5750.32,3328.12 5794.84,3372.64 5849.77,3372.64ZM5849.77,3363.17C5816.15,3363.17 5807.15,3322.44 5807.15,3273.19C5807.15,3222.99 5816.15,3183.2 5849.77,3183.2C5884.35,3183.2 5892.4,3222.99 5892.4,3273.19C5892.4,3322.44 5884.35,3363.17 5849.77,3363.17Z" style="fill:rgb(252,252,252);fill-rule:nonzero;"/>
                <path d="M6078.05,3173.73C6051.05,3173.73 6036.85,3189.36 6028.79,3208.31L6028.79,3178.47L5971.96,3178.47L5971.96,3367.91L6028.79,3367.91L6028.79,3273.19C6028.79,3222.99 6039.69,3183.2 6073.31,3183.2C6107.89,3183.2 6109.31,3222.99 6109.31,3273.19L6166.14,3273.19C6166.14,3217.78 6133.46,3173.73 6078.05,3173.73Z" style="fill:rgb(252,252,252);fill-rule:nonzero;"/>
                <path d="M6607.53,3173.73C6570.59,3173.73 6545.02,3203.1 6529.86,3222.99L6529.86,3178.47L6473.03,3178.47L6473.03,3367.91L6529.86,3367.91L6529.86,3235.3C6549.28,3208.78 6572.96,3187.94 6590.01,3193.15C6600.43,3196.47 6605.64,3205.46 6605.64,3239.56L6605.64,3367.91L6662.47,3367.91L6662.47,3239.56C6662.47,3203.57 6643.53,3173.73 6607.53,3173.73Z" style="fill:rgb(252,252,252);fill-rule:nonzero;"/>
                <path d="M6784.66,3372.64C6840.07,3372.64 6884.11,3328.12 6884.11,3273.19C6884.11,3217.78 6840.07,3173.73 6784.66,3173.73C6729.72,3173.73 6685.2,3217.78 6685.2,3273.19C6685.2,3328.12 6729.72,3372.64 6784.66,3372.64ZM6784.66,3363.17C6751.03,3363.17 6742.03,3322.44 6742.03,3273.19C6742.03,3222.99 6751.03,3183.2 6784.66,3183.2C6819.23,3183.2 6827.28,3222.99 6827.28,3273.19C6827.28,3322.44 6819.23,3363.17 6784.66,3363.17Z" style="fill:rgb(252,252,252);fill-rule:nonzero;"/>
                <path d="M6994.94,3311.08C6994.94,3339.49 6957.05,3339.49 6957.05,3311.08L6957.05,3187.94L6985.46,3187.94L6985.46,3178.47L6957.05,3178.47L6957.05,3121.64L6900.22,3121.64L6900.22,3178.47L6885.06,3178.47L6885.06,3187.94L6900.22,3187.94L6900.22,3311.08C6900.22,3386.85 7004.41,3386.85 7004.41,3311.08L6994.94,3311.08Z" style="fill:rgb(252,252,252);fill-rule:nonzero;"/>
                <path d="M7024.3,3282.66L7081.13,3282.66L7081.13,3036.39L7024.3,3036.39L7024.3,3282.66ZM7052.71,3306.34C7034.24,3306.34 7019.56,3321.02 7019.56,3339.49C7019.56,3357.96 7034.24,3372.64 7052.71,3372.64C7071.19,3372.64 7085.87,3357.96 7085.87,3339.49C7085.87,3321.02 7071.19,3306.34 7052.71,3306.34Z" style="fill:rgb(252,252,252);fill-rule:nonzero;"/>
            </g>
            <g transform="matrix(1.27139e-17,0.207634,-9.17992,5.62108e-16,5566.04,-91.3142)">
                <rect x="632.432" y="143.361" width="12.118" height="147.06" style="fill:rgb(252,252,252);"/>
            </g>
            <g transform="matrix(1.27139e-17,0.207634,-9.17992,5.62108e-16,5566.04,906.17)">
                <rect x="632.432" y="143.361" width="12.118" height="147.06" style="fill:rgb(252,252,252);"/>
            </g>
        </g>
    </g>
</svg>
