<?xml version="1.0" encoding="UTF-8" standalone="no"?>
<!DOCTYPE svg PUBLIC "-//W3C//DTD SVG 1.1//EN" "http://www.w3.org/Graphics/SVG/1.1/DTD/svg11.dtd">
<svg width="100%" height="100%" viewBox="0 0 1350 1080" version="1.1" xmlns="http://www.w3.org/2000/svg" xmlns:xlink="http://www.w3.org/1999/xlink" xml:space="preserve" xmlns:serif="http://www.serif.com/" style="fill-rule:evenodd;clip-rule:evenodd;stroke-linejoin:round;stroke-miterlimit:2;">
    <rect id="Artboard1" x="0" y="0" width="1350" height="1080" style="fill:none;"/>
    <g id="Artboard11" serif:id="Artboard1">
        <rect x="0" y="0" width="1350" height="1080"/>
        <g transform="matrix(19.7333,0,0,19.7333,-8014.15,-8831.31)">
            <path d="M420.962,480.251C425.234,479.819 428.498,476.243 428.498,471.899C428.498,467.219 424.778,463.499 420.098,463.499C415.466,463.499 411.698,467.219 411.698,471.899C411.698,476.291 415.082,479.915 419.378,480.275C417.89,480.491 416.474,481.283 415.73,482.411L416.114,482.699C416.762,481.835 417.578,481.283 418.466,481.355C419.402,481.427 420.866,483.035 423.098,483.059C425.714,483.083 426.818,481.955 426.818,480.299L426.338,480.299C426.194,482.675 422.666,480.515 420.962,480.251ZM414.578,471.899C414.578,467.483 415.73,463.979 420.098,463.979C424.514,463.979 425.618,467.483 425.618,471.899C425.618,476.243 424.514,479.819 420.098,479.819C415.73,479.819 414.578,476.243 414.578,471.899Z" style="fill:rgb(252,252,252);fill-rule:nonzero;"/>
            <path d="M436.37,477.395C435.386,478.739 434.186,479.795 433.322,479.531C432.794,479.363 432.53,478.907 432.53,477.179L432.53,470.675L429.65,470.675L429.65,477.179C429.65,479.003 430.61,480.515 432.434,480.515C434.306,480.515 435.602,479.027 436.37,478.019L436.37,480.275L439.25,480.275L439.25,470.675L436.37,470.675L436.37,477.395Z" style="fill:rgb(252,252,252);fill-rule:nonzero;"/>
            <path d="M442.466,469.499C443.402,469.499 444.146,468.755 444.146,467.819C444.146,466.883 443.402,466.139 442.466,466.139C441.53,466.139 440.786,466.883 440.786,467.819C440.786,468.755 441.53,469.499 442.466,469.499ZM443.906,480.299L443.906,470.699L441.026,470.699L441.026,480.299L443.906,480.299Z" style="fill:rgb(252,252,252);fill-rule:nonzero;"/>
            <path d="M454.202,470.699L450.962,474.179L448.73,470.699L445.298,470.699L448.922,476.387L445.298,480.299L445.946,480.299L449.21,476.795L451.442,480.299L454.898,480.299L451.25,474.611L454.898,470.699L454.202,470.699Z" style="fill:rgb(252,252,252);fill-rule:nonzero;"/>
            <rect x="456.05" y="463.499" width="2.88" height="16.8" style="fill:rgb(252,252,252);fill-rule:nonzero;"/>
            <path d="M463.61,479.987L459.914,470.699L459.362,470.699L463.442,480.683L462.962,482.459C462.386,484.643 461.858,485.819 460.322,485.819L460.322,486.299C464.33,486.299 465.29,483.539 465.602,482.459L468.962,470.699L466.082,470.699L463.61,479.987Z" style="fill:rgb(252,252,252);fill-rule:nonzero;"/>
        </g>
        <g transform="matrix(0.138069,0,0,0.138069,-238.633,828.796)">
            <path d="M3691.32,159.638L3602.28,-171.881L3544.03,-171.881L3554.45,-132.572L3454.52,159.638L3463.99,159.638L3494.77,69.655L3608.91,69.655L3633.07,159.638L3691.32,159.638ZM3558.71,-116.943L3606.54,60.183L3498.09,60.183L3558.71,-116.943Z" style="fill:rgb(252,252,252);fill-rule:nonzero;"/>
            <path d="M4225.54,60.183L3998.21,-171.881L3998.21,159.638L4055.04,159.638L4055.04,-100.841L4178.18,25.136L4178.18,159.638L4235.01,159.638L4235.01,-171.881L4225.54,-171.881L4225.54,60.183Z" style="fill:rgb(252,252,252);fill-rule:nonzero;"/>
            <path d="M4464.23,-171.881L4265.32,-171.881L4265.32,159.638L4464.23,159.638L4464.23,150.166L4322.15,150.166L4322.15,-1.385L4464.23,-1.385L4464.23,-10.857L4322.15,-10.857L4322.15,-162.409L4464.23,-162.409L4464.23,-171.881Z" style="fill:rgb(252,252,252);fill-rule:nonzero;"/>
            <path d="M4832.69,-171.881L4749.34,61.13L4691.08,-102.262L4716.19,-171.881L4656.04,-171.881L4572.68,61.13L4489.8,-171.881L4479.39,-171.881L4597.78,159.638L4686.35,-87.58L4774.44,159.638L4892.84,-171.881L4832.69,-171.881Z" style="fill:rgb(252,252,252);fill-rule:nonzero;"/>
            <path d="M5256.56,-89.001C5256.56,-115.049 5256.56,-162.409 5318.13,-162.409C5379.7,-162.409 5379.7,-115.049 5379.7,-72.425L5436.53,-72.425C5436.53,-115.049 5379.7,-171.881 5318.13,-171.881C5256.56,-171.881 5199.73,-145.833 5199.73,-89.001C5199.73,8.087 5379.7,-32.169 5379.7,76.759C5379.7,102.807 5379.7,150.166 5318.13,150.166C5256.56,150.166 5256.56,102.807 5256.56,60.183L5199.73,60.183C5199.73,102.807 5256.56,159.638 5318.13,159.638C5379.7,159.638 5436.53,133.59 5436.53,76.759C5436.53,-20.329 5256.56,19.927 5256.56,-89.001Z" style="fill:rgb(252,252,252);fill-rule:nonzero;"/>
            <path d="M5648.7,-171.881L5459.26,-171.881L5459.26,-115.049L5549.24,-115.049L5549.24,159.638L5558.72,159.638L5558.72,-115.049L5648.7,-115.049L5648.7,-171.881Z" style="fill:rgb(252,252,252);fill-rule:nonzero;"/>
            <path d="M5805.94,-47.324L5730.16,-171.881L5663.86,-171.881L5770.41,4.298L5663.86,159.638L5673.33,159.638L5900.65,-171.881L5891.18,-171.881L5805.94,-47.324Z" style="fill:rgb(252,252,252);fill-rule:nonzero;"/>
            <path d="M5932.86,-171.881L5923.39,-171.881L5923.39,159.638L6122.3,159.638L6122.3,102.807L5932.86,102.807L5932.86,-171.881Z" style="fill:rgb(252,252,252);fill-rule:nonzero;"/>
            <rect x="6145.03" y="-171.881" width="56.832" height="331.519" style="fill:rgb(252,252,252);fill-rule:nonzero;"/>
            <path d="M6289.01,-89.001C6289.01,-115.049 6289.01,-162.409 6350.57,-162.409C6412.14,-162.409 6412.14,-115.049 6412.14,-72.425L6468.97,-72.425C6468.97,-115.049 6412.14,-171.881 6350.57,-171.881C6289.01,-171.881 6232.17,-145.833 6232.17,-89.001C6232.17,8.087 6412.14,-32.169 6412.14,76.759C6412.14,102.807 6412.14,150.166 6350.57,150.166C6289.01,150.166 6289.01,102.807 6289.01,60.183L6232.17,60.183C6232.17,102.807 6289.01,159.638 6350.57,159.638C6412.14,159.638 6468.97,133.59 6468.97,76.759C6468.97,-20.329 6289.01,19.927 6289.01,-89.001Z" style="fill:rgb(252,252,252);fill-rule:nonzero;"/>
            <path d="M6679.25,-10.857L6556.11,-10.857L6556.11,-171.881L6499.28,-171.881L6499.28,159.638L6556.11,159.638L6556.11,-1.385L6679.25,-1.385L6679.25,159.638L6736.08,159.638L6736.08,-171.881L6679.25,-171.881L6679.25,-10.857Z" style="fill:rgb(252,252,252);fill-rule:nonzero;"/>
            <path d="M7279.77,159.638L7190.74,-171.881L7132.49,-171.881L7142.9,-132.572L7042.98,159.638L7052.45,159.638L7083.23,69.655L7197.37,69.655L7221.52,159.638L7279.77,159.638ZM7147.17,-116.943L7195,60.183L7086.55,60.183L7147.17,-116.943Z" style="fill:rgb(252,252,252);fill-rule:nonzero;"/>
            <path d="M7529.83,60.183L7302.51,-171.881L7302.51,159.638L7359.34,159.638L7359.34,-100.841L7482.47,25.136L7482.47,159.638L7539.31,159.638L7539.31,-171.881L7529.83,-171.881L7529.83,60.183Z" style="fill:rgb(252,252,252);fill-rule:nonzero;"/>
            <path d="M7806.42,-6.121C7805.94,-118.364 7774.69,-171.881 7711.7,-171.881L7569.62,-171.881L7569.62,159.638L7711.7,159.638C7775.16,159.638 7806.89,106.595 7806.42,-6.121ZM7749.58,-6.121C7749.11,100.912 7736.32,150.166 7711.7,150.166L7626.45,150.166L7626.45,-162.409L7711.7,-162.409C7737.74,-162.409 7750.06,-114.575 7749.58,-6.121Z" style="fill:rgb(252,252,252);fill-rule:nonzero;"/>
            <path d="M8120.89,-171.881L8120.89,159.638L8177.72,159.638L8177.72,-100.841L8309.38,33.661L8442.93,-86.633L8442.93,159.638L8452.4,159.638L8452.4,-171.881L8276.23,-13.225L8120.89,-171.881Z" style="fill:rgb(252,252,252);fill-rule:nonzero;"/>
            <path d="M8640.9,159.638C8733.25,159.638 8806.66,85.283 8806.66,-6.121C8806.66,-98.473 8733.25,-171.881 8640.9,-171.881C8549.49,-171.881 8475.14,-98.473 8475.14,-6.121C8475.14,85.283 8549.49,159.638 8640.9,159.638ZM8640.9,150.166C8554.7,150.166 8531.97,79.6 8531.97,-6.121C8531.97,-93.263 8554.7,-162.409 8640.9,-162.409C8728.04,-162.409 8749.82,-93.263 8749.82,-6.121C8749.82,79.6 8728.04,150.166 8640.9,150.166Z" style="fill:rgb(252,252,252);fill-rule:nonzero;"/>
            <path d="M9066.19,-6.121C9065.72,-118.364 9034.46,-171.881 8971.47,-171.881L8829.39,-171.881L8829.39,159.638L8971.47,159.638C9034.93,159.638 9066.66,106.595 9066.19,-6.121ZM9009.36,-6.121C9008.88,100.912 8996.1,150.166 8971.47,150.166L8886.22,150.166L8886.22,-162.409L8971.47,-162.409C8997.52,-162.409 9009.83,-114.575 9009.36,-6.121Z" style="fill:rgb(252,252,252);fill-rule:nonzero;"/>
            <path d="M9295.41,-171.881L9096.5,-171.881L9096.5,159.638L9295.41,159.638L9295.41,150.166L9153.33,150.166L9153.33,-1.385L9295.41,-1.385L9295.41,-10.857L9153.33,-10.857L9153.33,-162.409L9295.41,-162.409L9295.41,-171.881Z" style="fill:rgb(252,252,252);fill-rule:nonzero;"/>
            <path d="M9460.22,-25.065C9523.68,-25.065 9555.42,-52.06 9554.94,-98.473C9554.47,-144.412 9523.21,-171.881 9460.22,-171.881L9318.14,-171.881L9318.14,159.638L9327.61,159.638L9327.61,-25.065L9481.53,159.638L9554.94,159.638L9401.5,-25.065L9460.22,-25.065ZM9460.22,-162.409C9486.27,-162.409 9498.58,-140.623 9498.11,-98.473C9497.64,-57.743 9484.85,-34.537 9460.22,-34.537L9327.61,-34.537L9327.61,-162.409L9460.22,-162.409Z" style="fill:rgb(252,252,252);fill-rule:nonzero;"/>
            <path d="M9812.58,60.183L9585.25,-171.881L9585.25,159.638L9642.08,159.638L9642.08,-100.841L9765.22,25.136L9765.22,159.638L9822.05,159.638L9822.05,-171.881L9812.58,-171.881L9812.58,60.183Z" style="fill:rgb(252,252,252);fill-rule:nonzero;"/>
            <path d="M3658.88,420.118L3469.44,420.118L3469.44,476.949L3559.42,476.949L3559.42,751.637L3568.89,751.637L3568.89,476.949L3658.88,476.949L3658.88,420.118Z" style="fill:rgb(252,252,252);fill-rule:nonzero;"/>
            <path d="M3863.47,751.637L3774.43,420.118L3716.18,420.118L3726.6,459.426L3626.67,751.637L3636.14,751.637L3666.93,661.653L3781.06,661.653L3805.22,751.637L3863.47,751.637ZM3730.86,475.055L3778.7,652.181L3670.24,652.181L3730.86,475.055Z" style="fill:rgb(252,252,252);fill-rule:nonzero;"/>
            <path d="M4045.33,420.118L3895.68,577.826L3895.68,420.118L3886.2,420.118L3886.2,751.637L3895.68,751.637L3895.68,661.653L3960.56,592.981L4109.74,751.637L4123,751.637L3967.19,585.877L4123,420.118L4045.33,420.118Z" style="fill:rgb(252,252,252);fill-rule:nonzero;"/>
            <path d="M4344.65,420.118L4145.73,420.118L4145.73,751.637L4344.65,751.637L4344.65,742.165L4202.57,742.165L4202.57,590.613L4344.65,590.613L4344.65,581.141L4202.57,581.141L4202.57,429.59L4344.65,429.59L4344.65,420.118Z" style="fill:rgb(252,252,252);fill-rule:nonzero;"/>
            <path d="M4809.72,751.637C4902.07,751.637 4975.48,677.282 4975.48,585.877C4975.48,493.525 4902.07,420.118 4809.72,420.118C4718.32,420.118 4643.96,493.525 4643.96,585.877C4643.96,677.282 4718.32,751.637 4809.72,751.637ZM4809.72,742.165C4723.53,742.165 4700.79,671.599 4700.79,585.877C4700.79,498.735 4723.53,429.59 4809.72,429.59C4896.86,429.59 4918.65,498.735 4918.65,585.877C4918.65,671.599 4896.86,742.165 4809.72,742.165Z" style="fill:rgb(252,252,252);fill-rule:nonzero;"/>
            <path d="M5225.54,652.181L4998.21,420.118L4998.21,751.637L5055.04,751.637L5055.04,491.157L5178.18,617.135L5178.18,751.637L5235.01,751.637L5235.01,420.118L5225.54,420.118L5225.54,652.181Z" style="fill:rgb(252,252,252);fill-rule:nonzero;"/>
            <path d="M5778.7,751.637L5689.67,420.118L5631.41,420.118L5641.83,459.426L5541.9,751.637L5551.38,751.637L5582.16,661.653L5696.3,661.653L5720.45,751.637L5778.7,751.637ZM5646.1,475.055L5693.93,652.181L5585.48,652.181L5646.1,475.055Z" style="fill:rgb(252,252,252);fill-rule:nonzero;"/>
            <path d="M6322.39,585.877C6321.92,473.634 6290.66,420.118 6227.68,420.118L6085.6,420.118L6085.6,751.637L6227.68,751.637C6291.14,751.637 6322.87,698.594 6322.39,585.877ZM6265.56,585.877C6265.09,692.91 6252.3,742.165 6227.68,742.165L6142.43,742.165L6142.43,429.59L6227.68,429.59C6253.72,429.59 6266.04,477.423 6265.56,585.877Z" style="fill:rgb(252,252,252);fill-rule:nonzero;"/>
            <rect x="6352.7" y="420.118" width="56.832" height="331.519" style="fill:rgb(252,252,252);fill-rule:nonzero;"/>
            <path d="M6496.68,502.997C6496.68,476.949 6496.68,429.59 6558.25,429.59C6619.81,429.59 6619.81,476.949 6619.81,519.573L6676.65,519.573C6676.65,476.949 6619.81,420.118 6558.25,420.118C6496.68,420.118 6439.85,446.166 6439.85,502.997C6439.85,600.085 6619.81,559.829 6619.81,668.757C6619.81,694.805 6619.81,742.165 6558.25,742.165C6496.68,742.165 6496.68,694.805 6496.68,652.181L6439.85,652.181C6439.85,694.805 6496.68,751.637 6558.25,751.637C6619.81,751.637 6676.65,725.589 6676.65,668.757C6676.65,571.669 6496.68,611.925 6496.68,502.997Z" style="fill:rgb(252,252,252);fill-rule:nonzero;"/>
            <path d="M6943.76,493.525C6943.28,447.586 6912.03,420.118 6849.04,420.118L6706.96,420.118L6706.96,751.637L6763.79,751.637L6763.79,566.933L6849.04,566.933C6912.5,566.933 6944.23,539.938 6943.76,493.525ZM6886.92,493.525C6886.45,534.255 6873.66,557.461 6849.04,557.461L6763.79,557.461L6763.79,429.59L6849.04,429.59C6875.08,429.59 6887.4,451.375 6886.92,493.525Z" style="fill:rgb(252,252,252);fill-rule:nonzero;"/>
            <path d="M6975.96,420.118L6966.49,420.118L6966.49,751.637L7165.4,751.637L7165.4,694.805L6975.96,694.805L6975.96,420.118Z" style="fill:rgb(252,252,252);fill-rule:nonzero;"/>
            <path d="M7417.36,751.637L7328.32,420.118L7270.07,420.118L7280.49,459.426L7180.56,751.637L7190.03,751.637L7220.81,661.653L7334.95,661.653L7359.1,751.637L7417.36,751.637ZM7284.75,475.055L7332.58,652.181L7224.13,652.181L7284.75,475.055Z" style="fill:rgb(252,252,252);fill-rule:nonzero;"/>
            <path d="M7574.59,544.674L7498.81,420.118L7432.51,420.118L7539.07,596.296L7432.51,751.637L7441.98,751.637L7669.31,420.118L7659.84,420.118L7574.59,544.674Z" style="fill:rgb(252,252,252);fill-rule:nonzero;"/>
            <path d="M8158.06,420.118L7968.62,420.118L7968.62,476.949L8058.61,476.949L8058.61,751.637L8068.08,751.637L8068.08,476.949L8158.06,476.949L8158.06,420.118Z" style="fill:rgb(252,252,252);fill-rule:nonzero;"/>
            <path d="M8315.3,544.674L8239.52,420.118L8173.22,420.118L8279.78,596.296L8173.22,751.637L8182.69,751.637L8410.02,420.118L8400.55,420.118L8315.3,544.674Z" style="fill:rgb(252,252,252);fill-rule:nonzero;"/>
            <path d="M8669.55,493.525C8669.08,447.586 8637.82,420.118 8574.83,420.118L8432.75,420.118L8432.75,751.637L8489.58,751.637L8489.58,566.933L8574.83,566.933C8638.29,566.933 8670.02,539.938 8669.55,493.525ZM8612.72,493.525C8612.24,534.255 8599.46,557.461 8574.83,557.461L8489.58,557.461L8489.58,429.59L8574.83,429.59C8600.88,429.59 8613.19,451.375 8612.72,493.525Z" style="fill:rgb(252,252,252);fill-rule:nonzero;"/>
            <path d="M8891.19,420.118L8692.28,420.118L8692.28,751.637L8891.19,751.637L8891.19,742.165L8749.11,742.165L8749.11,590.613L8891.19,590.613L8891.19,581.141L8749.11,581.141L8749.11,429.59L8891.19,429.59L8891.19,420.118Z" style="fill:rgb(252,252,252);fill-rule:nonzero;"/>
            <path d="M9112.84,420.118L8913.93,420.118L8913.93,751.637L8970.76,751.637L8970.76,590.613L9112.84,590.613L9112.84,581.141L8970.76,581.141L8970.76,429.59L9112.84,429.59L9112.84,420.118Z" style="fill:rgb(252,252,252);fill-rule:nonzero;"/>
            <path d="M9364.79,751.637L9275.76,420.118L9217.5,420.118L9227.92,459.426L9127.99,751.637L9137.47,751.637L9168.25,661.653L9282.39,661.653L9306.54,751.637L9364.79,751.637ZM9232.18,475.055L9280.02,652.181L9171.56,652.181L9232.18,475.055Z" style="fill:rgb(252,252,252);fill-rule:nonzero;"/>
            <path d="M9356.27,586.351C9356.27,709.486 9477.98,787.157 9593.07,737.429L9568.91,684.386C9446.25,748.795 9365.74,684.859 9365.74,586.351C9365.74,487.842 9446.25,423.906 9568.91,488.316L9593.07,435.273C9477.98,385.545 9356.27,463.215 9356.27,586.351Z" style="fill:rgb(252,252,252);fill-rule:nonzero;"/>
            <path d="M9814.71,420.118L9615.8,420.118L9615.8,751.637L9814.71,751.637L9814.71,742.165L9672.63,742.165L9672.63,590.613L9814.71,590.613L9814.71,581.141L9672.63,581.141L9672.63,429.59L9814.71,429.59L9814.71,420.118Z" style="fill:rgb(252,252,252);fill-rule:nonzero;"/>
        </g>
        <g transform="matrix(0.138069,0,0,0.138069,-238.633,106.676)">
            <rect x="5374.72" y="-171.881" width="56.832" height="331.519" style="fill:rgb(252,252,252);fill-rule:nonzero;"/>
            <path d="M5689.19,60.183L5461.87,-171.881L5461.87,159.638L5518.7,159.638L5518.7,-100.841L5641.83,25.136L5641.83,159.638L5698.66,159.638L5698.66,-171.881L5689.19,-171.881L5689.19,60.183Z" style="fill:rgb(252,252,252);fill-rule:nonzero;"/>
            <path d="M5910.84,-171.881L5721.4,-171.881L5721.4,-115.049L5811.38,-115.049L5811.38,159.638L5820.85,159.638L5820.85,-115.049L5910.84,-115.049L5910.84,-171.881Z" style="fill:rgb(252,252,252);fill-rule:nonzero;"/>
            <path d="M6075.65,-25.065C6139.11,-25.065 6170.84,-52.06 6170.37,-98.473C6169.9,-144.412 6138.64,-171.881 6075.65,-171.881L5933.57,-171.881L5933.57,159.638L5943.04,159.638L5943.04,-25.065L6096.96,159.638L6170.37,159.638L6016.92,-25.065L6075.65,-25.065ZM6075.65,-162.409C6101.7,-162.409 6114.01,-140.623 6113.54,-98.473C6113.06,-57.743 6100.28,-34.537 6075.65,-34.537L5943.04,-34.537L5943.04,-162.409L6075.65,-162.409Z" style="fill:rgb(252,252,252);fill-rule:nonzero;"/>
            <path d="M6358.86,159.638C6451.21,159.638 6524.62,85.283 6524.62,-6.121C6524.62,-98.473 6451.21,-171.881 6358.86,-171.881C6267.46,-171.881 6193.1,-98.473 6193.1,-6.121C6193.1,85.283 6267.46,159.638 6358.86,159.638ZM6358.86,150.166C6272.67,150.166 6249.93,79.6 6249.93,-6.121C6249.93,-93.263 6272.67,-162.409 6358.86,-162.409C6446,-162.409 6467.79,-93.263 6467.79,-6.121C6467.79,79.6 6446,150.166 6358.86,150.166Z" style="fill:rgb(252,252,252);fill-rule:nonzero;"/>
            <path d="M6784.15,-6.121C6783.68,-118.364 6752.42,-171.881 6689.43,-171.881L6547.35,-171.881L6547.35,159.638L6689.43,159.638C6752.9,159.638 6784.63,106.595 6784.15,-6.121ZM6727.32,-6.121C6726.85,100.912 6714.06,150.166 6689.43,150.166L6604.19,150.166L6604.19,-162.409L6689.43,-162.409C6715.48,-162.409 6727.8,-114.575 6727.32,-6.121Z" style="fill:rgb(252,252,252);fill-rule:nonzero;"/>
            <path d="M6994.43,61.13C6994.43,109.911 6982.59,150.166 6932.86,150.166C6884.56,150.166 6871.3,109.911 6871.3,61.13L6871.3,-171.881L6814.46,-171.881L6814.46,41.239C6814.46,106.595 6867.51,159.638 6932.86,159.638C6999.17,159.638 7051.26,106.595 7051.26,41.239L7051.26,-171.881L6994.43,-171.881L6994.43,61.13Z" style="fill:rgb(252,252,252);fill-rule:nonzero;"/>
            <path d="M7074,-5.648C7074,117.488 7195.71,195.158 7310.8,145.43L7286.64,92.387C7163.98,156.797 7083.47,92.861 7083.47,-5.648C7083.47,-104.156 7163.98,-168.092 7286.64,-103.682L7310.8,-156.726C7195.71,-206.453 7074,-128.783 7074,-5.648Z" style="fill:rgb(252,252,252);fill-rule:nonzero;"/>
            <rect x="7333.53" y="-171.881" width="56.832" height="331.519" style="fill:rgb(252,252,252);fill-rule:nonzero;"/>
            <path d="M7648,60.183L7420.67,-171.881L7420.67,159.638L7477.5,159.638L7477.5,-100.841L7600.64,25.136L7600.64,159.638L7657.47,159.638L7657.47,-171.881L7648,-171.881L7648,60.183Z" style="fill:rgb(252,252,252);fill-rule:nonzero;"/>
            <path d="M7860.17,78.179C7845.01,114.646 7808.07,150.166 7771.13,150.166C7700.09,150.166 7684.94,62.077 7690.62,17.559C7699.15,-52.06 7760.24,-105.577 7858.28,-115.049L7845.49,-171.881C7731.35,-128.783 7687.31,-43.535 7681.15,17.559C7674.99,75.811 7698.2,159.638 7771.13,159.638C7809.02,159.638 7841.23,132.17 7860.17,100.439L7860.17,159.638L7917,159.638L7917,60.183L7860.17,60.183L7860.17,78.179Z" style="fill:rgb(252,252,252);fill-rule:nonzero;"/>
        </g>
        <g transform="matrix(0.207634,0,0,0.544094,542.428,121.946)">
            <rect x="632.432" y="143.361" width="12.118" height="147.06" style="fill:rgb(252,252,252);"/>
        </g>
    </g>
</svg>
