<?xml version="1.0" encoding="UTF-8" standalone="no"?>
<!DOCTYPE svg PUBLIC "-//W3C//DTD SVG 1.1//EN" "http://www.w3.org/Graphics/SVG/1.1/DTD/svg11.dtd">
<svg width="100%" height="100%" viewBox="0 0 316 108" version="1.1" xmlns="http://www.w3.org/2000/svg" xmlns:xlink="http://www.w3.org/1999/xlink" xml:space="preserve" xmlns:serif="http://www.serif.com/" style="fill-rule:evenodd;clip-rule:evenodd;stroke-linejoin:round;stroke-miterlimit:2;">
    <g transform="matrix(1,0,0,1,-20,-20)">
        <g id="Wordmark">
            <g transform="matrix(3.46235e-17,-0.565445,0.565445,3.46235e-17,72.0209,74)">
                <g transform="matrix(1,0,0,1,-95.5,-92)">
                    <clipPath id="_clip1">
                        <rect x="0" y="0" width="191" height="184"/>
                    </clipPath>
                    <g clip-path="url(#_clip1)">
                        <g transform="matrix(1.50307,0,0,1.50307,-59.3852,-37.5726)">
                            <g>
                                <path d="M77.772,146.838C55.265,137.057 39.509,114.621 39.509,88.534C39.509,53.467 67.979,24.997 103.046,24.997C138.113,24.997 166.583,53.467 166.583,88.534C166.583,114.68 150.757,137.158 128.169,146.903L102.958,81.912L77.772,146.838Z"/>
                            </g>
                        </g>
                    </g>
                </g>
            </g>
            <g transform="matrix(2.70701,0,0,2.70701,-2901.66,-2060.87)">
                <path d="M1122.97,770.793L1122.97,806.493L1126.37,806.493L1126.37,789.193L1147.57,789.193L1147.57,806.493L1150.97,806.493L1150.97,770.793L1147.57,770.793L1147.57,786.293L1126.37,786.293L1126.37,770.793L1122.97,770.793Z" style="fill-rule:nonzero;"/>
                <rect x="1158.42" y="770.793" width="3.4" height="35.7" style="fill-rule:nonzero;"/>
                <path d="M1172.67,788.293L1172.67,773.693L1184.37,773.693C1186.73,773.693 1188.65,774.293 1190.12,775.493C1191.58,776.693 1192.32,778.526 1192.32,780.993C1192.32,783.46 1191.58,785.293 1190.12,786.493C1188.65,787.693 1186.73,788.293 1184.37,788.293L1172.67,788.293ZM1169.27,770.793L1169.27,806.493L1172.67,806.493L1172.67,791.193L1185.12,791.193C1186.72,791.193 1188.17,790.968 1189.47,790.518C1190.77,790.068 1191.88,789.401 1192.82,788.518C1193.75,787.635 1194.47,786.56 1194.97,785.293C1195.47,784.026 1195.72,782.593 1195.72,780.993C1195.72,779.393 1195.47,777.96 1194.97,776.693C1194.47,775.426 1193.75,774.351 1192.82,773.468C1191.88,772.585 1190.77,771.918 1189.47,771.468C1188.17,771.018 1186.72,770.793 1185.12,770.793L1169.27,770.793Z" style="fill-rule:nonzero;"/>
            </g>
        </g>
    </g>
</svg>
