<?xml version="1.0" encoding="UTF-8" standalone="no"?>
<!DOCTYPE svg PUBLIC "-//W3C//DTD SVG 1.1//EN" "http://www.w3.org/Graphics/SVG/1.1/DTD/svg11.dtd">
<svg width="100%" height="100%" viewBox="0 0 1350 1080" version="1.1" xmlns="http://www.w3.org/2000/svg" xmlns:xlink="http://www.w3.org/1999/xlink" xml:space="preserve" xmlns:serif="http://www.serif.com/" style="fill-rule:evenodd;clip-rule:evenodd;stroke-linejoin:round;stroke-miterlimit:2;">
    <rect id="Fonts" x="0" y="0" width="1350" height="1080" style="fill:none;"/>
    <g id="Fonts1" serif:id="Fonts">
        <rect x="0" y="0" width="1350" height="1080" style="fill:rgb(237,203,150);"/>
        <g transform="matrix(12.7307,0,0,12.7307,-4180.8,-5968.59)">
            <path d="M352.276,520.083L352.324,519.843L352.396,519.843C352.972,519.843 353.436,519.667 353.788,519.315C354.14,518.963 354.316,518.499 354.316,517.923L354.316,504.243C354.316,503.667 354.14,503.203 353.788,502.851C353.436,502.499 352.972,502.323 352.396,502.323L352.372,502.083L365.212,502.083L365.932,506.931L365.716,506.931C365.236,503.907 363.332,502.395 360.004,502.395L358.012,502.395L358.012,509.619L359.884,509.619C360.684,509.619 361.324,509.367 361.804,508.863C362.284,508.359 362.524,507.707 362.524,506.907L362.764,506.907L362.764,512.907L362.524,512.907C362.524,512.043 362.26,511.331 361.732,510.771C361.204,510.211 360.508,509.931 359.644,509.931L358.012,509.931L358.012,518.115C358.012,518.643 358.196,519.063 358.564,519.375C358.932,519.687 359.388,519.843 359.932,519.843L359.956,520.083L352.276,520.083Z" style="fill:rgb(7,7,7);fill-rule:nonzero;"/>
            <path d="M371.068,520.419C369.756,520.419 368.608,520.155 367.624,519.627C366.64,519.099 365.876,518.355 365.332,517.395C364.788,516.435 364.516,515.299 364.516,513.987C364.516,512.675 364.788,511.539 365.332,510.579C365.876,509.619 366.64,508.875 367.624,508.347C368.608,507.819 369.756,507.555 371.068,507.555C372.38,507.555 373.524,507.819 374.5,508.347C375.476,508.875 376.236,509.619 376.78,510.579C377.324,511.539 377.596,512.675 377.596,513.987C377.596,515.299 377.324,516.435 376.78,517.395C376.236,518.355 375.476,519.099 374.5,519.627C373.524,520.155 372.38,520.419 371.068,520.419ZM371.044,520.107C371.604,520.107 372.084,519.827 372.484,519.267C372.884,518.707 373.196,517.959 373.42,517.023C373.644,516.087 373.756,515.067 373.756,513.963C373.756,512.763 373.64,511.703 373.408,510.783C373.176,509.863 372.856,509.143 372.448,508.623C372.04,508.103 371.58,507.843 371.068,507.843C370.524,507.843 370.048,508.123 369.64,508.683C369.232,509.243 368.916,509.987 368.692,510.915C368.468,511.843 368.356,512.859 368.356,513.963C368.356,515.179 368.476,516.251 368.716,517.179C368.956,518.107 369.28,518.827 369.688,519.339C370.096,519.851 370.548,520.107 371.044,520.107Z" style="fill:rgb(7,7,7);fill-rule:nonzero;"/>
            <path d="M377.932,520.083L377.932,519.843L377.956,519.843C378.532,519.843 378.996,519.667 379.348,519.315C379.7,518.963 379.876,518.499 379.876,517.923L379.876,510.051C379.876,509.443 379.752,508.971 379.504,508.635C379.256,508.299 378.732,508.131 377.932,508.131L377.932,507.891L380.308,507.891C381.124,507.891 381.748,507.803 382.18,507.627C382.58,507.451 382.86,507.235 383.02,506.979L383.26,506.979L383.284,510.339C383.7,509.507 384.332,508.835 385.18,508.323C386.028,507.811 386.924,507.555 387.868,507.555C388.94,507.555 389.8,507.907 390.448,508.611C391.096,509.315 391.42,510.243 391.42,511.395L391.42,517.923C391.42,518.499 391.596,518.963 391.948,519.315C392.3,519.667 392.764,519.843 393.34,519.843L393.364,519.843L393.364,520.083L386.044,520.083L386.044,519.843L386.068,519.843C386.644,519.843 387.108,519.667 387.46,519.315C387.812,518.963 387.988,518.499 387.988,517.923L387.988,511.155C387.988,510.355 387.832,509.715 387.52,509.235C387.208,508.755 386.796,508.515 386.284,508.515C385.788,508.515 385.272,508.727 384.736,509.151C384.2,509.575 383.732,510.147 383.332,510.867L383.332,517.923C383.332,518.499 383.508,518.963 383.86,519.315C384.212,519.667 384.676,519.843 385.252,519.843L385.276,519.843L385.276,520.083L377.932,520.083Z" style="fill:rgb(7,7,7);fill-rule:nonzero;"/>
            <path d="M397.18,520.419C396.348,520.419 395.668,520.155 395.14,519.627C394.612,519.099 394.348,518.411 394.348,517.563L394.348,508.323L392.308,508.323L392.308,508.011C393.412,507.931 394.4,507.579 395.272,506.955C396.144,506.331 396.86,505.491 397.42,504.435L397.804,504.435L397.804,507.891L400.996,507.891L400.756,508.323L397.804,508.323L397.804,517.035C397.804,518.315 398.236,518.955 399.1,518.955C399.388,518.955 399.72,518.867 400.096,518.691C400.472,518.515 400.828,518.283 401.164,517.995L401.164,518.235C400.636,518.907 400.012,519.439 399.292,519.831C398.572,520.223 397.868,520.419 397.18,520.419Z" style="fill:rgb(7,7,7);fill-rule:nonzero;"/>
            <path d="M406.06,520.419C405.644,520.419 405.332,520.403 405.124,520.371C404.916,520.339 404.72,520.299 404.536,520.251C404.352,520.203 404.108,520.163 403.804,520.131C403.5,520.099 403.036,520.083 402.412,520.083L401.836,515.571L402.148,515.571C402.404,517.075 402.884,518.207 403.588,518.967C404.292,519.727 405.06,520.107 405.892,520.107C406.708,520.107 407.328,519.939 407.752,519.603C408.176,519.267 408.388,518.811 408.388,518.235C408.388,517.867 408.296,517.543 408.112,517.263C407.928,516.983 407.612,516.695 407.164,516.399C406.716,516.103 406.108,515.747 405.34,515.331L404.644,514.947C403.764,514.451 403.112,513.871 402.688,513.207C402.264,512.543 402.052,511.827 402.052,511.059C402.052,509.971 402.448,509.115 403.24,508.491C404.032,507.867 405.092,507.555 406.42,507.555C406.756,507.555 407.028,507.571 407.236,507.603C407.444,507.635 407.644,507.675 407.836,507.723C408.028,507.771 408.268,507.811 408.556,507.843C408.844,507.875 409.228,507.891 409.708,507.891L410.044,511.755L409.756,511.755C409.66,511.003 409.448,510.335 409.12,509.751C408.792,509.167 408.404,508.711 407.956,508.383C407.508,508.055 407.052,507.891 406.588,507.891C405.98,507.891 405.496,508.051 405.136,508.371C404.776,508.691 404.596,509.139 404.596,509.715C404.596,510.147 404.736,510.543 405.016,510.903C405.296,511.263 405.836,511.651 406.636,512.067L407.356,512.427C408.476,513.003 409.292,513.603 409.804,514.227C410.316,514.851 410.572,515.651 410.572,516.627C410.572,519.123 409.068,520.387 406.06,520.419Z" style="fill:rgb(7,7,7);fill-rule:nonzero;"/>
        </g>
        <g transform="matrix(0.495676,0,0,1,190.618,0)">
            <rect x="218.577" y="0" width="10.016" height="1080" style="fill:rgb(188,95,4);"/>
        </g>
        <g transform="matrix(0.495676,0,0,1,937.731,0)">
            <rect x="218.577" y="0" width="10.016" height="1080" style="fill:rgb(188,95,4);"/>
        </g>
        <g transform="matrix(3.03514e-17,-0.495676,1.25,7.65404e-17,2.27374e-13,531.628)">
            <rect x="218.577" y="0" width="10.016" height="1080" style="fill:rgb(188,95,4);"/>
        </g>
        <g transform="matrix(3.03514e-17,-0.495676,1.25,7.65404e-17,2.27374e-13,765.058)">
            <rect x="218.577" y="0" width="10.016" height="1080" style="fill:rgb(188,95,4);"/>
        </g>
        <g transform="matrix(3.03514e-17,-0.495676,1.25,7.65404e-17,2.27374e-13,298.198)">
            <rect x="218.577" y="0" width="10.016" height="1080" style="fill:rgb(188,95,4);"/>
        </g>
        <g transform="matrix(3.03514e-17,-0.495676,1.25,7.65404e-17,2.27374e-13,998.488)">
            <rect x="218.577" y="0" width="10.016" height="1080" style="fill:rgb(188,95,4);"/>
        </g>
    </g>
</svg>
