<?xml version="1.0" encoding="UTF-8" standalone="no"?>
<!DOCTYPE svg PUBLIC "-//W3C//DTD SVG 1.1//EN" "http://www.w3.org/Graphics/SVG/1.1/DTD/svg11.dtd">
<svg width="100%" height="100%" viewBox="0 0 1350 1080" version="1.1" xmlns="http://www.w3.org/2000/svg" xmlns:xlink="http://www.w3.org/1999/xlink" xml:space="preserve" xmlns:serif="http://www.serif.com/" style="fill-rule:evenodd;clip-rule:evenodd;stroke-linejoin:round;stroke-miterlimit:2;">
    <rect x="0" y="0" width="1350" height="1080" style="fill:rgb(242,240,227);"/>
    <g transform="matrix(17.8386,0,0,17.8386,-7852.77,-10452.9)">
        <path d="M456.228,608.289L446.148,608.289L446.148,625.089L449.028,625.089L449.028,616.929L456.228,616.929L456.228,616.449L449.028,616.449L449.028,608.769L456.228,608.769L456.228,608.289Z" style="fill:rgb(247,111,83);fill-rule:nonzero;"/>
        <path d="M465.396,625.089C470.076,625.089 473.796,621.321 473.796,616.689C473.796,612.009 470.076,608.289 465.396,608.289C460.764,608.289 456.996,612.009 456.996,616.689C456.996,621.321 460.764,625.089 465.396,625.089ZM465.396,624.609C461.028,624.609 459.876,621.033 459.876,616.689C459.876,612.273 461.028,608.769 465.396,608.769C469.812,608.769 470.916,612.273 470.916,616.689C470.916,621.033 469.812,624.609 465.396,624.609Z" style="fill:rgb(247,111,83);fill-rule:nonzero;"/>
        <path d="M486.468,620.049L474.948,608.289L474.948,625.089L477.828,625.089L477.828,611.889L484.068,618.273L484.068,625.089L486.948,625.089L486.948,608.289L486.468,608.289L486.468,620.049Z" style="fill:rgb(247,111,83);fill-rule:nonzero;"/>
        <path d="M497.7,608.289L488.1,608.289L488.1,611.169L492.66,611.169L492.66,625.089L493.14,625.089L493.14,611.169L497.7,611.169L497.7,608.289Z" style="fill:rgb(247,111,83);fill-rule:nonzero;"/>
        <path d="M501.732,612.489C501.732,611.169 501.732,608.769 504.852,608.769C507.972,608.769 507.972,611.169 507.972,613.329L510.852,613.329C510.852,611.169 507.972,608.289 504.852,608.289C501.732,608.289 498.852,609.609 498.852,612.489C498.852,617.409 507.972,615.369 507.972,620.889C507.972,622.209 507.972,624.609 504.852,624.609C501.732,624.609 501.732,622.209 501.732,620.049L498.852,620.049C498.852,622.209 501.732,625.089 504.852,625.089C507.972,625.089 510.852,623.769 510.852,620.889C510.852,615.969 501.732,618.009 501.732,612.489Z" style="fill:rgb(247,111,83);fill-rule:nonzero;"/>
    </g>
    <g transform="matrix(17.8386,0,0,17.8386,-7860.77,-10460.9)">
        <path d="M456.228,608.289L446.148,608.289L446.148,625.089L449.028,625.089L449.028,616.929L456.228,616.929L456.228,616.449L449.028,616.449L449.028,608.769L456.228,608.769L456.228,608.289Z" style="fill:rgb(46,46,46);fill-rule:nonzero;"/>
        <path d="M465.396,625.089C470.076,625.089 473.796,621.321 473.796,616.689C473.796,612.009 470.076,608.289 465.396,608.289C460.764,608.289 456.996,612.009 456.996,616.689C456.996,621.321 460.764,625.089 465.396,625.089ZM465.396,624.609C461.028,624.609 459.876,621.033 459.876,616.689C459.876,612.273 461.028,608.769 465.396,608.769C469.812,608.769 470.916,612.273 470.916,616.689C470.916,621.033 469.812,624.609 465.396,624.609Z" style="fill:rgb(46,46,46);fill-rule:nonzero;"/>
        <path d="M486.468,620.049L474.948,608.289L474.948,625.089L477.828,625.089L477.828,611.889L484.068,618.273L484.068,625.089L486.948,625.089L486.948,608.289L486.468,608.289L486.468,620.049Z" style="fill:rgb(46,46,46);fill-rule:nonzero;"/>
        <path d="M497.7,608.289L488.1,608.289L488.1,611.169L492.66,611.169L492.66,625.089L493.14,625.089L493.14,611.169L497.7,611.169L497.7,608.289Z" style="fill:rgb(46,46,46);fill-rule:nonzero;"/>
        <path d="M501.732,612.489C501.732,611.169 501.732,608.769 504.852,608.769C507.972,608.769 507.972,611.169 507.972,613.329L510.852,613.329C510.852,611.169 507.972,608.289 504.852,608.289C501.732,608.289 498.852,609.609 498.852,612.489C498.852,617.409 507.972,615.369 507.972,620.889C507.972,622.209 507.972,624.609 504.852,624.609C501.732,624.609 501.732,622.209 501.732,620.049L498.852,620.049C498.852,622.209 501.732,625.089 504.852,625.089C507.972,625.089 510.852,623.769 510.852,620.889C510.852,615.969 501.732,618.009 501.732,612.489Z" style="fill:rgb(46,46,46);fill-rule:nonzero;"/>
    </g>
    <g transform="matrix(0.256961,0,0,0.256961,224.957,179.947)">
        <path d="M663.967,16.105L552.654,16.105L552.654,-129.458L501.279,-129.458L501.279,170.23L552.654,170.23L552.654,24.667L663.967,24.667L663.967,170.23L715.342,170.23L715.342,-129.458L663.967,-129.458L663.967,16.105Z" style="fill:rgb(247,111,83);fill-rule:nonzero;"/>
        <rect x="742.742" y="-129.458" width="51.375" height="299.688" style="fill:rgb(247,111,83);fill-rule:nonzero;"/>
        <path d="M977.355,96.593C963.655,129.558 930.261,161.668 896.867,161.668C832.649,161.668 818.949,82.036 824.086,41.793C831.792,-21.142 887.021,-69.52 975.643,-78.083L964.083,-129.458C860.905,-90.498 821.089,-13.436 815.524,41.793C809.958,94.452 830.936,170.23 896.867,170.23C931.118,170.23 960.23,145.399 977.355,116.715L977.355,170.23L1028.73,170.23L1028.73,80.324L977.355,80.324L977.355,96.593Z" style="fill:rgb(247,111,83);fill-rule:nonzero;"/>
        <path d="M1211.97,16.105L1100.65,16.105L1100.65,-129.458L1049.28,-129.458L1049.28,170.23L1100.65,170.23L1100.65,24.667L1211.97,24.667L1211.97,170.23L1263.34,170.23L1263.34,-129.458L1211.97,-129.458L1211.97,16.105Z" style="fill:rgb(247,111,83);fill-rule:nonzero;"/>
        <path d="M1706.03,169.374C1782.23,161.668 1840.46,97.877 1840.46,20.386C1840.46,-63.098 1774.1,-129.458 1690.61,-129.458C1607.99,-129.458 1540.77,-63.098 1540.77,20.386C1540.77,98.733 1601.13,163.38 1677.77,169.802C1651.23,173.655 1625.97,187.783 1612.69,207.905L1619.54,213.043C1631.1,197.63 1645.66,187.783 1661.5,189.068C1678.2,190.352 1704.31,219.037 1744.13,219.465C1790.8,219.893 1810.49,199.771 1810.49,170.23L1801.93,170.23C1799.36,212.615 1736.42,174.083 1706.03,169.374ZM1592.14,20.386C1592.14,-58.389 1612.69,-120.895 1690.61,-120.895C1769.39,-120.895 1789.08,-58.389 1789.08,20.386C1789.08,97.877 1769.39,161.668 1690.61,161.668C1612.69,161.668 1592.14,97.877 1592.14,20.386Z" style="fill:rgb(247,111,83);fill-rule:nonzero;"/>
        <path d="M2023.69,81.18C2023.69,125.277 2012.99,161.668 1968.04,161.668C1924.37,161.668 1912.38,125.277 1912.38,81.18L1912.38,-129.458L1861.01,-129.458L1861.01,63.199C1861.01,122.28 1908.96,170.23 1968.04,170.23C2027.98,170.23 2075.07,122.28 2075.07,63.199L2075.07,-129.458L2023.69,-129.458L2023.69,81.18Z" style="fill:rgb(247,111,83);fill-rule:nonzero;"/>
        <path d="M2309.68,170.23L2229.2,-129.458L2176.54,-129.458L2185.95,-93.923L2095.62,170.23L2104.18,170.23L2132.01,88.886L2235.19,88.886L2257.02,170.23L2309.68,170.23ZM2189.81,-79.795L2233.05,80.324L2135.01,80.324L2189.81,-79.795Z" style="fill:rgb(247,111,83);fill-rule:nonzero;"/>
        <path d="M2338.8,-129.458L2330.23,-129.458L2330.23,170.23L2510.05,170.23L2510.05,118.855L2338.8,118.855L2338.8,-129.458Z" style="fill:rgb(247,111,83);fill-rule:nonzero;"/>
        <rect x="2530.6" y="-129.458" width="51.375" height="299.688" style="fill:rgb(247,111,83);fill-rule:nonzero;"/>
        <path d="M2773.77,-129.458L2602.52,-129.458L2602.52,-78.083L2683.87,-78.083L2683.87,170.23L2692.43,170.23L2692.43,-78.083L2773.77,-78.083L2773.77,-129.458Z" style="fill:rgb(247,111,83);fill-rule:nonzero;"/>
        <path d="M2915.91,-16.861L2847.41,-129.458L2787.47,-129.458L2883.8,29.805L2787.47,170.23L2796.03,170.23L3001.53,-129.458L2992.97,-129.458L2915.91,-16.861Z" style="fill:rgb(247,111,83);fill-rule:nonzero;"/>
    </g>
    <g transform="matrix(0.256961,0,0,0.256961,354.99,894.826)">
        <path d="M664.823,-0.592C698.645,-8.726 715.77,-30.989 715.342,-63.098C714.914,-104.627 686.658,-129.458 629.717,-129.458L501.279,-129.458L501.279,170.23L629.717,170.23C687.086,170.23 715.77,141.546 715.342,82.464C714.914,37.511 698.217,9.683 664.823,-0.592ZM629.717,-120.895C653.264,-120.895 664.395,-101.202 663.967,-63.098C663.539,-26.28 651.979,-5.301 629.717,-5.301L552.654,-5.301L552.654,-120.895L629.717,-120.895ZM663.967,82.464C663.539,136.408 651.979,161.668 629.717,161.668L552.654,161.668L552.654,3.261L629.717,3.261C653.264,3.261 664.395,27.236 663.967,82.464Z" style="fill:rgb(247,111,83);fill-rule:nonzero;"/>
        <path d="M864.33,-16.861L795.83,-129.458L735.892,-129.458L832.22,29.805L735.892,170.23L744.455,170.23L949.955,-129.458L941.393,-129.458L864.33,-16.861Z" style="fill:rgb(247,111,83);fill-rule:nonzero;"/>
        <path d="M1220.53,20.814C1220.53,132.127 1330.56,202.34 1434.59,157.387L1412.76,109.436C1301.88,167.662 1229.09,109.865 1229.09,20.814C1229.09,-68.236 1301.88,-126.033 1412.76,-67.808L1434.59,-115.758C1330.56,-160.711 1220.53,-90.498 1220.53,20.814Z" style="fill:rgb(247,111,83);fill-rule:nonzero;"/>
        <path d="M1617.83,16.105L1506.52,16.105L1506.52,-129.458L1455.14,-129.458L1455.14,170.23L1506.52,170.23L1506.52,24.667L1617.83,24.667L1617.83,170.23L1669.21,170.23L1669.21,-129.458L1617.83,-129.458L1617.83,16.105Z" style="fill:rgb(247,111,83);fill-rule:nonzero;"/>
        <rect x="1696.61" y="-129.458" width="51.375" height="299.688" style="fill:rgb(247,111,83);fill-rule:nonzero;"/>
        <path d="M1989.44,-63.098C1989.02,-104.627 1960.76,-129.458 1903.82,-129.458L1775.38,-129.458L1775.38,170.23L1826.76,170.23L1826.76,3.261L1903.82,3.261C1961.19,3.261 1989.87,-21.142 1989.44,-63.098ZM1938.07,-63.098C1937.64,-26.28 1926.08,-5.301 1903.82,-5.301L1826.76,-5.301L1826.76,-120.895L1903.82,-120.895C1927.37,-120.895 1938.5,-101.202 1938.07,-63.098Z" style="fill:rgb(247,111,83);fill-rule:nonzero;"/>
    </g>
    <g transform="matrix(1.27139e-17,0.207634,-9.17992,5.62108e-16,2666.04,906.17)">
        <rect x="632.432" y="143.361" width="12.118" height="147.06" style="fill:rgb(46,46,46);"/>
    </g>
    <g transform="matrix(1.27139e-17,0.207634,-9.17992,5.62108e-16,2666.04,-91.3142)">
        <rect x="632.432" y="143.361" width="12.118" height="147.06" style="fill:rgb(46,46,46);"/>
    </g>
</svg>
