<?xml version="1.0" encoding="UTF-8" standalone="no"?>
<!DOCTYPE svg PUBLIC "-//W3C//DTD SVG 1.1//EN" "http://www.w3.org/Graphics/SVG/1.1/DTD/svg11.dtd">
<svg width="100%" height="100%" viewBox="0 0 1350 1080" version="1.1" xmlns="http://www.w3.org/2000/svg" xmlns:xlink="http://www.w3.org/1999/xlink" xml:space="preserve" xmlns:serif="http://www.serif.com/" style="fill-rule:evenodd;clip-rule:evenodd;stroke-linejoin:round;stroke-miterlimit:2;">
    <g transform="matrix(1,0,0,1,-1450,0)">
        <rect id="Games" x="1450" y="0" width="1350" height="1080" style="fill:none;"/>
        <g id="Games1" serif:id="Games">
            <rect x="1450" y="0" width="1350" height="1080" style="fill:rgb(234,226,183);"/>
            <g>
                <g transform="matrix(0.27262,0,0,0.27262,1496.29,652.42)">
                    <rect x="1943.81" y="402.993" width="181.191" height="181.191" style="fill:rgb(0,48,73);"/>
                </g>
                <g transform="matrix(0.27262,0,0,0.27262,1446.89,652.42)">
                    <rect x="1943.81" y="402.993" width="181.191" height="181.191" style="fill:rgb(214,40,40);"/>
                </g>
                <g transform="matrix(-0.27262,0,0,0.27262,2753.71,652.42)">
                    <rect x="1943.81" y="402.993" width="181.191" height="181.191" style="fill:rgb(214,40,40);"/>
                </g>
                <g transform="matrix(0.27262,0,0,0.27262,1397.49,701.816)">
                    <rect x="1943.81" y="402.993" width="181.191" height="181.191" style="fill:rgb(214,40,40);"/>
                </g>
                <g transform="matrix(-0.27262,0,0,0.27262,2803.11,701.816)">
                    <rect x="1943.81" y="402.993" width="181.191" height="181.191" style="fill:rgb(214,40,40);"/>
                </g>
                <g transform="matrix(0.27262,0,0,0.27262,1496.29,553.627)">
                    <rect x="1943.81" y="402.993" width="181.191" height="181.191" style="fill:rgb(214,40,40);"/>
                </g>
                <g transform="matrix(0.27262,0,0,0.27262,1545.68,553.627)">
                    <rect x="1943.81" y="402.993" width="181.191" height="181.191" style="fill:rgb(214,40,40);"/>
                </g>
                <g transform="matrix(0.27262,0,0,0.27262,1595.08,553.627)">
                    <rect x="1943.81" y="402.993" width="181.191" height="181.191" style="fill:rgb(214,40,40);"/>
                </g>
                <g transform="matrix(0.27262,0,0,0.27262,1595.08,652.42)">
                    <rect x="1943.81" y="402.993" width="181.191" height="181.191" style="fill:rgb(0,48,73);"/>
                </g>
                <g transform="matrix(0.27262,0,0,0.27262,1644.48,701.816)">
                    <rect x="1943.81" y="402.993" width="181.191" height="181.191" style="fill:rgb(0,48,73);"/>
                </g>
                <g transform="matrix(0.27262,0,0,0.27262,1446.89,701.816)">
                    <rect x="1943.81" y="402.993" width="181.191" height="181.191" style="fill:rgb(0,48,73);"/>
                </g>
                <g transform="matrix(0.27262,0,0,0.27262,1496.29,603.023)">
                    <rect x="1943.81" y="402.993" width="181.191" height="181.191" style="fill:rgb(0,48,73);"/>
                </g>
                <g transform="matrix(0.27262,0,0,0.27262,1446.89,603.023)">
                    <rect x="1943.81" y="402.993" width="181.191" height="181.191" style="fill:rgb(214,40,40);"/>
                </g>
                <g transform="matrix(-0.27262,0,0,0.27262,2753.71,603.023)">
                    <rect x="1943.81" y="402.993" width="181.191" height="181.191" style="fill:rgb(214,40,40);"/>
                </g>
                <g transform="matrix(0.27262,0,0,0.27262,1595.08,603.023)">
                    <rect x="1943.81" y="402.993" width="181.191" height="181.191" style="fill:rgb(0,48,73);"/>
                </g>
                <g transform="matrix(0.27262,0,0,0.27262,1545.68,603.023)">
                    <rect x="1943.81" y="402.993" width="181.191" height="181.191" style="fill:rgb(0,48,73);"/>
                </g>
                <g transform="matrix(0.27262,0,0,0.27262,1545.68,405.438)">
                    <rect x="1943.81" y="402.993" width="181.191" height="181.191" style="fill:rgb(0,48,73);"/>
                </g>
                <g transform="matrix(0.27262,0,0,0.27262,1595.08,405.438)">
                    <rect x="1943.81" y="402.993" width="181.191" height="181.191" style="fill:rgb(0,48,73);"/>
                </g>
                <g transform="matrix(0.27262,0,0,0.27262,1644.48,356.042)">
                    <rect x="1943.81" y="402.993" width="181.191" height="181.191" style="fill:rgb(0,48,73);"/>
                </g>
                <g transform="matrix(0.27262,0,0,0.27262,1545.68,454.834)">
                    <rect x="1943.81" y="402.993" width="181.191" height="181.191" style="fill:rgb(0,48,73);"/>
                </g>
                <g transform="matrix(0.27262,0,0,0.27262,1595.08,454.834)">
                    <rect x="1943.81" y="402.993" width="181.191" height="181.191" style="fill:rgb(0,48,73);"/>
                </g>
                <g transform="matrix(0.27262,0,0,0.27262,1644.48,405.438)">
                    <rect x="1943.81" y="402.993" width="181.191" height="181.191" style="fill:rgb(0,48,73);"/>
                </g>
                <g transform="matrix(0.27262,0,0,0.27262,1693.87,454.834)">
                    <rect x="1943.81" y="402.993" width="181.191" height="181.191" style="fill:rgb(214,40,40);"/>
                </g>
                <g transform="matrix(0.27262,0,0,0.27262,1743.27,454.834)">
                    <rect x="1943.81" y="402.993" width="181.191" height="181.191" style="fill:rgb(214,40,40);"/>
                </g>
                <g transform="matrix(0.27262,0,0,0.27262,1792.66,454.834)">
                    <rect x="1943.81" y="402.993" width="181.191" height="181.191" style="fill:rgb(214,40,40);"/>
                </g>
                <g transform="matrix(0.27262,0,0,0.27262,1792.66,504.231)">
                    <rect x="1943.81" y="402.993" width="181.191" height="181.191" style="fill:rgb(214,40,40);"/>
                </g>
                <g transform="matrix(0.27262,0,0,0.27262,1842.06,454.834)">
                    <rect x="1943.81" y="402.993" width="181.191" height="181.191" style="fill:rgb(252,191,73);"/>
                </g>
                <g transform="matrix(0.27262,0,0,0.27262,1792.66,553.627)">
                    <rect x="1943.81" y="402.993" width="181.191" height="181.191" style="fill:rgb(214,40,40);"/>
                </g>
                <g transform="matrix(0.27262,0,0,0.27262,1792.66,603.023)">
                    <rect x="1943.81" y="402.993" width="181.191" height="181.191" style="fill:rgb(214,40,40);"/>
                </g>
                <g transform="matrix(0.27262,0,0,0.27262,1842.06,553.627)">
                    <rect x="1943.81" y="402.993" width="181.191" height="181.191" style="fill:rgb(214,40,40);"/>
                </g>
                <g transform="matrix(0.27262,0,0,0.27262,1842.06,504.231)">
                    <rect x="1943.81" y="402.993" width="181.191" height="181.191" style="fill:rgb(214,40,40);"/>
                </g>
                <g transform="matrix(0.27262,0,0,0.27262,1743.27,504.231)">
                    <rect x="1943.81" y="402.993" width="181.191" height="181.191" style="fill:rgb(214,40,40);"/>
                </g>
                <g transform="matrix(0.27262,0,0,0.27262,1792.66,405.438)">
                    <rect x="1943.81" y="402.993" width="181.191" height="181.191" style="fill:rgb(252,191,73);"/>
                </g>
                <g transform="matrix(0.27262,0,0,0.27262,1792.66,356.042)">
                    <rect x="1943.81" y="402.993" width="181.191" height="181.191" style="fill:rgb(252,191,73);"/>
                </g>
                <g transform="matrix(0.27262,0,0,0.27262,1743.27,405.438)">
                    <rect x="1943.81" y="402.993" width="181.191" height="181.191" style="fill:rgb(214,40,40);"/>
                </g>
                <g transform="matrix(0.27262,0,0,0.27262,1743.27,356.042)">
                    <rect x="1943.81" y="402.993" width="181.191" height="181.191" style="fill:rgb(214,40,40);"/>
                </g>
                <g transform="matrix(0.27262,0,0,0.27262,1743.27,306.645)">
                    <rect x="1943.81" y="402.993" width="181.191" height="181.191" style="fill:rgb(252,191,73);"/>
                </g>
                <g transform="matrix(0.27262,0,0,0.27262,1496.29,454.834)">
                    <rect x="1943.81" y="402.993" width="181.191" height="181.191" style="fill:rgb(0,48,73);"/>
                </g>
                <g transform="matrix(0.27262,0,0,0.27262,1397.49,454.834)">
                    <rect x="1943.81" y="402.993" width="181.191" height="181.191" style="fill:rgb(0,48,73);"/>
                </g>
                <g transform="matrix(0.27262,0,0,0.27262,1348.1,454.834)">
                    <rect x="1943.81" y="402.993" width="181.191" height="181.191" style="fill:rgb(0,48,73);"/>
                </g>
                <g transform="matrix(0.27262,0,0,0.27262,1298.7,454.834)">
                    <rect x="1943.81" y="402.993" width="181.191" height="181.191" style="fill:rgb(0,48,73);"/>
                </g>
                <g transform="matrix(0.27262,0,0,0.27262,1298.7,504.231)">
                    <rect x="1943.81" y="402.993" width="181.191" height="181.191" style="fill:rgb(0,48,73);"/>
                </g>
                <g transform="matrix(0.27262,0,0,0.27262,1348.1,356.042)">
                    <rect x="1943.81" y="402.993" width="181.191" height="181.191" style="fill:rgb(0,48,73);"/>
                </g>
                <g transform="matrix(0.27262,0,0,0.27262,1348.1,553.627)">
                    <rect x="1943.81" y="402.993" width="181.191" height="181.191" style="fill:rgb(0,48,73);"/>
                </g>
                <g transform="matrix(0.27262,0,0,0.27262,1397.49,405.438)">
                    <rect x="1943.81" y="402.993" width="181.191" height="181.191" style="fill:rgb(0,48,73);"/>
                </g>
                <g transform="matrix(0.27262,0,0,0.27262,1348.1,405.438)">
                    <rect x="1943.81" y="402.993" width="181.191" height="181.191" style="fill:rgb(0,48,73);"/>
                </g>
                <g transform="matrix(0.27262,0,0,0.27262,1298.7,405.438)">
                    <rect x="1943.81" y="402.993" width="181.191" height="181.191" style="fill:rgb(0,48,73);"/>
                </g>
                <g transform="matrix(0.27262,0,0,0.27262,1348.1,504.231)">
                    <rect x="1943.81" y="402.993" width="181.191" height="181.191" style="fill:rgb(0,48,73);"/>
                </g>
                <g transform="matrix(0.27262,0,0,0.27262,1496.29,405.438)">
                    <rect x="1943.81" y="402.993" width="181.191" height="181.191" style="fill:rgb(214,40,40);"/>
                </g>
                <g transform="matrix(0.27262,0,0,0.27262,1446.89,356.042)">
                    <rect x="1943.81" y="402.993" width="181.191" height="181.191" style="fill:rgb(214,40,40);"/>
                </g>
                <g transform="matrix(0.27262,0,0,0.27262,1545.68,356.042)">
                    <rect x="1943.81" y="402.993" width="181.191" height="181.191" style="fill:rgb(214,40,40);"/>
                </g>
                <g transform="matrix(0.27262,0,0,0.27262,1595.08,306.645)">
                    <rect x="1943.81" y="402.993" width="181.191" height="181.191" style="fill:rgb(214,40,40);"/>
                </g>
                <g transform="matrix(0.27262,0,0,0.27262,1644.48,257.249)">
                    <rect x="1943.81" y="402.993" width="181.191" height="181.191" style="fill:rgb(214,40,40);"/>
                </g>
                <g transform="matrix(0.27262,0,0,0.27262,1644.48,207.852)">
                    <rect x="1943.81" y="402.993" width="181.191" height="181.191" style="fill:rgb(252,191,73);"/>
                </g>
                <g transform="matrix(0.27262,0,0,0.27262,1446.89,405.438)">
                    <rect x="1943.81" y="402.993" width="181.191" height="181.191" style="fill:rgb(214,40,40);"/>
                </g>
                <g transform="matrix(0.27262,0,0,0.27262,1397.49,356.042)">
                    <rect x="1943.81" y="402.993" width="181.191" height="181.191" style="fill:rgb(214,40,40);"/>
                </g>
                <g transform="matrix(0.27262,0,0,0.27262,1496.29,356.042)">
                    <rect x="1943.81" y="402.993" width="181.191" height="181.191" style="fill:rgb(214,40,40);"/>
                </g>
                <g transform="matrix(0.27262,0,0,0.27262,1496.29,257.249)">
                    <rect x="1943.81" y="402.993" width="181.191" height="181.191" style="fill:rgb(214,40,40);"/>
                </g>
                <g transform="matrix(0.27262,0,0,0.27262,1446.89,257.249)">
                    <rect x="1943.81" y="402.993" width="181.191" height="181.191" style="fill:rgb(214,40,40);"/>
                </g>
                <g transform="matrix(0.27262,0,0,0.27262,1397.49,257.249)">
                    <rect x="1943.81" y="402.993" width="181.191" height="181.191" style="fill:rgb(214,40,40);"/>
                </g>
                <g transform="matrix(0.27262,0,0,0.27262,1348.1,257.249)">
                    <rect x="1943.81" y="402.993" width="181.191" height="181.191" style="fill:rgb(214,40,40);"/>
                </g>
                <g transform="matrix(0.27262,0,0,0.27262,1496.29,207.852)">
                    <rect x="1943.81" y="402.993" width="181.191" height="181.191" style="fill:rgb(214,40,40);"/>
                </g>
                <g transform="matrix(0.27262,0,0,0.27262,1446.89,207.852)">
                    <rect x="1943.81" y="402.993" width="181.191" height="181.191" style="fill:rgb(252,191,73);"/>
                </g>
                <g transform="matrix(0.27262,0,0,0.27262,1397.49,207.852)">
                    <rect x="1943.81" y="402.993" width="181.191" height="181.191" style="fill:rgb(214,40,40);"/>
                </g>
                <g transform="matrix(0.27262,0,0,0.27262,1348.1,207.852)">
                    <rect x="1943.81" y="402.993" width="181.191" height="181.191" style="fill:rgb(252,191,73);"/>
                </g>
                <g transform="matrix(0.27262,0,0,0.27262,1496.29,158.456)">
                    <rect x="1943.81" y="402.993" width="181.191" height="181.191" style="fill:rgb(214,40,40);"/>
                </g>
                <g transform="matrix(0.27262,0,0,0.27262,1446.89,158.456)">
                    <rect x="1943.81" y="402.993" width="181.191" height="181.191" style="fill:rgb(0,48,73);"/>
                </g>
                <g transform="matrix(0.27262,0,0,0.27262,1397.49,158.456)">
                    <rect x="1943.81" y="402.993" width="181.191" height="181.191" style="fill:rgb(214,40,40);"/>
                </g>
                <g transform="matrix(0.27262,0,0,0.27262,1348.1,158.456)">
                    <rect x="1943.81" y="402.993" width="181.191" height="181.191" style="fill:rgb(0,48,73);"/>
                </g>
                <g transform="matrix(0.27262,0,0,0.27262,1496.29,109.06)">
                    <rect x="1943.81" y="402.993" width="181.191" height="181.191" style="fill:rgb(214,40,40);"/>
                </g>
                <g transform="matrix(0.27262,0,0,0.27262,1446.89,109.06)">
                    <rect x="1943.81" y="402.993" width="181.191" height="181.191" style="fill:rgb(214,40,40);"/>
                </g>
                <g transform="matrix(0.27262,0,0,0.27262,1397.49,109.06)">
                    <rect x="1943.81" y="402.993" width="181.191" height="181.191" style="fill:rgb(214,40,40);"/>
                </g>
                <g transform="matrix(0.27262,0,0,0.27262,1348.1,109.06)">
                    <rect x="1943.81" y="402.993" width="181.191" height="181.191" style="fill:rgb(214,40,40);"/>
                </g>
                <g transform="matrix(0.27262,0,0,0.27262,1545.68,306.645)">
                    <rect x="1943.81" y="402.993" width="181.191" height="181.191" style="fill:rgb(214,40,40);"/>
                </g>
                <g transform="matrix(0.27262,0,0,0.27262,1595.08,257.249)">
                    <rect x="1943.81" y="402.993" width="181.191" height="181.191" style="fill:rgb(214,40,40);"/>
                </g>
                <g transform="matrix(0.27262,0,0,0.27262,1595.08,207.852)">
                    <rect x="1943.81" y="402.993" width="181.191" height="181.191" style="fill:rgb(214,40,40);"/>
                </g>
                <g transform="matrix(0.27262,0,0,0.27262,1595.08,158.456)">
                    <rect x="1943.81" y="402.993" width="181.191" height="181.191" style="fill:rgb(252,191,73);"/>
                </g>
                <g transform="matrix(0.27262,0,0,0.27262,1644.48,306.645)">
                    <rect x="1943.81" y="402.993" width="181.191" height="181.191" style="fill:rgb(214,40,40);"/>
                </g>
                <g transform="matrix(0.27262,0,0,0.27262,1595.08,356.042)">
                    <rect x="1943.81" y="402.993" width="181.191" height="181.191" style="fill:rgb(214,40,40);"/>
                </g>
            </g>
            <rect x="1450" y="861.076" width="1350" height="218.924" style="fill:rgb(252,191,73);"/>
        </g>
    </g>
</svg>
