<?xml version="1.0" encoding="UTF-8" standalone="no"?>
<!DOCTYPE svg PUBLIC "-//W3C//DTD SVG 1.1//EN" "http://www.w3.org/Graphics/SVG/1.1/DTD/svg11.dtd">
<svg width="100%" height="100%" viewBox="0 0 1350 1080" version="1.1" xmlns="http://www.w3.org/2000/svg" xmlns:xlink="http://www.w3.org/1999/xlink" xml:space="preserve" xmlns:serif="http://www.serif.com/" style="fill-rule:evenodd;clip-rule:evenodd;stroke-linejoin:round;stroke-miterlimit:2;">
    <rect x="0" y="0" width="1350" height="1080" style="fill:rgb(189,55,31);"/>
    <g transform="matrix(10.8516,0,0,10.8516,-1947.13,-2128.71)">
        <path d="M193.832,211.412L181.4,211.412C180.272,211.412 179.432,212.252 179.432,213.38L179.432,227.012L185.288,227.012C185.6,227.012 186.272,226.652 186.272,226.028L186.272,224.132L186.992,224.132L186.992,227.012L191.864,227.012C192.992,227.012 193.832,226.172 193.832,225.044L193.832,211.412ZM186.992,218.372L186.992,221.252L186.272,221.252L186.272,218.372L186.992,218.372Z" style="fill:rgb(234,242,227);fill-rule:nonzero;"/>
        <path d="M208.952,219.572L206.072,219.572L206.072,218.852L207.968,218.852C208.52,218.852 208.952,218.42 208.952,217.868L208.952,211.412L196.52,211.412C195.392,211.412 194.552,212.252 194.552,213.38L194.552,227.012L206.984,227.012C208.112,227.012 208.952,226.172 208.952,225.044L208.952,219.572ZM200.312,215.492L203.192,215.492L203.192,216.212L200.312,216.212L200.312,215.492ZM200.312,222.212L203.192,222.212L203.192,222.932L200.312,222.932L200.312,222.212Z" style="fill:rgb(234,242,227);fill-rule:nonzero;"/>
        <path d="M224.072,219.572L221.192,219.572L221.192,218.852L223.088,218.852C223.64,218.852 224.072,218.42 224.072,217.868L224.072,211.412L211.64,211.412C210.512,211.412 209.672,212.252 209.672,213.38L209.672,227.012L222.104,227.012C223.232,227.012 224.072,226.172 224.072,225.044L224.072,219.572Z" style="fill:rgb(234,242,227);fill-rule:nonzero;"/>
        <path d="M224.792,227.012L237.224,227.012C238.352,227.012 239.192,226.172 239.192,225.044L239.192,213.38C239.192,212.252 238.352,211.412 237.224,211.412L224.792,211.412L224.792,227.012ZM232.352,217.172L232.352,221.252L231.632,221.252L231.632,217.172L232.352,217.172Z" style="fill:rgb(234,242,227);fill-rule:nonzero;"/>
        <path d="M254.312,216.98L251.432,216.98L251.432,216.26L253.328,216.26C253.88,216.26 254.312,215.828 254.312,215.276L254.312,211.412L241.88,211.412C240.752,211.412 239.912,212.252 239.912,213.38L239.912,227.012L252.344,227.012C253.472,227.012 254.312,226.172 254.312,225.044L254.312,222.164L251.432,222.164L251.432,221.444L253.328,221.444C253.88,221.444 254.312,221.012 254.312,220.46L254.312,216.98Z" style="fill:rgb(234,242,227);fill-rule:nonzero;"/>
        <path d="M266.552,221.444L268.448,221.444C269,221.444 269.432,221.012 269.432,220.46L269.432,216.98L266.552,216.98L266.552,216.26L268.448,216.26C269,216.26 269.432,215.828 269.432,215.276L269.432,211.412L257,211.412C255.872,211.412 255.032,212.252 255.032,213.38L255.032,227.012L264.584,227.012C265.712,227.012 266.552,226.172 266.552,225.044L266.552,221.444Z" style="fill:rgb(234,242,227);fill-rule:nonzero;"/>
        <path d="M284.552,219.572L282.656,219.572C282.104,219.572 281.672,220.004 281.672,220.556L281.672,222.452L280.952,222.452L280.952,218.852L283.568,218.852C284.12,218.852 284.552,218.42 284.552,217.868L284.552,211.412L272.12,211.412C270.992,211.412 270.152,212.252 270.152,213.38L270.152,227.012L282.584,227.012C283.712,227.012 284.552,226.172 284.552,225.044L284.552,219.572Z" style="fill:rgb(234,242,227);fill-rule:nonzero;"/>
        <path d="M193.832,227.622L187.976,227.622C187.424,227.622 186.992,228.054 186.992,228.606L186.992,230.502L186.272,230.502L186.272,227.622L181.4,227.622C180.272,227.622 179.432,228.462 179.432,229.59L179.432,243.222L185.288,243.222C185.6,243.222 186.272,242.862 186.272,242.238L186.272,240.342L186.992,240.342L186.992,243.222L191.864,243.222C192.992,243.222 193.832,242.382 193.832,241.254L193.832,227.622Z" style="fill:rgb(234,242,227);fill-rule:nonzero;"/>
        <path d="M201.392,227.622L196.52,227.622C195.392,227.622 194.552,228.462 194.552,229.59L194.552,243.222L200.408,243.222C200.72,243.222 201.392,242.862 201.392,242.238L201.392,227.622Z" style="fill:rgb(234,242,227);fill-rule:nonzero;"/>
        <path d="M203.6,234.894C204.08,234.894 204.512,235.086 204.824,235.446L207.32,238.302L206.792,238.83L204.488,236.166C204.176,235.806 203.744,235.614 203.264,235.614L202.112,235.614L202.112,243.222L214.544,243.222C215.672,243.222 216.512,242.382 216.512,241.254L216.512,227.622L204.08,227.622C202.952,227.622 202.112,228.462 202.112,229.59L202.112,234.894L203.6,234.894Z" style="fill:rgb(234,242,227);fill-rule:nonzero;"/>
        <path d="M230.648,235.086C231.2,235.086 231.632,234.654 231.632,234.102L231.632,227.622L226.352,227.622L226.352,229.11C226.352,229.59 226.16,230.022 225.8,230.334L222.944,232.83L222.416,232.302L225.08,229.998C225.44,229.686 225.632,229.254 225.632,228.774L225.632,227.622L219.2,227.622C218.072,227.622 217.232,228.462 217.232,229.59L217.232,243.222L225.632,243.222L225.632,242.07C225.632,241.59 225.44,241.158 225.08,240.846L222.416,238.542L222.944,238.014L225.8,240.51C226.16,240.822 226.352,241.254 226.352,241.734L226.352,243.222L229.664,243.222C230.792,243.222 231.632,242.382 231.632,241.254L231.632,235.758L229.664,235.758L229.664,235.086L230.648,235.086Z" style="fill:rgb(234,242,227);fill-rule:nonzero;"/>
        <path d="M244.784,243.222C245.912,243.222 246.752,242.382 246.752,241.254L246.752,237.822L244.856,237.822C244.304,237.822 243.872,237.39 243.872,236.838L243.872,227.622L234.32,227.622C233.192,227.622 232.352,228.462 232.352,229.59L232.352,243.222L244.784,243.222Z" style="fill:rgb(234,242,227);fill-rule:nonzero;"/>
        <path d="M258.656,227.622C258.104,227.622 257.672,228.054 257.672,228.606L257.672,230.502L256.952,230.502L256.952,227.622L249.44,227.622C248.312,227.622 247.472,228.462 247.472,229.59L247.472,243.222L255.68,243.222L255.68,242.07C255.68,241.59 255.488,241.158 255.128,240.846L252.464,238.542L252.992,238.014L255.848,240.51C256.208,240.822 256.4,241.254 256.4,241.734L256.4,243.222L258.224,243.222L258.224,241.734C258.224,241.254 258.416,240.822 258.776,240.51L261.632,238.014L262.16,238.542L259.496,240.846C259.136,241.158 258.944,241.59 258.944,242.07L258.944,243.222L265.184,243.222C266.312,243.222 267.152,242.382 267.152,241.254L267.152,227.622L258.656,227.622Z" style="fill:rgb(234,242,227);fill-rule:nonzero;"/>
        <path d="M273.872,228.774C273.872,229.254 274.064,229.686 274.424,229.998L277.088,232.302L276.56,232.83L273.704,230.334C273.344,230.022 273.152,229.59 273.152,229.11L273.152,227.622L269.84,227.622C268.712,227.622 267.872,228.462 267.872,229.59L267.872,243.222L276.272,243.222L276.272,242.07C276.272,241.59 276.08,241.158 275.72,240.846L273.056,238.542L273.584,238.014L276.44,240.51C276.8,240.822 276.992,241.254 276.992,241.734L276.992,243.222L280.304,243.222C281.432,243.222 282.272,242.382 282.272,241.254L282.272,227.622L273.872,227.622L273.872,228.774Z" style="fill:rgb(234,242,227);fill-rule:nonzero;"/>
        <path d="M193.832,245.8C193.832,244.672 192.992,243.832 191.864,243.832L181.4,243.832C180.272,243.832 179.432,244.672 179.432,245.8L179.432,257.464C179.432,258.592 180.272,259.432 181.4,259.432L191.864,259.432C192.992,259.432 193.832,258.592 193.832,257.464L193.832,245.8ZM186.992,249.592L186.992,253.672L186.272,253.672L186.272,249.592L186.992,249.592Z" style="fill:rgb(234,242,227);fill-rule:nonzero;"/>
        <path d="M196.52,243.832C195.392,243.832 194.552,244.672 194.552,245.8L194.552,259.432L204.104,259.432C205.232,259.432 206.072,258.592 206.072,257.464L206.072,253.864L207.968,253.864C208.52,253.864 208.952,253.432 208.952,252.88L208.952,243.832L196.52,243.832ZM203.192,248.2L203.192,248.92L200.312,248.92L200.312,248.2L203.192,248.2Z" style="fill:rgb(234,242,227);fill-rule:nonzero;"/>
        <path d="M211.64,243.832C210.512,243.832 209.672,244.672 209.672,245.8L209.672,257.464C209.672,258.592 210.512,259.432 211.64,259.432L224.072,259.432L224.072,245.8C224.072,244.672 223.232,243.832 222.104,243.832L211.64,243.832ZM218.888,254.944C218.576,254.584 218.144,254.392 217.664,254.392L216.512,254.392L216.512,249.592L217.232,249.592L217.232,253.672L218,253.672C218.48,253.672 218.912,253.864 219.224,254.224L221.72,257.08L221.192,257.608L218.888,254.944Z" style="fill:rgb(234,242,227);fill-rule:nonzero;"/>
        <path d="M238.208,251.272C238.76,251.272 239.192,250.84 239.192,250.288L239.192,243.832L226.76,243.832C225.632,243.832 224.792,244.672 224.792,245.8L224.792,259.432L233.192,259.432L233.192,258.28C233.192,257.8 233,257.368 232.64,257.056L229.976,254.752L230.504,254.224L233.36,256.72C233.72,257.032 233.912,257.464 233.912,257.944L233.912,259.432L237.224,259.432C238.352,259.432 239.192,258.592 239.192,257.464L239.192,251.992L236.312,251.992L236.312,251.272L238.208,251.272ZM233.432,248.2L233.432,248.92L230.552,248.92L230.552,248.2L233.432,248.2Z" style="fill:rgb(234,242,227);fill-rule:nonzero;"/>
        <path d="M251.936,252.328C252.248,252.688 252.68,252.88 253.16,252.88L254.312,252.88L254.312,243.832L241.88,243.832C240.752,243.832 239.912,244.672 239.912,245.8L239.912,249.664L241.4,249.664C241.88,249.664 242.312,249.856 242.624,250.216L245.12,253.072L244.592,253.6L242.288,250.936C241.976,250.576 241.544,250.384 241.064,250.384L239.912,250.384L239.912,259.432L252.344,259.432C253.472,259.432 254.312,258.592 254.312,257.464L254.312,253.6L252.824,253.6C252.344,253.6 251.912,253.408 251.6,253.048L249.104,250.192L249.632,249.664L251.936,252.328Z" style="fill:rgb(234,242,227);fill-rule:nonzero;"/>
        <path d="M266.552,251.272L268.448,251.272C269,251.272 269.432,250.84 269.432,250.288L269.432,243.832L257,243.832C255.872,243.832 255.032,244.672 255.032,245.8L255.032,251.272L256.928,251.272C257.48,251.272 257.912,251.704 257.912,252.256L257.912,259.432L264.584,259.432C265.712,259.432 266.552,258.592 266.552,257.464L266.552,251.272Z" style="fill:rgb(234,242,227);fill-rule:nonzero;"/>
        <path d="M270.152,257.464C270.152,258.592 270.992,259.432 272.12,259.432L282.584,259.432C283.712,259.432 284.552,258.592 284.552,257.464L284.552,243.832L278.696,243.832C278.144,243.832 277.712,244.264 277.712,244.816L277.712,246.712L276.992,246.712L276.992,243.832L270.152,243.832L270.152,257.464Z" style="fill:rgb(234,242,227);fill-rule:nonzero;"/>
        <path d="M182.312,273.674C182.312,274.802 183.152,275.642 184.28,275.642L188.984,275.642C190.112,275.642 190.952,274.802 190.952,273.674L193.832,260.042L187.976,260.042C187.424,260.042 186.992,260.474 186.992,261.026L186.992,262.922L186.272,262.922L186.272,260.042L179.432,260.042L182.312,273.674Z" style="fill:rgb(234,242,227);fill-rule:nonzero;"/>
        <path d="M206.024,261.194C206.024,261.674 206.216,262.106 206.576,262.418L209.24,264.722L208.712,265.25L205.856,262.754C205.496,262.442 205.304,262.01 205.304,261.53L205.304,260.042L203.48,260.042L203.48,261.53C203.48,262.01 203.288,262.442 202.928,262.754L200.072,265.25L199.544,264.722L202.208,262.418C202.568,262.106 202.76,261.674 202.76,261.194L202.76,260.042L196.52,260.042C195.392,260.042 194.552,260.882 194.552,262.01L194.552,275.642L203.048,275.642C203.6,275.642 204.032,275.21 204.032,274.658L204.032,272.762L204.752,272.762L204.752,275.642L212.264,275.642C213.392,275.642 214.232,274.802 214.232,273.674L214.232,260.042L206.024,260.042L206.024,261.194Z" style="fill:rgb(234,242,227);fill-rule:nonzero;"/>
        <path d="M229.352,260.042L220.952,260.042L220.952,261.194C220.952,261.674 221.144,262.106 221.504,262.418L224.168,264.722L223.64,265.25L220.784,262.754C220.424,262.442 220.232,262.01 220.232,261.53L220.232,260.042L216.92,260.042C215.792,260.042 214.952,260.882 214.952,262.01L214.952,267.506L216.92,267.506L216.92,268.178C215.792,268.202 214.952,269.042 214.952,270.17L214.952,275.642L223.352,275.642L223.352,274.49C223.352,274.01 223.16,273.578 222.8,273.266L220.136,270.962L220.664,270.434L223.52,272.93C223.88,273.242 224.072,273.674 224.072,274.154L224.072,275.642L227.384,275.642C228.512,275.642 229.352,274.802 229.352,273.674L229.352,268.178L227.384,268.178L227.384,267.506C228.512,267.482 229.352,266.642 229.352,265.514L229.352,260.042Z" style="fill:rgb(234,242,227);fill-rule:nonzero;"/>
        <path d="M239.624,275.642C240.752,275.642 241.592,274.802 241.592,273.674L241.592,267.842L242.504,267.842C243.632,267.842 244.472,267.002 244.472,265.874L244.472,260.042L238.616,260.042C238.064,260.042 237.632,260.474 237.632,261.026L237.632,262.922L236.912,262.922L236.912,260.042L232.04,260.042C230.912,260.042 230.072,260.882 230.072,262.01L230.072,267.842L230.984,267.842C232.112,267.842 232.952,268.682 232.952,269.81L232.952,275.642L239.624,275.642Z" style="fill:rgb(234,242,227);fill-rule:nonzero;"/>
        <path d="M259.592,265.874L259.592,262.01C259.592,260.882 258.752,260.042 257.624,260.042L245.192,260.042L245.192,269.09L246.344,269.09C246.824,269.09 247.256,268.898 247.568,268.538L249.872,265.874L250.4,266.402L247.904,269.258C247.592,269.618 247.16,269.81 246.68,269.81L245.192,269.81L245.192,273.674C245.192,274.802 246.032,275.642 247.16,275.642L259.592,275.642L259.592,266.594L258.44,266.594C257.96,266.594 257.528,266.786 257.216,267.146L254.912,269.81L254.384,269.282L256.88,266.426C257.192,266.066 257.624,265.874 258.104,265.874L259.592,265.874Z" style="fill:rgb(234,242,227);fill-rule:nonzero;"/>
        <path d="M267.152,268.442L262.28,268.442C261.152,268.442 260.312,269.282 260.312,270.41L260.312,280.442L266.432,276.17C266.888,275.834 267.152,275.354 267.152,274.802L267.152,268.442Z" style="fill:rgb(234,242,227);fill-rule:nonzero;"/>
        <path d="M274.712,268.442L269.84,268.442C268.712,268.442 267.872,269.282 267.872,270.41L267.872,275.642L272.744,275.642C273.872,275.642 274.712,274.802 274.712,273.674L274.712,268.442Z" style="fill:rgb(234,242,227);fill-rule:nonzero;"/>
        <path d="M282.272,260.042L277.4,260.042C276.272,260.042 275.432,260.882 275.432,262.01L275.432,270.602L281.288,270.602C281.6,270.602 282.272,270.242 282.272,269.618L282.272,260.042ZM282.272,271.322L277.4,271.322C276.272,271.322 275.432,272.162 275.432,273.29L275.432,275.642L280.304,275.642C281.432,275.642 282.272,274.802 282.272,273.674L282.272,271.322Z" style="fill:rgb(234,242,227);fill-rule:nonzero;"/>
        <path d="M284.6,260.042C283.472,260.042 282.632,260.882 282.632,262.01L282.632,264.962L289.448,264.962L289.448,265.682L282.632,265.682L282.632,270.602L295.064,270.602C296.192,270.602 297.032,269.762 297.032,268.634L297.032,260.042L284.6,260.042ZM286.4,275.642L291.272,275.642C292.4,275.642 293.24,274.802 293.24,273.674L293.24,271.322L288.368,271.322C287.24,271.322 286.4,272.162 286.4,273.29L286.4,275.642Z" style="fill:rgb(234,242,227);fill-rule:nonzero;"/>
    </g>
</svg>
