<?xml version="1.0" encoding="UTF-8" standalone="no"?>
<!DOCTYPE svg PUBLIC "-//W3C//DTD SVG 1.1//EN" "http://www.w3.org/Graphics/SVG/1.1/DTD/svg11.dtd">
<svg width="100%" height="100%" viewBox="0 0 1350 1080" version="1.1" xmlns="http://www.w3.org/2000/svg" xmlns:xlink="http://www.w3.org/1999/xlink" xml:space="preserve" xmlns:serif="http://www.serif.com/" style="fill-rule:evenodd;clip-rule:evenodd;stroke-linejoin:round;stroke-miterlimit:2;">
    <g transform="matrix(1,0,0,1,0,-1144.08)">
        <g id="Artboard2" transform="matrix(16.1355,0,0,1,-23249.9,1144.08)">
            <rect x="1440.92" y="0" width="83.667" height="1080" style="fill:rgb(234,242,227);"/>
            <clipPath id="_clip1">
                <rect x="1440.92" y="0" width="83.667" height="1080"/>
            </clipPath>
            <g clip-path="url(#_clip1)">
                <g transform="matrix(0.673572,0,0,10.8684,1115.76,-4620.02)">
                    <path d="M500.26,428.27L494.404,428.27C493.852,428.27 493.42,428.702 493.42,429.254L493.42,431.15L492.7,431.15L492.7,428.27L487.828,428.27C486.7,428.27 485.86,429.11 485.86,430.238L485.86,443.87L491.716,443.87C492.028,443.87 492.7,443.51 492.7,442.886L492.7,440.99L493.42,440.99L493.42,443.87L498.292,443.87C499.42,443.87 500.26,443.03 500.26,441.902L500.26,428.27Z" style="fill:rgb(212,160,167);fill-rule:nonzero;"/>
                    <path d="M500.98,441.902C500.98,443.03 501.82,443.87 502.948,443.87L513.412,443.87C514.54,443.87 515.38,443.03 515.38,441.902L515.38,428.27L509.524,428.27C508.972,428.27 508.54,428.702 508.54,429.254L508.54,431.15L507.82,431.15L507.82,428.27L500.98,428.27L500.98,441.902Z" style="fill:rgb(212,160,167);fill-rule:nonzero;"/>
                    <path d="M527.284,428.27C526.732,428.27 526.3,428.702 526.3,429.254L526.3,431.15L525.58,431.15L525.58,428.27L518.068,428.27C516.94,428.27 516.1,429.11 516.1,430.238L516.1,443.87L524.308,443.87L524.308,442.718C524.308,442.238 524.116,441.806 523.756,441.494L521.092,439.19L521.62,438.662L524.476,441.158C524.836,441.47 525.028,441.902 525.028,442.382L525.028,443.87L526.852,443.87L526.852,442.382C526.852,441.902 527.044,441.47 527.404,441.158L530.26,438.662L530.788,439.19L528.124,441.494C527.764,441.806 527.572,442.238 527.572,442.718L527.572,443.87L533.812,443.87C534.94,443.87 535.78,443.03 535.78,441.902L535.78,428.27L527.284,428.27Z" style="fill:rgb(212,160,167);fill-rule:nonzero;"/>
                    <path d="M550.9,428.27L538.468,428.27C537.34,428.27 536.5,429.11 536.5,430.238L536.5,443.87L542.356,443.87C542.668,443.87 543.34,443.51 543.34,442.886L543.34,440.99L544.06,440.99L544.06,443.87L548.932,443.87C550.06,443.87 550.9,443.03 550.9,441.902L550.9,428.27ZM544.06,435.23L544.06,438.11L543.34,438.11L543.34,435.23L544.06,435.23Z" style="fill:rgb(212,160,167);fill-rule:nonzero;"/>
                    <path d="M557.62,429.422C557.62,429.902 557.812,430.334 558.172,430.646L560.836,432.95L560.308,433.478L557.452,430.982C557.092,430.67 556.9,430.238 556.9,429.758L556.9,428.27L553.588,428.27C552.46,428.27 551.62,429.11 551.62,430.238L551.62,443.87L560.02,443.87L560.02,442.718C560.02,442.238 559.828,441.806 559.468,441.494L556.804,439.19L557.332,438.662L560.188,441.158C560.548,441.47 560.74,441.902 560.74,442.382L560.74,443.87L564.052,443.87C565.18,443.87 566.02,443.03 566.02,441.902L566.02,428.27L557.62,428.27L557.62,429.422Z" style="fill:rgb(212,160,167);fill-rule:nonzero;"/>
                    <path d="M573.58,428.27L568.708,428.27C567.58,428.27 566.74,429.11 566.74,430.238L566.74,443.87L572.596,443.87C572.908,443.87 573.58,443.51 573.58,442.886L573.58,428.27Z" style="fill:rgb(212,160,167);fill-rule:nonzero;"/>
                    <path d="M585.82,435.71L587.716,435.71C588.268,435.71 588.7,435.278 588.7,434.726L588.7,428.27L576.268,428.27C575.14,428.27 574.3,429.11 574.3,430.238L574.3,435.71L576.196,435.71C576.748,435.71 577.18,436.142 577.18,436.694L577.18,443.87L583.852,443.87C584.98,443.87 585.82,443.03 585.82,441.902L585.82,435.71Z" style="fill:rgb(212,160,167);fill-rule:nonzero;"/>
                    <path d="M598.972,443.87C600.1,443.87 600.94,443.03 600.94,441.902L600.94,436.07L601.852,436.07C602.98,436.07 603.82,435.23 603.82,434.102L603.82,428.27L597.964,428.27C597.412,428.27 596.98,428.702 596.98,429.254L596.98,431.15L596.26,431.15L596.26,428.27L591.388,428.27C590.26,428.27 589.42,429.11 589.42,430.238L589.42,436.07L590.332,436.07C591.46,436.07 592.3,436.91 592.3,438.038L592.3,443.87L598.972,443.87Z" style="fill:rgb(212,160,167);fill-rule:nonzero;"/>
                </g>
                <g transform="matrix(0.833906,0,0,13.4555,1037.86,-4926.49)">
                    <path d="M485.86,443.87L498.292,443.87C499.42,443.87 500.26,443.03 500.26,441.902L500.26,430.238C500.26,429.11 499.42,428.27 498.292,428.27L485.86,428.27L485.86,443.87ZM493.42,434.03L493.42,438.11L492.7,438.11L492.7,434.03L493.42,434.03Z" style="fill:rgb(212,160,167);fill-rule:nonzero;"/>
                    <path d="M515.38,430.238C515.38,429.11 514.54,428.27 513.412,428.27L502.948,428.27C501.82,428.27 500.98,429.11 500.98,430.238L500.98,441.902C500.98,443.03 501.82,443.87 502.948,443.87L513.412,443.87C514.54,443.87 515.38,443.03 515.38,441.902L515.38,430.238ZM508.54,434.03L508.54,438.11L507.82,438.11L507.82,434.03L508.54,434.03Z" style="fill:rgb(212,160,167);fill-rule:nonzero;"/>
                    <path d="M530.5,430.238C530.5,429.11 529.66,428.27 528.532,428.27L518.068,428.27C516.94,428.27 516.1,429.11 516.1,430.238L516.1,441.902C516.1,443.03 516.94,443.87 518.068,443.87L528.532,443.87C529.66,443.87 530.5,443.03 530.5,441.902L530.5,430.238ZM523.66,434.03L523.66,438.11L522.94,438.11L522.94,434.03L523.66,434.03Z" style="fill:rgb(212,160,167);fill-rule:nonzero;"/>
                    <path d="M542.404,428.27C541.852,428.27 541.42,428.702 541.42,429.254L541.42,431.15L540.7,431.15L540.7,428.27L533.188,428.27C532.06,428.27 531.22,429.11 531.22,430.238L531.22,443.87L539.428,443.87L539.428,442.718C539.428,442.238 539.236,441.806 538.876,441.494L536.212,439.19L536.74,438.662L539.596,441.158C539.956,441.47 540.148,441.902 540.148,442.382L540.148,443.87L541.972,443.87L541.972,442.382C541.972,441.902 542.164,441.47 542.524,441.158L545.38,438.662L545.908,439.19L543.244,441.494C542.884,441.806 542.692,442.238 542.692,442.718L542.692,443.87L548.932,443.87C550.06,443.87 550.9,443.03 550.9,441.902L550.9,428.27L542.404,428.27Z" style="fill:rgb(212,160,167);fill-rule:nonzero;"/>
                    <path d="M566.02,433.838L563.14,433.838L563.14,433.118L565.036,433.118C565.588,433.118 566.02,432.686 566.02,432.134L566.02,428.27L553.588,428.27C552.46,428.27 551.62,429.11 551.62,430.238L551.62,443.87L564.052,443.87C565.18,443.87 566.02,443.03 566.02,441.902L566.02,439.022L563.14,439.022L563.14,438.302L565.036,438.302C565.588,438.302 566.02,437.87 566.02,437.318L566.02,433.838Z" style="fill:rgb(212,160,167);fill-rule:nonzero;"/>
                    <path d="M566.74,443.87L579.172,443.87C580.3,443.87 581.14,443.03 581.14,441.902L581.14,430.238C581.14,429.11 580.3,428.27 579.172,428.27L566.74,428.27L566.74,443.87ZM574.3,434.03L574.3,438.11L573.58,438.11L573.58,434.03L574.3,434.03Z" style="fill:rgb(212,160,167);fill-rule:nonzero;"/>
                </g>
                <g transform="matrix(3.61815,0,0,39.2535,-314.895,-16596.9)">
                    <path d="M492.7,428.27L487.828,428.27C486.7,428.27 485.86,429.11 485.86,430.238L485.86,443.87L491.716,443.87C492.028,443.87 492.7,443.51 492.7,442.886L492.7,428.27Z" style="fill:rgb(45,45,52);fill-rule:nonzero;"/>
                    <path d="M505.444,436.766C505.756,437.126 506.188,437.318 506.668,437.318L507.82,437.318L507.82,428.27L495.388,428.27C494.26,428.27 493.42,429.11 493.42,430.238L493.42,434.102L494.908,434.102C495.388,434.102 495.82,434.294 496.132,434.654L498.628,437.51L498.1,438.038L495.796,435.374C495.484,435.014 495.052,434.822 494.572,434.822L493.42,434.822L493.42,443.87L505.852,443.87C506.98,443.87 507.82,443.03 507.82,441.902L507.82,438.038L506.332,438.038C505.852,438.038 505.42,437.846 505.108,437.486L502.612,434.63L503.14,434.102L505.444,436.766Z" style="fill:rgb(45,45,52);fill-rule:nonzero;"/>
                </g>
                <g transform="matrix(0.988278,0,0,0.988278,16.5812,9.68813)">
                    <g transform="matrix(0.242733,0,0,1,1428.65,-242.935)">
                        <g transform="matrix(1,0,0,0.749264,3.81661,296.22)">
                            <rect x="-50.368" y="1018.64" width="467.385" height="13.325" style="fill:rgb(234,242,227);"/>
                        </g>
                        <g transform="matrix(1,0,0,0.749264,3.81661,216.22)">
                            <rect x="-50.368" y="1018.64" width="467.385" height="13.325" style="fill:rgb(234,242,227);"/>
                        </g>
                        <g transform="matrix(1,0,0,0.749264,3.81661,136.22)">
                            <rect x="-50.368" y="1018.64" width="467.385" height="13.325" style="fill:rgb(234,242,227);"/>
                        </g>
                        <g transform="matrix(1,0,0,0.749264,3.81661,56.2196)">
                            <rect x="-50.368" y="1018.64" width="467.385" height="13.325" style="fill:rgb(234,242,227);"/>
                        </g>
                        <g transform="matrix(1,0,0,0.749264,3.81661,-23.7804)">
                            <rect x="-50.368" y="1018.64" width="467.385" height="13.325" style="fill:rgb(234,242,227);"/>
                        </g>
                        <g transform="matrix(1,0,0,0.749264,3.81661,276.22)">
                            <rect x="-50.368" y="1018.64" width="467.385" height="13.325" style="fill:rgb(234,242,227);"/>
                        </g>
                        <g transform="matrix(1,0,0,0.749264,3.81661,196.22)">
                            <rect x="-50.368" y="1018.64" width="467.385" height="13.325" style="fill:rgb(234,242,227);"/>
                        </g>
                        <g transform="matrix(1,0,0,0.749264,3.81661,116.22)">
                            <rect x="-50.368" y="1018.64" width="467.385" height="13.325" style="fill:rgb(234,242,227);"/>
                        </g>
                        <g transform="matrix(1,0,0,0.749264,3.81661,36.2196)">
                            <rect x="-50.368" y="1018.64" width="467.385" height="13.325" style="fill:rgb(234,242,227);"/>
                        </g>
                        <g transform="matrix(1,0,0,0.749264,3.81661,-43.7804)">
                            <rect x="-50.368" y="1018.64" width="467.385" height="13.325" style="fill:rgb(234,242,227);"/>
                        </g>
                        <g transform="matrix(1,0,0,0.749264,3.81661,256.22)">
                            <rect x="-50.368" y="1018.64" width="467.385" height="13.325" style="fill:rgb(234,242,227);"/>
                        </g>
                        <g transform="matrix(1,0,0,0.749264,3.81661,176.22)">
                            <rect x="-50.368" y="1018.64" width="467.385" height="13.325" style="fill:rgb(234,242,227);"/>
                        </g>
                        <g transform="matrix(1,0,0,0.749264,3.81661,96.2196)">
                            <rect x="-50.368" y="1018.64" width="467.385" height="13.325" style="fill:rgb(234,242,227);"/>
                        </g>
                        <g transform="matrix(1,0,0,0.749264,3.81661,16.2196)">
                            <rect x="-50.368" y="1018.64" width="467.385" height="13.325" style="fill:rgb(234,242,227);"/>
                        </g>
                        <g transform="matrix(1,0,0,0.749264,3.81661,-63.7804)">
                            <rect x="-50.368" y="1018.64" width="467.385" height="13.325" style="fill:rgb(234,242,227);"/>
                        </g>
                        <g transform="matrix(1,0,0,0.749264,3.81661,236.22)">
                            <rect x="-50.368" y="1018.64" width="467.385" height="13.325" style="fill:rgb(234,242,227);"/>
                        </g>
                        <g transform="matrix(1,0,0,0.749264,3.81661,156.22)">
                            <rect x="-50.368" y="1018.64" width="467.385" height="13.325" style="fill:rgb(234,242,227);"/>
                        </g>
                        <g transform="matrix(1,0,0,0.749264,3.81661,76.2196)">
                            <rect x="-50.368" y="1018.64" width="467.385" height="13.325" style="fill:rgb(234,242,227);"/>
                        </g>
                        <g transform="matrix(1,0,0,0.749264,3.81661,-3.7804)">
                            <rect x="-50.368" y="1018.64" width="467.385" height="13.325" style="fill:rgb(234,242,227);"/>
                        </g>
                        <g transform="matrix(1,0,0,0.749264,3.81661,-83.7804)">
                            <rect x="-50.368" y="1018.64" width="467.385" height="13.325" style="fill:rgb(234,242,227);"/>
                        </g>
                    </g>
                    <g transform="matrix(0.242733,0,0,0.749264,1426.77,-346.699)">
                        <rect x="-50.368" y="1018.64" width="467.385" height="13.325" style="fill:rgb(234,242,227);"/>
                    </g>
                    <g transform="matrix(0.242733,0,0,0.749264,1426.77,-426.699)">
                        <rect x="-50.368" y="1018.64" width="467.385" height="13.325" style="fill:rgb(234,242,227);"/>
                    </g>
                    <g transform="matrix(0.242733,0,0,0.749264,1426.77,-506.699)">
                        <rect x="-50.368" y="1018.64" width="467.385" height="13.325" style="fill:rgb(234,242,227);"/>
                    </g>
                    <g transform="matrix(0.242733,0,0,0.749264,1426.77,-366.699)">
                        <rect x="-50.368" y="1018.64" width="467.385" height="13.325" style="fill:rgb(234,242,227);"/>
                    </g>
                    <g transform="matrix(0.242733,0,0,0.749264,1426.77,-446.699)">
                        <rect x="-50.368" y="1018.64" width="467.385" height="13.325" style="fill:rgb(234,242,227);"/>
                    </g>
                    <g transform="matrix(0.242733,0,0,0.749264,1426.77,-526.699)">
                        <rect x="-50.368" y="1018.64" width="467.385" height="13.325" style="fill:rgb(234,242,227);"/>
                    </g>
                    <g transform="matrix(0.242733,0,0,0.749264,1426.77,-386.699)">
                        <rect x="-50.368" y="1018.64" width="467.385" height="13.325" style="fill:rgb(234,242,227);"/>
                    </g>
                    <g transform="matrix(0.242733,0,0,0.749264,1426.77,-466.699)">
                        <rect x="-50.368" y="1018.64" width="467.385" height="13.325" style="fill:rgb(234,242,227);"/>
                    </g>
                    <g transform="matrix(0.242733,0,0,0.749264,1426.77,-546.699)">
                        <rect x="-50.368" y="1018.64" width="467.385" height="13.325" style="fill:rgb(234,242,227);"/>
                    </g>
                    <g transform="matrix(0.242733,0,0,0.749264,1426.77,-406.699)">
                        <rect x="-50.368" y="1018.64" width="467.385" height="13.325" style="fill:rgb(234,242,227);"/>
                    </g>
                    <g transform="matrix(0.242733,0,0,0.749264,1426.77,-486.699)">
                        <rect x="-50.368" y="1018.64" width="467.385" height="13.325" style="fill:rgb(234,242,227);"/>
                    </g>
                </g>
            </g>
        </g>
    </g>
</svg>
