<?xml version="1.0" encoding="UTF-8" standalone="no"?>
<!DOCTYPE svg PUBLIC "-//W3C//DTD SVG 1.1//EN" "http://www.w3.org/Graphics/SVG/1.1/DTD/svg11.dtd">
<svg width="100%" height="100%" viewBox="0 0 1350 1080" version="1.1" xmlns="http://www.w3.org/2000/svg" xmlns:xlink="http://www.w3.org/1999/xlink" xml:space="preserve" xmlns:serif="http://www.serif.com/" style="fill-rule:evenodd;clip-rule:evenodd;stroke-linejoin:round;stroke-miterlimit:2;">
    <g transform="matrix(1,0,0,1,-2.27374e-12,-2271.58)">
        <g id="Artboard3" transform="matrix(1,0,0,1,-1450,2271.58)">
            <rect x="1450" y="0" width="1350" height="1080" style="fill:rgb(146,20,12);"/>
            <g transform="matrix(21.3831,0,0,65.0704,-8905.21,-27837)">
                <path d="M500.26,428.27L494.404,428.27C493.852,428.27 493.42,428.702 493.42,429.254L493.42,431.15L492.7,431.15L492.7,428.27L487.828,428.27C486.7,428.27 485.86,429.11 485.86,430.238L485.86,443.87L491.716,443.87C492.028,443.87 492.7,443.51 492.7,442.886L492.7,440.99L493.42,440.99L493.42,443.87L498.292,443.87C499.42,443.87 500.26,443.03 500.26,441.902L500.26,428.27Z" style="fill:rgb(190,90,56);fill-rule:nonzero;"/>
                <path d="M515.38,433.838L512.5,433.838L512.5,433.118L514.396,433.118C514.948,433.118 515.38,432.686 515.38,432.134L515.38,428.27L502.948,428.27C501.82,428.27 500.98,429.11 500.98,430.238L500.98,443.87L513.412,443.87C514.54,443.87 515.38,443.03 515.38,441.902L515.38,439.022L512.5,439.022L512.5,438.302L514.396,438.302C514.948,438.302 515.38,437.87 515.38,437.318L515.38,433.838Z" style="fill:rgb(190,90,56);fill-rule:nonzero;"/>
                <path d="M528.532,443.87C529.66,443.87 530.5,443.03 530.5,441.902L530.5,438.47L528.604,438.47C528.052,438.47 527.62,438.038 527.62,437.486L527.62,428.27L518.068,428.27C516.94,428.27 516.1,429.11 516.1,430.238L516.1,443.87L528.532,443.87Z" style="fill:rgb(190,90,56);fill-rule:nonzero;"/>
                <path d="M533.188,428.27C532.06,428.27 531.22,429.11 531.22,430.238L531.22,443.87L540.772,443.87C541.9,443.87 542.74,443.03 542.74,441.902L542.74,438.302L544.636,438.302C545.188,438.302 545.62,437.87 545.62,437.318L545.62,428.27L533.188,428.27ZM539.86,432.638L539.86,433.358L536.98,433.358L536.98,432.638L539.86,432.638Z" style="fill:rgb(190,90,56);fill-rule:nonzero;"/>
            </g>
            <g transform="matrix(10.0555,0,0,10.0555,-3401.59,-4275.76)">
                <path d="M492.7,428.27L487.828,428.27C486.7,428.27 485.86,429.11 485.86,430.238L485.86,443.87L491.716,443.87C492.028,443.87 492.7,443.51 492.7,442.886L492.7,428.27Z" style="fill:rgb(53,50,56);fill-rule:nonzero;"/>
                <path d="M522.22,433.838L519.34,433.838L519.34,433.118L521.236,433.118C521.788,433.118 522.22,432.686 522.22,432.134L522.22,428.27L509.788,428.27C508.66,428.27 507.82,429.11 507.82,430.238L507.82,443.87L520.252,443.87C521.38,443.87 522.22,443.03 522.22,441.902L522.22,439.022L519.34,439.022L519.34,438.302L521.236,438.302C521.788,438.302 522.22,437.87 522.22,437.318L522.22,433.838Z" style="fill:rgb(53,50,56);fill-rule:nonzero;"/>
                <path d="M534.964,436.766C535.276,437.126 535.708,437.318 536.188,437.318L537.34,437.318L537.34,428.27L524.908,428.27C523.78,428.27 522.94,429.11 522.94,430.238L522.94,434.102L524.428,434.102C524.908,434.102 525.34,434.294 525.652,434.654L528.148,437.51L527.62,438.038L525.316,435.374C525.004,435.014 524.572,434.822 524.092,434.822L522.94,434.822L522.94,443.87L535.372,443.87C536.5,443.87 537.34,443.03 537.34,441.902L537.34,438.038L535.852,438.038C535.372,438.038 534.94,437.846 534.628,437.486L532.132,434.63L532.66,434.102L534.964,436.766Z" style="fill:rgb(53,50,56);fill-rule:nonzero;"/>
                <path d="M552.46,436.43L549.58,436.43L549.58,435.71L551.476,435.71C552.028,435.71 552.46,435.278 552.46,434.726L552.46,428.27L540.028,428.27C538.9,428.27 538.06,429.11 538.06,430.238L538.06,443.87L550.492,443.87C551.62,443.87 552.46,443.03 552.46,441.902L552.46,436.43Z" style="fill:rgb(53,50,56);fill-rule:nonzero;"/>
                <path d="M567.58,428.27L555.148,428.27C554.02,428.27 553.18,429.11 553.18,430.238L553.18,443.87L559.036,443.87C559.348,443.87 560.02,443.51 560.02,442.886L560.02,440.99L560.74,440.99L560.74,443.87L565.612,443.87C566.74,443.87 567.58,443.03 567.58,441.902L567.58,428.27ZM560.74,435.23L560.74,438.11L560.02,438.11L560.02,435.23L560.74,435.23Z" style="fill:rgb(53,50,56);fill-rule:nonzero;"/>
                <path d="M570.268,428.27C569.14,428.27 568.3,429.11 568.3,430.238L568.3,443.87L577.852,443.87C578.98,443.87 579.82,443.03 579.82,441.902L579.82,438.302L581.716,438.302C582.268,438.302 582.7,437.87 582.7,437.318L582.7,428.27L570.268,428.27ZM576.94,432.638L576.94,433.358L574.06,433.358L574.06,432.638L576.94,432.638Z" style="fill:rgb(53,50,56);fill-rule:nonzero;"/>
                <path d="M597.82,433.838L594.94,433.838L594.94,433.118L596.836,433.118C597.388,433.118 597.82,432.686 597.82,432.134L597.82,428.27L585.388,428.27C584.26,428.27 583.42,429.11 583.42,430.238L583.42,443.87L595.852,443.87C596.98,443.87 597.82,443.03 597.82,441.902L597.82,439.022L594.94,439.022L594.94,438.302L596.836,438.302C597.388,438.302 597.82,437.87 597.82,437.318L597.82,433.838Z" style="fill:rgb(53,50,56);fill-rule:nonzero;"/>
                <path d="M598.54,443.87L610.972,443.87C612.1,443.87 612.94,443.03 612.94,441.902L612.94,430.238C612.94,429.11 612.1,428.27 610.972,428.27L598.54,428.27L598.54,443.87ZM606.1,434.03L606.1,438.11L605.38,438.11L605.38,434.03L606.1,434.03Z" style="fill:rgb(53,50,56);fill-rule:nonzero;"/>
            </g>
            <g transform="matrix(13.0981,0,0,31.3535,-4879.88,-13066.1)">
                <path d="M499.276,435.71C499.828,435.71 500.26,435.278 500.26,434.726L500.26,428.27L487.828,428.27C486.7,428.27 485.86,429.11 485.86,430.238L485.86,443.87L494.26,443.87L494.26,442.718C494.26,442.238 494.068,441.806 493.708,441.494L491.044,439.19L491.572,438.662L494.428,441.158C494.788,441.47 494.98,441.902 494.98,442.382L494.98,443.87L498.292,443.87C499.42,443.87 500.26,443.03 500.26,441.902L500.26,436.43L497.38,436.43L497.38,435.71L499.276,435.71ZM494.5,432.638L494.5,433.358L491.62,433.358L491.62,432.638L494.5,432.638Z" style="fill:rgb(53,50,56);fill-rule:nonzero;"/>
                <path d="M515.38,433.838L512.5,433.838L512.5,433.118L514.396,433.118C514.948,433.118 515.38,432.686 515.38,432.134L515.38,428.27L502.948,428.27C501.82,428.27 500.98,429.11 500.98,430.238L500.98,443.87L513.412,443.87C514.54,443.87 515.38,443.03 515.38,441.902L515.38,439.022L512.5,439.022L512.5,438.302L514.396,438.302C514.948,438.302 515.38,437.87 515.38,437.318L515.38,433.838Z" style="fill:rgb(53,50,56);fill-rule:nonzero;"/>
                <path d="M530.5,428.27L518.068,428.27C516.94,428.27 516.1,429.11 516.1,430.238L516.1,443.87L521.956,443.87C522.268,443.87 522.94,443.51 522.94,442.886L522.94,440.99L523.66,440.99L523.66,443.87L528.532,443.87C529.66,443.87 530.5,443.03 530.5,441.902L530.5,428.27ZM523.66,435.23L523.66,438.11L522.94,438.11L522.94,435.23L523.66,435.23Z" style="fill:rgb(53,50,56);fill-rule:nonzero;"/>
                <path d="M543.652,443.87C544.78,443.87 545.62,443.03 545.62,441.902L545.62,438.47L543.724,438.47C543.172,438.47 542.74,438.038 542.74,437.486L542.74,428.27L533.188,428.27C532.06,428.27 531.22,429.11 531.22,430.238L531.22,443.87L543.652,443.87Z" style="fill:rgb(53,50,56);fill-rule:nonzero;"/>
                <path d="M553.18,428.27L548.308,428.27C547.18,428.27 546.34,429.11 546.34,430.238L546.34,443.87L552.196,443.87C552.508,443.87 553.18,443.51 553.18,442.886L553.18,428.27Z" style="fill:rgb(53,50,56);fill-rule:nonzero;"/>
                <path d="M565.42,435.71L567.316,435.71C567.868,435.71 568.3,435.278 568.3,434.726L568.3,428.27L555.868,428.27C554.74,428.27 553.9,429.11 553.9,430.238L553.9,435.71L555.796,435.71C556.348,435.71 556.78,436.142 556.78,436.694L556.78,443.87L563.452,443.87C564.58,443.87 565.42,443.03 565.42,441.902L565.42,435.71Z" style="fill:rgb(53,50,56);fill-rule:nonzero;"/>
                <path d="M578.572,443.87C579.7,443.87 580.54,443.03 580.54,441.902L580.54,436.07L581.452,436.07C582.58,436.07 583.42,435.23 583.42,434.102L583.42,428.27L577.564,428.27C577.012,428.27 576.58,428.702 576.58,429.254L576.58,431.15L575.86,431.15L575.86,428.27L570.988,428.27C569.86,428.27 569.02,429.11 569.02,430.238L569.02,436.07L569.932,436.07C571.06,436.07 571.9,436.91 571.9,438.038L571.9,443.87L578.572,443.87Z" style="fill:rgb(53,50,56);fill-rule:nonzero;"/>
            </g>
        </g>
    </g>
</svg>
