<?xml version="1.0" encoding="UTF-8" standalone="no"?>
<!DOCTYPE svg PUBLIC "-//W3C//DTD SVG 1.1//EN" "http://www.w3.org/Graphics/SVG/1.1/DTD/svg11.dtd">
<svg width="100%" height="100%" viewBox="0 0 1350 1080" version="1.1" xmlns="http://www.w3.org/2000/svg" xmlns:xlink="http://www.w3.org/1999/xlink" xml:space="preserve" xmlns:serif="http://www.serif.com/" style="fill-rule:evenodd;clip-rule:evenodd;stroke-linejoin:round;stroke-miterlimit:2;">
    <rect id="typography1" x="0" y="0" width="1350" height="1080" style="fill:none;"/>
    <clipPath id="_clip1">
        <rect id="typography11" serif:id="typography1" x="0" y="0" width="1350" height="1080"/>
    </clipPath>
    <g clip-path="url(#_clip1)">
        <rect x="0" y="0" width="1920" height="1080" style="fill:rgb(72,169,166);"/>
        <g transform="matrix(21.4286,0,0,21.4286,-10847,-9234.07)">
            <path d="M506.195,430.923L506.195,439.323L507.335,439.323L507.155,433.683L507.275,433.683L507.455,439.323L508.595,439.323L508.235,433.683L508.595,433.323L508.595,430.923L506.195,430.923ZM507.335,432.423L507.335,431.823L507.467,431.823L507.467,432.423L507.335,432.423Z" style="fill-rule:nonzero;"/>
            <path d="M511.115,430.923L508.715,430.923L508.715,439.323L511.115,439.323L511.115,436.587L509.915,436.587L509.915,436.455L511.115,436.455L511.115,433.779L509.915,433.779L509.915,433.647L511.115,433.647L511.115,430.923Z" style="fill-rule:nonzero;"/>
            <path d="M511.235,439.323L513.635,439.323L513.635,436.587L513.215,436.587L513.215,430.923L511.235,430.923L511.235,439.323Z" style="fill-rule:nonzero;"/>
            <path d="M513.755,439.323L514.895,439.323L514.895,436.599L515.015,436.599L515.015,439.323L516.155,439.323L516.155,430.923L513.755,430.923L513.755,439.323ZM514.895,435.111L514.895,432.387L515.015,432.387L515.015,435.111L514.895,435.111Z" style="fill-rule:nonzero;"/>
            <path d="M517.535,433.743L517.415,433.743L517.415,430.923L516.275,430.923L516.275,433.743L516.635,433.743L516.635,439.323L518.315,439.323L518.315,433.743L518.675,433.743L518.675,430.923L517.535,430.923L517.535,433.743Z" style="fill-rule:nonzero;"/>
        </g>
        <g transform="matrix(21.4286,0,0,21.4286,-10579.6,-9234.07)">
            <path d="M506.195,430.923L506.195,439.323L507.335,439.323L507.155,433.683L507.275,433.683L507.455,439.323L508.595,439.323L508.235,433.683L508.595,433.323L508.595,430.923L506.195,430.923ZM507.335,432.423L507.335,431.823L507.467,431.823L507.467,432.423L507.335,432.423Z" style="fill-rule:nonzero;"/>
            <path d="M511.115,430.923L508.715,430.923L508.715,439.323L511.115,439.323L511.115,436.587L509.915,436.587L509.915,436.455L511.115,436.455L511.115,433.779L509.915,433.779L509.915,433.647L511.115,433.647L511.115,430.923Z" style="fill-rule:nonzero;"/>
            <path d="M511.235,439.323L513.635,439.323L513.635,436.587L513.215,436.587L513.215,430.923L511.235,430.923L511.235,439.323Z" style="fill-rule:nonzero;"/>
            <path d="M513.755,439.323L514.895,439.323L514.895,436.599L515.015,436.599L515.015,439.323L516.155,439.323L516.155,430.923L513.755,430.923L513.755,439.323ZM514.895,435.111L514.895,432.387L515.015,432.387L515.015,435.111L514.895,435.111Z" style="fill-rule:nonzero;"/>
            <path d="M517.535,433.743L517.415,433.743L517.415,430.923L516.275,430.923L516.275,433.743L516.635,433.743L516.635,439.323L518.315,439.323L518.315,433.743L518.675,433.743L518.675,430.923L517.535,430.923L517.535,433.743Z" style="fill-rule:nonzero;"/>
        </g>
        <g transform="matrix(21.4286,0,0,21.4286,-10312.2,-9234.07)">
            <path d="M506.195,430.923L506.195,439.323L507.335,439.323L507.155,433.683L507.275,433.683L507.455,439.323L508.595,439.323L508.235,433.683L508.595,433.323L508.595,430.923L506.195,430.923ZM507.335,432.423L507.335,431.823L507.467,431.823L507.467,432.423L507.335,432.423Z" style="fill-rule:nonzero;"/>
            <path d="M511.115,430.923L508.715,430.923L508.715,439.323L511.115,439.323L511.115,436.587L509.915,436.587L509.915,436.455L511.115,436.455L511.115,433.779L509.915,433.779L509.915,433.647L511.115,433.647L511.115,430.923Z" style="fill-rule:nonzero;"/>
            <path d="M511.235,439.323L513.635,439.323L513.635,436.587L513.215,436.587L513.215,430.923L511.235,430.923L511.235,439.323Z" style="fill-rule:nonzero;"/>
            <path d="M513.755,439.323L514.895,439.323L514.895,436.599L515.015,436.599L515.015,439.323L516.155,439.323L516.155,430.923L513.755,430.923L513.755,439.323ZM514.895,435.111L514.895,432.387L515.015,432.387L515.015,435.111L514.895,435.111Z" style="fill-rule:nonzero;"/>
            <path d="M517.535,433.743L517.415,433.743L517.415,430.923L516.275,430.923L516.275,433.743L516.635,433.743L516.635,439.323L518.315,439.323L518.315,433.743L518.675,433.743L518.675,430.923L517.535,430.923L517.535,433.743Z" style="fill-rule:nonzero;"/>
        </g>
        <g transform="matrix(21.4286,0,0,21.4286,-10044.8,-9234.07)">
            <path d="M506.195,430.923L506.195,439.323L507.335,439.323L507.155,433.683L507.275,433.683L507.455,439.323L508.595,439.323L508.235,433.683L508.595,433.323L508.595,430.923L506.195,430.923ZM507.335,432.423L507.335,431.823L507.467,431.823L507.467,432.423L507.335,432.423Z" style="fill-rule:nonzero;"/>
            <path d="M511.115,430.923L508.715,430.923L508.715,439.323L511.115,439.323L511.115,436.587L509.915,436.587L509.915,436.455L511.115,436.455L511.115,433.779L509.915,433.779L509.915,433.647L511.115,433.647L511.115,430.923Z" style="fill-rule:nonzero;"/>
            <path d="M511.235,439.323L513.635,439.323L513.635,436.587L513.215,436.587L513.215,430.923L511.235,430.923L511.235,439.323Z" style="fill-rule:nonzero;"/>
            <path d="M513.755,439.323L514.895,439.323L514.895,436.599L515.015,436.599L515.015,439.323L516.155,439.323L516.155,430.923L513.755,430.923L513.755,439.323ZM514.895,435.111L514.895,432.387L515.015,432.387L515.015,435.111L514.895,435.111Z" style="fill-rule:nonzero;"/>
            <path d="M517.535,433.743L517.415,433.743L517.415,430.923L516.275,430.923L516.275,433.743L516.635,433.743L516.635,439.323L518.315,439.323L518.315,433.743L518.675,433.743L518.675,430.923L517.535,430.923L517.535,433.743Z" style="fill-rule:nonzero;"/>
        </g>
        <g transform="matrix(21.4286,0,0,21.4286,-9777.33,-9234.07)">
            <path d="M506.195,430.923L506.195,439.323L507.335,439.323L507.155,433.683L507.275,433.683L507.455,439.323L508.595,439.323L508.235,433.683L508.595,433.323L508.595,430.923L506.195,430.923ZM507.335,432.423L507.335,431.823L507.467,431.823L507.467,432.423L507.335,432.423Z" style="fill-rule:nonzero;"/>
            <path d="M511.115,430.923L508.715,430.923L508.715,439.323L511.115,439.323L511.115,436.587L509.915,436.587L509.915,436.455L511.115,436.455L511.115,433.779L509.915,433.779L509.915,433.647L511.115,433.647L511.115,430.923Z" style="fill-rule:nonzero;"/>
            <path d="M511.235,439.323L513.635,439.323L513.635,436.587L513.215,436.587L513.215,430.923L511.235,430.923L511.235,439.323Z" style="fill-rule:nonzero;"/>
            <path d="M513.755,439.323L514.895,439.323L514.895,436.599L515.015,436.599L515.015,439.323L516.155,439.323L516.155,430.923L513.755,430.923L513.755,439.323ZM514.895,435.111L514.895,432.387L515.015,432.387L515.015,435.111L514.895,435.111Z" style="fill-rule:nonzero;"/>
            <path d="M517.535,433.743L517.415,433.743L517.415,430.923L516.275,430.923L516.275,433.743L516.635,433.743L516.635,439.323L518.315,439.323L518.315,433.743L518.675,433.743L518.675,430.923L517.535,430.923L517.535,433.743Z" style="fill-rule:nonzero;"/>
        </g>
        <g transform="matrix(21.4286,0,0,21.4286,-9509.9,-9234.07)">
            <path d="M506.195,430.923L506.195,439.323L507.335,439.323L507.155,433.683L507.275,433.683L507.455,439.323L508.595,439.323L508.235,433.683L508.595,433.323L508.595,430.923L506.195,430.923ZM507.335,432.423L507.335,431.823L507.467,431.823L507.467,432.423L507.335,432.423Z" style="fill-rule:nonzero;"/>
        </g>
        <g transform="matrix(21.4286,0,0,21.4286,-10847,-9054.07)">
            <path d="M506.195,439.323L508.175,439.323L508.595,435.123L508.175,430.923L506.195,430.923L506.195,439.323ZM507.455,432.303L507.455,437.943L507.335,437.943L507.335,432.303L507.455,432.303Z" style="fill-rule:nonzero;"/>
            <rect x="508.715" y="430.923" width="1.98" height="8.4" style="fill-rule:nonzero;"/>
            <path d="M513.215,430.923L510.815,430.923L510.815,436.455L512.015,436.455L512.015,436.587L510.815,436.587L510.815,439.323L513.215,439.323L513.215,433.779L512.015,433.779L512.015,433.647L513.215,433.647L513.215,430.923Z" style="fill-rule:nonzero;"/>
            <path d="M513.335,439.323L515.375,439.323L515.375,433.683L515.735,433.323L515.735,430.923L513.335,430.923L513.335,439.323ZM514.607,431.823L514.607,432.423L514.475,432.423L514.475,431.823L514.607,431.823Z" style="fill-rule:nonzero;"/>
            <path d="M515.855,439.323L518.255,439.323L518.255,436.587L517.835,436.587L517.835,430.923L515.855,430.923L515.855,439.323Z" style="fill-rule:nonzero;"/>
            <path d="M518.375,439.323L519.515,439.323L519.515,436.599L519.635,436.599L519.635,439.323L520.775,439.323L520.775,430.923L518.375,430.923L518.375,439.323ZM519.515,435.111L519.515,432.387L519.635,432.387L519.635,435.111L519.515,435.111Z" style="fill-rule:nonzero;"/>
            <path d="M522.155,433.743L522.035,433.743L522.035,430.923L520.895,430.923L520.895,433.743L521.255,433.743L521.255,439.323L522.935,439.323L522.935,433.743L523.295,433.743L523.295,430.923L522.155,430.923L522.155,433.743Z" style="fill-rule:nonzero;"/>
        </g>
        <g transform="matrix(21.4286,0,0,21.4286,-10480.6,-9054.07)">
            <path d="M506.195,439.323L508.175,439.323L508.595,435.123L508.175,430.923L506.195,430.923L506.195,439.323ZM507.455,432.303L507.455,437.943L507.335,437.943L507.335,432.303L507.455,432.303Z" style="fill-rule:nonzero;"/>
            <rect x="508.715" y="430.923" width="1.98" height="8.4" style="fill-rule:nonzero;"/>
            <path d="M513.215,430.923L510.815,430.923L510.815,436.455L512.015,436.455L512.015,436.587L510.815,436.587L510.815,439.323L513.215,439.323L513.215,433.779L512.015,433.779L512.015,433.647L513.215,433.647L513.215,430.923Z" style="fill-rule:nonzero;"/>
            <path d="M513.335,439.323L515.375,439.323L515.375,433.683L515.735,433.323L515.735,430.923L513.335,430.923L513.335,439.323ZM514.607,431.823L514.607,432.423L514.475,432.423L514.475,431.823L514.607,431.823Z" style="fill-rule:nonzero;"/>
            <path d="M515.855,439.323L518.255,439.323L518.255,436.587L517.835,436.587L517.835,430.923L515.855,430.923L515.855,439.323Z" style="fill-rule:nonzero;"/>
            <path d="M518.375,439.323L519.515,439.323L519.515,436.599L519.635,436.599L519.635,439.323L520.775,439.323L520.775,430.923L518.375,430.923L518.375,439.323ZM519.515,435.111L519.515,432.387L519.635,432.387L519.635,435.111L519.515,435.111Z" style="fill-rule:nonzero;"/>
            <path d="M522.155,433.743L522.035,433.743L522.035,430.923L520.895,430.923L520.895,433.743L521.255,433.743L521.255,439.323L522.935,439.323L522.935,433.743L523.295,433.743L523.295,430.923L522.155,430.923L522.155,433.743Z" style="fill-rule:nonzero;"/>
        </g>
        <g transform="matrix(21.4286,0,0,21.4286,-10114.2,-9054.07)">
            <path d="M506.195,439.323L508.175,439.323L508.595,435.123L508.175,430.923L506.195,430.923L506.195,439.323ZM507.455,432.303L507.455,437.943L507.335,437.943L507.335,432.303L507.455,432.303Z" style="fill-rule:nonzero;"/>
            <rect x="508.715" y="430.923" width="1.98" height="8.4" style="fill-rule:nonzero;"/>
            <path d="M513.215,430.923L510.815,430.923L510.815,436.455L512.015,436.455L512.015,436.587L510.815,436.587L510.815,439.323L513.215,439.323L513.215,433.779L512.015,433.779L512.015,433.647L513.215,433.647L513.215,430.923Z" style="fill-rule:nonzero;"/>
            <path d="M513.335,439.323L515.375,439.323L515.375,433.683L515.735,433.323L515.735,430.923L513.335,430.923L513.335,439.323ZM514.607,431.823L514.607,432.423L514.475,432.423L514.475,431.823L514.607,431.823Z" style="fill-rule:nonzero;"/>
            <path d="M515.855,439.323L518.255,439.323L518.255,436.587L517.835,436.587L517.835,430.923L515.855,430.923L515.855,439.323Z" style="fill-rule:nonzero;"/>
            <path d="M518.375,439.323L519.515,439.323L519.515,436.599L519.635,436.599L519.635,439.323L520.775,439.323L520.775,430.923L518.375,430.923L518.375,439.323ZM519.515,435.111L519.515,432.387L519.635,432.387L519.635,435.111L519.515,435.111Z" style="fill-rule:nonzero;"/>
            <path d="M522.155,433.743L522.035,433.743L522.035,430.923L520.895,430.923L520.895,433.743L521.255,433.743L521.255,439.323L522.935,439.323L522.935,433.743L523.295,433.743L523.295,430.923L522.155,430.923L522.155,433.743Z" style="fill-rule:nonzero;"/>
        </g>
        <g transform="matrix(21.4286,0,0,21.4286,-9747.76,-9054.07)">
            <path d="M506.195,439.323L508.175,439.323L508.595,435.123L508.175,430.923L506.195,430.923L506.195,439.323ZM507.455,432.303L507.455,437.943L507.335,437.943L507.335,432.303L507.455,432.303Z" style="fill-rule:nonzero;"/>
            <rect x="508.715" y="430.923" width="1.98" height="8.4" style="fill-rule:nonzero;"/>
            <path d="M513.215,430.923L510.815,430.923L510.815,436.455L512.015,436.455L512.015,436.587L510.815,436.587L510.815,439.323L513.215,439.323L513.215,433.779L512.015,433.779L512.015,433.647L513.215,433.647L513.215,430.923Z" style="fill-rule:nonzero;"/>
            <path d="M513.335,439.323L515.375,439.323L515.375,433.683L515.735,433.323L515.735,430.923L513.335,430.923L513.335,439.323ZM514.607,431.823L514.607,432.423L514.475,432.423L514.475,431.823L514.607,431.823Z" style="fill-rule:nonzero;"/>
            <path d="M515.855,439.323L518.255,439.323L518.255,436.587L517.835,436.587L517.835,430.923L515.855,430.923L515.855,439.323Z" style="fill-rule:nonzero;"/>
        </g>
        <g transform="matrix(21.4286,0,0,21.4286,-10847,-8874.07)">
            <path d="M506.195,430.923L506.195,439.323L507.335,439.323L507.155,433.683L507.275,433.683L507.455,439.323L508.595,439.323L508.235,433.683L508.595,433.323L508.595,430.923L506.195,430.923ZM507.335,432.423L507.335,431.823L507.467,431.823L507.467,432.423L507.335,432.423Z" style="fill-rule:nonzero;"/>
            <path d="M511.115,430.923L508.715,430.923L508.715,439.323L511.115,439.323L511.115,436.587L509.915,436.587L509.915,436.455L511.115,436.455L511.115,433.779L509.915,433.779L509.915,433.647L511.115,433.647L511.115,430.923Z" style="fill-rule:nonzero;"/>
            <path d="M511.235,439.323L513.635,439.323L513.635,436.587L513.215,436.587L513.215,430.923L511.235,430.923L511.235,439.323Z" style="fill-rule:nonzero;"/>
            <path d="M513.755,439.323L514.895,439.323L514.895,436.599L515.015,436.599L515.015,439.323L516.155,439.323L516.155,430.923L513.755,430.923L513.755,439.323ZM514.895,435.111L514.895,432.387L515.015,432.387L515.015,435.111L514.895,435.111Z" style="fill-rule:nonzero;"/>
            <path d="M517.535,433.743L517.415,433.743L517.415,430.923L516.275,430.923L516.275,433.743L516.635,433.743L516.635,439.323L518.315,439.323L518.315,433.743L518.675,433.743L518.675,430.923L517.535,430.923L517.535,433.743Z" style="fill-rule:nonzero;"/>
        </g>
        <g transform="matrix(21.4286,0,0,21.4286,-10579.6,-8874.07)">
            <path d="M506.195,430.923L506.195,439.323L507.335,439.323L507.155,433.683L507.275,433.683L507.455,439.323L508.595,439.323L508.235,433.683L508.595,433.323L508.595,430.923L506.195,430.923ZM507.335,432.423L507.335,431.823L507.467,431.823L507.467,432.423L507.335,432.423Z" style="fill-rule:nonzero;"/>
            <path d="M511.115,430.923L508.715,430.923L508.715,439.323L511.115,439.323L511.115,436.587L509.915,436.587L509.915,436.455L511.115,436.455L511.115,433.779L509.915,433.779L509.915,433.647L511.115,433.647L511.115,430.923Z" style="fill-rule:nonzero;"/>
            <path d="M511.235,439.323L513.635,439.323L513.635,436.587L513.215,436.587L513.215,430.923L511.235,430.923L511.235,439.323Z" style="fill-rule:nonzero;"/>
            <path d="M513.755,439.323L514.895,439.323L514.895,436.599L515.015,436.599L515.015,439.323L516.155,439.323L516.155,430.923L513.755,430.923L513.755,439.323ZM514.895,435.111L514.895,432.387L515.015,432.387L515.015,435.111L514.895,435.111Z" style="fill-rule:nonzero;"/>
            <path d="M517.535,433.743L517.415,433.743L517.415,430.923L516.275,430.923L516.275,433.743L516.635,433.743L516.635,439.323L518.315,439.323L518.315,433.743L518.675,433.743L518.675,430.923L517.535,430.923L517.535,433.743Z" style="fill-rule:nonzero;"/>
        </g>
        <g transform="matrix(21.4286,0,0,21.4286,-10312.2,-8874.07)">
            <path d="M506.195,430.923L506.195,439.323L507.335,439.323L507.155,433.683L507.275,433.683L507.455,439.323L508.595,439.323L508.235,433.683L508.595,433.323L508.595,430.923L506.195,430.923ZM507.335,432.423L507.335,431.823L507.467,431.823L507.467,432.423L507.335,432.423Z" style="fill-rule:nonzero;"/>
            <path d="M511.115,430.923L508.715,430.923L508.715,439.323L511.115,439.323L511.115,436.587L509.915,436.587L509.915,436.455L511.115,436.455L511.115,433.779L509.915,433.779L509.915,433.647L511.115,433.647L511.115,430.923Z" style="fill-rule:nonzero;"/>
            <path d="M511.235,439.323L513.635,439.323L513.635,436.587L513.215,436.587L513.215,430.923L511.235,430.923L511.235,439.323Z" style="fill-rule:nonzero;"/>
            <path d="M513.755,439.323L514.895,439.323L514.895,436.599L515.015,436.599L515.015,439.323L516.155,439.323L516.155,430.923L513.755,430.923L513.755,439.323ZM514.895,435.111L514.895,432.387L515.015,432.387L515.015,435.111L514.895,435.111Z" style="fill-rule:nonzero;"/>
            <path d="M517.535,433.743L517.415,433.743L517.415,430.923L516.275,430.923L516.275,433.743L516.635,433.743L516.635,439.323L518.315,439.323L518.315,433.743L518.675,433.743L518.675,430.923L517.535,430.923L517.535,433.743Z" style="fill-rule:nonzero;"/>
        </g>
        <g transform="matrix(21.4286,0,0,21.4286,-10044.8,-8874.07)">
            <path d="M506.195,430.923L506.195,439.323L507.335,439.323L507.155,433.683L507.275,433.683L507.455,439.323L508.595,439.323L508.235,433.683L508.595,433.323L508.595,430.923L506.195,430.923ZM507.335,432.423L507.335,431.823L507.467,431.823L507.467,432.423L507.335,432.423Z" style="fill-rule:nonzero;"/>
            <path d="M511.115,430.923L508.715,430.923L508.715,439.323L511.115,439.323L511.115,436.587L509.915,436.587L509.915,436.455L511.115,436.455L511.115,433.779L509.915,433.779L509.915,433.647L511.115,433.647L511.115,430.923Z" style="fill-rule:nonzero;"/>
            <path d="M511.235,439.323L513.635,439.323L513.635,436.587L513.215,436.587L513.215,430.923L511.235,430.923L511.235,439.323Z" style="fill-rule:nonzero;"/>
            <path d="M513.755,439.323L514.895,439.323L514.895,436.599L515.015,436.599L515.015,439.323L516.155,439.323L516.155,430.923L513.755,430.923L513.755,439.323ZM514.895,435.111L514.895,432.387L515.015,432.387L515.015,435.111L514.895,435.111Z" style="fill-rule:nonzero;"/>
            <path d="M517.535,433.743L517.415,433.743L517.415,430.923L516.275,430.923L516.275,433.743L516.635,433.743L516.635,439.323L518.315,439.323L518.315,433.743L518.675,433.743L518.675,430.923L517.535,430.923L517.535,433.743Z" style="fill-rule:nonzero;"/>
        </g>
        <g transform="matrix(21.4286,0,0,21.4286,-9777.33,-8874.07)">
            <path d="M506.195,430.923L506.195,439.323L507.335,439.323L507.155,433.683L507.275,433.683L507.455,439.323L508.595,439.323L508.235,433.683L508.595,433.323L508.595,430.923L506.195,430.923ZM507.335,432.423L507.335,431.823L507.467,431.823L507.467,432.423L507.335,432.423Z" style="fill-rule:nonzero;"/>
            <path d="M511.115,430.923L508.715,430.923L508.715,439.323L511.115,439.323L511.115,436.587L509.915,436.587L509.915,436.455L511.115,436.455L511.115,433.779L509.915,433.779L509.915,433.647L511.115,433.647L511.115,430.923Z" style="fill-rule:nonzero;"/>
            <path d="M511.235,439.323L513.635,439.323L513.635,436.587L513.215,436.587L513.215,430.923L511.235,430.923L511.235,439.323Z" style="fill-rule:nonzero;"/>
            <path d="M513.755,439.323L514.895,439.323L514.895,436.599L515.015,436.599L515.015,439.323L516.155,439.323L516.155,430.923L513.755,430.923L513.755,439.323ZM514.895,435.111L514.895,432.387L515.015,432.387L515.015,435.111L514.895,435.111Z" style="fill-rule:nonzero;"/>
            <path d="M517.535,433.743L517.415,433.743L517.415,430.923L516.275,430.923L516.275,433.743L516.635,433.743L516.635,439.323L518.315,439.323L518.315,433.743L518.675,433.743L518.675,430.923L517.535,430.923L517.535,433.743Z" style="fill-rule:nonzero;"/>
        </g>
        <g transform="matrix(21.4286,0,0,21.4286,-9509.9,-8874.07)">
            <path d="M506.195,430.923L506.195,439.323L507.335,439.323L507.155,433.683L507.275,433.683L507.455,439.323L508.595,439.323L508.235,433.683L508.595,433.323L508.595,430.923L506.195,430.923ZM507.335,432.423L507.335,431.823L507.467,431.823L507.467,432.423L507.335,432.423Z" style="fill-rule:nonzero;"/>
        </g>
        <g transform="matrix(21.4286,0,0,21.4286,-10847,-8694.07)">
            <path d="M506.195,439.323L508.175,439.323L508.595,435.123L508.175,430.923L506.195,430.923L506.195,439.323ZM507.455,432.303L507.455,437.943L507.335,437.943L507.335,432.303L507.455,432.303Z" style="fill-rule:nonzero;"/>
            <rect x="508.715" y="430.923" width="1.98" height="8.4" style="fill-rule:nonzero;"/>
            <path d="M513.215,430.923L510.815,430.923L510.815,436.455L512.015,436.455L512.015,436.587L510.815,436.587L510.815,439.323L513.215,439.323L513.215,433.779L512.015,433.779L512.015,433.647L513.215,433.647L513.215,430.923Z" style="fill-rule:nonzero;"/>
            <path d="M513.335,439.323L515.375,439.323L515.375,433.683L515.735,433.323L515.735,430.923L513.335,430.923L513.335,439.323ZM514.607,431.823L514.607,432.423L514.475,432.423L514.475,431.823L514.607,431.823Z" style="fill-rule:nonzero;"/>
            <path d="M515.855,439.323L518.255,439.323L518.255,436.587L517.835,436.587L517.835,430.923L515.855,430.923L515.855,439.323Z" style="fill-rule:nonzero;"/>
            <path d="M518.375,439.323L519.515,439.323L519.515,436.599L519.635,436.599L519.635,439.323L520.775,439.323L520.775,430.923L518.375,430.923L518.375,439.323ZM519.515,435.111L519.515,432.387L519.635,432.387L519.635,435.111L519.515,435.111Z" style="fill-rule:nonzero;"/>
            <path d="M522.155,433.743L522.035,433.743L522.035,430.923L520.895,430.923L520.895,433.743L521.255,433.743L521.255,439.323L522.935,439.323L522.935,433.743L523.295,433.743L523.295,430.923L522.155,430.923L522.155,433.743Z" style="fill-rule:nonzero;"/>
        </g>
        <g transform="matrix(21.4286,0,0,21.4286,-10480.6,-8694.07)">
            <path d="M506.195,439.323L508.175,439.323L508.595,435.123L508.175,430.923L506.195,430.923L506.195,439.323ZM507.455,432.303L507.455,437.943L507.335,437.943L507.335,432.303L507.455,432.303Z" style="fill-rule:nonzero;"/>
            <rect x="508.715" y="430.923" width="1.98" height="8.4" style="fill-rule:nonzero;"/>
            <path d="M513.215,430.923L510.815,430.923L510.815,436.455L512.015,436.455L512.015,436.587L510.815,436.587L510.815,439.323L513.215,439.323L513.215,433.779L512.015,433.779L512.015,433.647L513.215,433.647L513.215,430.923Z" style="fill-rule:nonzero;"/>
            <path d="M513.335,439.323L515.375,439.323L515.375,433.683L515.735,433.323L515.735,430.923L513.335,430.923L513.335,439.323ZM514.607,431.823L514.607,432.423L514.475,432.423L514.475,431.823L514.607,431.823Z" style="fill-rule:nonzero;"/>
            <path d="M515.855,439.323L518.255,439.323L518.255,436.587L517.835,436.587L517.835,430.923L515.855,430.923L515.855,439.323Z" style="fill-rule:nonzero;"/>
            <path d="M518.375,439.323L519.515,439.323L519.515,436.599L519.635,436.599L519.635,439.323L520.775,439.323L520.775,430.923L518.375,430.923L518.375,439.323ZM519.515,435.111L519.515,432.387L519.635,432.387L519.635,435.111L519.515,435.111Z" style="fill-rule:nonzero;"/>
            <path d="M522.155,433.743L522.035,433.743L522.035,430.923L520.895,430.923L520.895,433.743L521.255,433.743L521.255,439.323L522.935,439.323L522.935,433.743L523.295,433.743L523.295,430.923L522.155,430.923L522.155,433.743Z" style="fill-rule:nonzero;"/>
        </g>
        <g transform="matrix(21.4286,0,0,21.4286,-10114.2,-8694.07)">
            <path d="M506.195,439.323L508.175,439.323L508.595,435.123L508.175,430.923L506.195,430.923L506.195,439.323ZM507.455,432.303L507.455,437.943L507.335,437.943L507.335,432.303L507.455,432.303Z" style="fill-rule:nonzero;"/>
            <rect x="508.715" y="430.923" width="1.98" height="8.4" style="fill-rule:nonzero;"/>
            <path d="M513.215,430.923L510.815,430.923L510.815,436.455L512.015,436.455L512.015,436.587L510.815,436.587L510.815,439.323L513.215,439.323L513.215,433.779L512.015,433.779L512.015,433.647L513.215,433.647L513.215,430.923Z" style="fill-rule:nonzero;"/>
            <path d="M513.335,439.323L515.375,439.323L515.375,433.683L515.735,433.323L515.735,430.923L513.335,430.923L513.335,439.323ZM514.607,431.823L514.607,432.423L514.475,432.423L514.475,431.823L514.607,431.823Z" style="fill-rule:nonzero;"/>
            <path d="M515.855,439.323L518.255,439.323L518.255,436.587L517.835,436.587L517.835,430.923L515.855,430.923L515.855,439.323Z" style="fill-rule:nonzero;"/>
            <path d="M518.375,439.323L519.515,439.323L519.515,436.599L519.635,436.599L519.635,439.323L520.775,439.323L520.775,430.923L518.375,430.923L518.375,439.323ZM519.515,435.111L519.515,432.387L519.635,432.387L519.635,435.111L519.515,435.111Z" style="fill-rule:nonzero;"/>
            <path d="M522.155,433.743L522.035,433.743L522.035,430.923L520.895,430.923L520.895,433.743L521.255,433.743L521.255,439.323L522.935,439.323L522.935,433.743L523.295,433.743L523.295,430.923L522.155,430.923L522.155,433.743Z" style="fill-rule:nonzero;"/>
        </g>
        <g transform="matrix(21.4286,0,0,21.4286,-9747.76,-8694.07)">
            <path d="M506.195,439.323L508.175,439.323L508.595,435.123L508.175,430.923L506.195,430.923L506.195,439.323ZM507.455,432.303L507.455,437.943L507.335,437.943L507.335,432.303L507.455,432.303Z" style="fill-rule:nonzero;"/>
            <rect x="508.715" y="430.923" width="1.98" height="8.4" style="fill-rule:nonzero;"/>
            <path d="M513.215,430.923L510.815,430.923L510.815,436.455L512.015,436.455L512.015,436.587L510.815,436.587L510.815,439.323L513.215,439.323L513.215,433.779L512.015,433.779L512.015,433.647L513.215,433.647L513.215,430.923Z" style="fill-rule:nonzero;"/>
            <path d="M513.335,439.323L515.375,439.323L515.375,433.683L515.735,433.323L515.735,430.923L513.335,430.923L513.335,439.323ZM514.607,431.823L514.607,432.423L514.475,432.423L514.475,431.823L514.607,431.823Z" style="fill-rule:nonzero;"/>
            <path d="M515.855,439.323L518.255,439.323L518.255,436.587L517.835,436.587L517.835,430.923L515.855,430.923L515.855,439.323Z" style="fill-rule:nonzero;"/>
        </g>
        <g transform="matrix(21.4286,0,0,21.4286,-10847,-8514.07)">
            <path d="M506.195,430.923L506.195,439.323L507.335,439.323L507.155,433.683L507.275,433.683L507.455,439.323L508.595,439.323L508.235,433.683L508.595,433.323L508.595,430.923L506.195,430.923ZM507.335,432.423L507.335,431.823L507.467,431.823L507.467,432.423L507.335,432.423Z" style="fill-rule:nonzero;"/>
            <path d="M511.115,430.923L508.715,430.923L508.715,439.323L511.115,439.323L511.115,436.587L509.915,436.587L509.915,436.455L511.115,436.455L511.115,433.779L509.915,433.779L509.915,433.647L511.115,433.647L511.115,430.923Z" style="fill-rule:nonzero;"/>
            <path d="M511.235,439.323L513.635,439.323L513.635,436.587L513.215,436.587L513.215,430.923L511.235,430.923L511.235,439.323Z" style="fill-rule:nonzero;"/>
            <path d="M513.755,439.323L514.895,439.323L514.895,436.599L515.015,436.599L515.015,439.323L516.155,439.323L516.155,430.923L513.755,430.923L513.755,439.323ZM514.895,435.111L514.895,432.387L515.015,432.387L515.015,435.111L514.895,435.111Z" style="fill-rule:nonzero;"/>
            <path d="M517.535,433.743L517.415,433.743L517.415,430.923L516.275,430.923L516.275,433.743L516.635,433.743L516.635,439.323L518.315,439.323L518.315,433.743L518.675,433.743L518.675,430.923L517.535,430.923L517.535,433.743Z" style="fill-rule:nonzero;"/>
        </g>
        <g transform="matrix(21.4286,0,0,21.4286,-10579.6,-8514.07)">
            <path d="M506.195,430.923L506.195,439.323L507.335,439.323L507.155,433.683L507.275,433.683L507.455,439.323L508.595,439.323L508.235,433.683L508.595,433.323L508.595,430.923L506.195,430.923ZM507.335,432.423L507.335,431.823L507.467,431.823L507.467,432.423L507.335,432.423Z" style="fill-rule:nonzero;"/>
            <path d="M511.115,430.923L508.715,430.923L508.715,439.323L511.115,439.323L511.115,436.587L509.915,436.587L509.915,436.455L511.115,436.455L511.115,433.779L509.915,433.779L509.915,433.647L511.115,433.647L511.115,430.923Z" style="fill-rule:nonzero;"/>
            <path d="M511.235,439.323L513.635,439.323L513.635,436.587L513.215,436.587L513.215,430.923L511.235,430.923L511.235,439.323Z" style="fill-rule:nonzero;"/>
            <path d="M513.755,439.323L514.895,439.323L514.895,436.599L515.015,436.599L515.015,439.323L516.155,439.323L516.155,430.923L513.755,430.923L513.755,439.323ZM514.895,435.111L514.895,432.387L515.015,432.387L515.015,435.111L514.895,435.111Z" style="fill-rule:nonzero;"/>
            <path d="M517.535,433.743L517.415,433.743L517.415,430.923L516.275,430.923L516.275,433.743L516.635,433.743L516.635,439.323L518.315,439.323L518.315,433.743L518.675,433.743L518.675,430.923L517.535,430.923L517.535,433.743Z" style="fill-rule:nonzero;"/>
        </g>
        <g transform="matrix(21.4286,0,0,21.4286,-10312.2,-8514.07)">
            <path d="M506.195,430.923L506.195,439.323L507.335,439.323L507.155,433.683L507.275,433.683L507.455,439.323L508.595,439.323L508.235,433.683L508.595,433.323L508.595,430.923L506.195,430.923ZM507.335,432.423L507.335,431.823L507.467,431.823L507.467,432.423L507.335,432.423Z" style="fill-rule:nonzero;"/>
            <path d="M511.115,430.923L508.715,430.923L508.715,439.323L511.115,439.323L511.115,436.587L509.915,436.587L509.915,436.455L511.115,436.455L511.115,433.779L509.915,433.779L509.915,433.647L511.115,433.647L511.115,430.923Z" style="fill-rule:nonzero;"/>
            <path d="M511.235,439.323L513.635,439.323L513.635,436.587L513.215,436.587L513.215,430.923L511.235,430.923L511.235,439.323Z" style="fill-rule:nonzero;"/>
            <path d="M513.755,439.323L514.895,439.323L514.895,436.599L515.015,436.599L515.015,439.323L516.155,439.323L516.155,430.923L513.755,430.923L513.755,439.323ZM514.895,435.111L514.895,432.387L515.015,432.387L515.015,435.111L514.895,435.111Z" style="fill-rule:nonzero;"/>
            <path d="M517.535,433.743L517.415,433.743L517.415,430.923L516.275,430.923L516.275,433.743L516.635,433.743L516.635,439.323L518.315,439.323L518.315,433.743L518.675,433.743L518.675,430.923L517.535,430.923L517.535,433.743Z" style="fill-rule:nonzero;"/>
        </g>
        <g transform="matrix(21.4286,0,0,21.4286,-10044.8,-8514.07)">
            <path d="M506.195,430.923L506.195,439.323L507.335,439.323L507.155,433.683L507.275,433.683L507.455,439.323L508.595,439.323L508.235,433.683L508.595,433.323L508.595,430.923L506.195,430.923ZM507.335,432.423L507.335,431.823L507.467,431.823L507.467,432.423L507.335,432.423Z" style="fill-rule:nonzero;"/>
            <path d="M511.115,430.923L508.715,430.923L508.715,439.323L511.115,439.323L511.115,436.587L509.915,436.587L509.915,436.455L511.115,436.455L511.115,433.779L509.915,433.779L509.915,433.647L511.115,433.647L511.115,430.923Z" style="fill-rule:nonzero;"/>
            <path d="M511.235,439.323L513.635,439.323L513.635,436.587L513.215,436.587L513.215,430.923L511.235,430.923L511.235,439.323Z" style="fill-rule:nonzero;"/>
            <path d="M513.755,439.323L514.895,439.323L514.895,436.599L515.015,436.599L515.015,439.323L516.155,439.323L516.155,430.923L513.755,430.923L513.755,439.323ZM514.895,435.111L514.895,432.387L515.015,432.387L515.015,435.111L514.895,435.111Z" style="fill-rule:nonzero;"/>
            <path d="M517.535,433.743L517.415,433.743L517.415,430.923L516.275,430.923L516.275,433.743L516.635,433.743L516.635,439.323L518.315,439.323L518.315,433.743L518.675,433.743L518.675,430.923L517.535,430.923L517.535,433.743Z" style="fill-rule:nonzero;"/>
        </g>
        <g transform="matrix(21.4286,0,0,21.4286,-9777.33,-8514.07)">
            <path d="M506.195,430.923L506.195,439.323L507.335,439.323L507.155,433.683L507.275,433.683L507.455,439.323L508.595,439.323L508.235,433.683L508.595,433.323L508.595,430.923L506.195,430.923ZM507.335,432.423L507.335,431.823L507.467,431.823L507.467,432.423L507.335,432.423Z" style="fill-rule:nonzero;"/>
            <path d="M511.115,430.923L508.715,430.923L508.715,439.323L511.115,439.323L511.115,436.587L509.915,436.587L509.915,436.455L511.115,436.455L511.115,433.779L509.915,433.779L509.915,433.647L511.115,433.647L511.115,430.923Z" style="fill-rule:nonzero;"/>
            <path d="M511.235,439.323L513.635,439.323L513.635,436.587L513.215,436.587L513.215,430.923L511.235,430.923L511.235,439.323Z" style="fill-rule:nonzero;"/>
            <path d="M513.755,439.323L514.895,439.323L514.895,436.599L515.015,436.599L515.015,439.323L516.155,439.323L516.155,430.923L513.755,430.923L513.755,439.323ZM514.895,435.111L514.895,432.387L515.015,432.387L515.015,435.111L514.895,435.111Z" style="fill-rule:nonzero;"/>
            <path d="M517.535,433.743L517.415,433.743L517.415,430.923L516.275,430.923L516.275,433.743L516.635,433.743L516.635,439.323L518.315,439.323L518.315,433.743L518.675,433.743L518.675,430.923L517.535,430.923L517.535,433.743Z" style="fill-rule:nonzero;"/>
        </g>
        <g transform="matrix(21.4286,0,0,21.4286,-9509.9,-8514.07)">
            <path d="M506.195,430.923L506.195,439.323L507.335,439.323L507.155,433.683L507.275,433.683L507.455,439.323L508.595,439.323L508.235,433.683L508.595,433.323L508.595,430.923L506.195,430.923ZM507.335,432.423L507.335,431.823L507.467,431.823L507.467,432.423L507.335,432.423Z" style="fill-rule:nonzero;"/>
        </g>
        <g transform="matrix(21.4286,0,0,21.4286,-10847,-8334.07)">
            <path d="M506.195,439.323L508.175,439.323L508.595,435.123L508.175,430.923L506.195,430.923L506.195,439.323ZM507.455,432.303L507.455,437.943L507.335,437.943L507.335,432.303L507.455,432.303Z" style="fill-rule:nonzero;"/>
            <rect x="508.715" y="430.923" width="1.98" height="8.4" style="fill-rule:nonzero;"/>
            <path d="M513.215,430.923L510.815,430.923L510.815,436.455L512.015,436.455L512.015,436.587L510.815,436.587L510.815,439.323L513.215,439.323L513.215,433.779L512.015,433.779L512.015,433.647L513.215,433.647L513.215,430.923Z" style="fill-rule:nonzero;"/>
            <path d="M513.335,439.323L515.375,439.323L515.375,433.683L515.735,433.323L515.735,430.923L513.335,430.923L513.335,439.323ZM514.607,431.823L514.607,432.423L514.475,432.423L514.475,431.823L514.607,431.823Z" style="fill-rule:nonzero;"/>
            <path d="M515.855,439.323L518.255,439.323L518.255,436.587L517.835,436.587L517.835,430.923L515.855,430.923L515.855,439.323Z" style="fill-rule:nonzero;"/>
            <path d="M518.375,439.323L519.515,439.323L519.515,436.599L519.635,436.599L519.635,439.323L520.775,439.323L520.775,430.923L518.375,430.923L518.375,439.323ZM519.515,435.111L519.515,432.387L519.635,432.387L519.635,435.111L519.515,435.111Z" style="fill-rule:nonzero;"/>
            <path d="M522.155,433.743L522.035,433.743L522.035,430.923L520.895,430.923L520.895,433.743L521.255,433.743L521.255,439.323L522.935,439.323L522.935,433.743L523.295,433.743L523.295,430.923L522.155,430.923L522.155,433.743Z" style="fill-rule:nonzero;"/>
        </g>
        <g transform="matrix(21.4286,0,0,21.4286,-10480.6,-8334.07)">
            <path d="M506.195,439.323L508.175,439.323L508.595,435.123L508.175,430.923L506.195,430.923L506.195,439.323ZM507.455,432.303L507.455,437.943L507.335,437.943L507.335,432.303L507.455,432.303Z" style="fill-rule:nonzero;"/>
            <rect x="508.715" y="430.923" width="1.98" height="8.4" style="fill-rule:nonzero;"/>
            <path d="M513.215,430.923L510.815,430.923L510.815,436.455L512.015,436.455L512.015,436.587L510.815,436.587L510.815,439.323L513.215,439.323L513.215,433.779L512.015,433.779L512.015,433.647L513.215,433.647L513.215,430.923Z" style="fill-rule:nonzero;"/>
            <path d="M513.335,439.323L515.375,439.323L515.375,433.683L515.735,433.323L515.735,430.923L513.335,430.923L513.335,439.323ZM514.607,431.823L514.607,432.423L514.475,432.423L514.475,431.823L514.607,431.823Z" style="fill-rule:nonzero;"/>
            <path d="M515.855,439.323L518.255,439.323L518.255,436.587L517.835,436.587L517.835,430.923L515.855,430.923L515.855,439.323Z" style="fill-rule:nonzero;"/>
            <path d="M518.375,439.323L519.515,439.323L519.515,436.599L519.635,436.599L519.635,439.323L520.775,439.323L520.775,430.923L518.375,430.923L518.375,439.323ZM519.515,435.111L519.515,432.387L519.635,432.387L519.635,435.111L519.515,435.111Z" style="fill-rule:nonzero;"/>
            <path d="M522.155,433.743L522.035,433.743L522.035,430.923L520.895,430.923L520.895,433.743L521.255,433.743L521.255,439.323L522.935,439.323L522.935,433.743L523.295,433.743L523.295,430.923L522.155,430.923L522.155,433.743Z" style="fill-rule:nonzero;"/>
        </g>
        <g transform="matrix(21.4286,0,0,21.4286,-10114.2,-8334.07)">
            <path d="M506.195,439.323L508.175,439.323L508.595,435.123L508.175,430.923L506.195,430.923L506.195,439.323ZM507.455,432.303L507.455,437.943L507.335,437.943L507.335,432.303L507.455,432.303Z" style="fill-rule:nonzero;"/>
            <rect x="508.715" y="430.923" width="1.98" height="8.4" style="fill-rule:nonzero;"/>
            <path d="M513.215,430.923L510.815,430.923L510.815,436.455L512.015,436.455L512.015,436.587L510.815,436.587L510.815,439.323L513.215,439.323L513.215,433.779L512.015,433.779L512.015,433.647L513.215,433.647L513.215,430.923Z" style="fill-rule:nonzero;"/>
            <path d="M513.335,439.323L515.375,439.323L515.375,433.683L515.735,433.323L515.735,430.923L513.335,430.923L513.335,439.323ZM514.607,431.823L514.607,432.423L514.475,432.423L514.475,431.823L514.607,431.823Z" style="fill-rule:nonzero;"/>
            <path d="M515.855,439.323L518.255,439.323L518.255,436.587L517.835,436.587L517.835,430.923L515.855,430.923L515.855,439.323Z" style="fill-rule:nonzero;"/>
            <path d="M518.375,439.323L519.515,439.323L519.515,436.599L519.635,436.599L519.635,439.323L520.775,439.323L520.775,430.923L518.375,430.923L518.375,439.323ZM519.515,435.111L519.515,432.387L519.635,432.387L519.635,435.111L519.515,435.111Z" style="fill-rule:nonzero;"/>
            <path d="M522.155,433.743L522.035,433.743L522.035,430.923L520.895,430.923L520.895,433.743L521.255,433.743L521.255,439.323L522.935,439.323L522.935,433.743L523.295,433.743L523.295,430.923L522.155,430.923L522.155,433.743Z" style="fill-rule:nonzero;"/>
        </g>
        <g transform="matrix(21.4286,0,0,21.4286,-9747.76,-8334.07)">
            <path d="M506.195,439.323L508.175,439.323L508.595,435.123L508.175,430.923L506.195,430.923L506.195,439.323ZM507.455,432.303L507.455,437.943L507.335,437.943L507.335,432.303L507.455,432.303Z" style="fill-rule:nonzero;"/>
            <rect x="508.715" y="430.923" width="1.98" height="8.4" style="fill-rule:nonzero;"/>
            <path d="M513.215,430.923L510.815,430.923L510.815,436.455L512.015,436.455L512.015,436.587L510.815,436.587L510.815,439.323L513.215,439.323L513.215,433.779L512.015,433.779L512.015,433.647L513.215,433.647L513.215,430.923Z" style="fill-rule:nonzero;"/>
            <path d="M513.335,439.323L515.375,439.323L515.375,433.683L515.735,433.323L515.735,430.923L513.335,430.923L513.335,439.323ZM514.607,431.823L514.607,432.423L514.475,432.423L514.475,431.823L514.607,431.823Z" style="fill-rule:nonzero;"/>
            <path d="M515.855,439.323L518.255,439.323L518.255,436.587L517.835,436.587L517.835,430.923L515.855,430.923L515.855,439.323Z" style="fill-rule:nonzero;"/>
        </g>
        <g transform="matrix(73.889,0,0,73.889,-37206.2,-31610.8)">
            <path d="M506.195,430.923L506.195,439.323L507.335,439.323L507.155,433.683L507.275,433.683L507.455,439.323L508.595,439.323L508.235,433.683L508.595,433.323L508.595,430.923L506.195,430.923ZM507.335,432.423L507.335,431.823L507.467,431.823L507.467,432.423L507.335,432.423Z" style="fill:rgb(255,1,3);fill-rule:nonzero;"/>
            <path d="M511.115,430.923L508.715,430.923L508.715,439.323L511.115,439.323L511.115,436.587L509.915,436.587L509.915,436.455L511.115,436.455L511.115,433.779L509.915,433.779L509.915,433.647L511.115,433.647L511.115,430.923Z" style="fill:rgb(255,1,3);fill-rule:nonzero;"/>
            <path d="M511.235,439.323L513.635,439.323L513.635,436.587L513.215,436.587L513.215,430.923L511.235,430.923L511.235,439.323Z" style="fill:rgb(255,1,3);fill-rule:nonzero;"/>
            <path d="M513.755,439.323L514.895,439.323L514.895,436.599L515.015,436.599L515.015,439.323L516.155,439.323L516.155,430.923L513.755,430.923L513.755,439.323ZM514.895,435.111L514.895,432.387L515.015,432.387L515.015,435.111L514.895,435.111Z" style="fill:rgb(255,1,3);fill-rule:nonzero;"/>
            <path d="M517.535,433.743L517.415,433.743L517.415,430.923L516.275,430.923L516.275,433.743L516.635,433.743L516.635,439.323L518.315,439.323L518.315,433.743L518.675,433.743L518.675,430.923L517.535,430.923L517.535,433.743Z" style="fill:rgb(255,1,3);fill-rule:nonzero;"/>
        </g>
    </g>
</svg>
