<?xml version="1.0" encoding="UTF-8" standalone="no"?>
<!DOCTYPE svg PUBLIC "-//W3C//DTD SVG 1.1//EN" "http://www.w3.org/Graphics/SVG/1.1/DTD/svg11.dtd">
<svg width="100%" height="100%" viewBox="0 0 1350 1080" version="1.1" xmlns="http://www.w3.org/2000/svg" xmlns:xlink="http://www.w3.org/1999/xlink" xml:space="preserve" xmlns:serif="http://www.serif.com/" style="fill-rule:evenodd;clip-rule:evenodd;stroke-linejoin:round;stroke-miterlimit:2;">
    <rect id="Artboard1" x="0" y="0" width="1350" height="1080" style="fill:rgb(242,232,99);"/>
    <clipPath id="_clip1">
        <rect id="Artboard11" serif:id="Artboard1" x="0" y="0" width="1350" height="1080"/>
    </clipPath>
    <g clip-path="url(#_clip1)">
        <g transform="matrix(1,0,0,1,943.834,-568.151)">
            <circle cx="2.399" cy="1108.15" r="365.6" style="fill:rgb(189,55,31);"/>
        </g>
        <g transform="matrix(1.77256,0,0,1,604.046,-529.43)">
            <g transform="matrix(1,0,0,0.749264,3.81661,296.22)">
                <rect x="-50.368" y="1018.64" width="467.385" height="13.325" style="fill:rgb(242,232,99);"/>
            </g>
            <g transform="matrix(1,0,0,0.749264,3.81661,216.22)">
                <rect x="-50.368" y="1018.64" width="467.385" height="13.325" style="fill:rgb(242,232,99);"/>
            </g>
            <g transform="matrix(1,0,0,0.749264,3.81661,136.22)">
                <rect x="-50.368" y="1018.64" width="467.385" height="13.325" style="fill:rgb(242,232,99);"/>
            </g>
            <g transform="matrix(1,0,0,0.749264,3.81661,56.2196)">
                <rect x="-50.368" y="1018.64" width="467.385" height="13.325" style="fill:rgb(242,232,99);"/>
            </g>
            <g transform="matrix(1,0,0,0.749264,3.81661,-23.7804)">
                <rect x="-50.368" y="1018.64" width="467.385" height="13.325" style="fill:rgb(242,232,99);"/>
            </g>
            <g transform="matrix(1,0,0,0.749264,3.81661,276.22)">
                <rect x="-50.368" y="1018.64" width="467.385" height="13.325" style="fill:rgb(242,232,99);"/>
            </g>
            <g transform="matrix(1,0,0,0.749264,3.81661,196.22)">
                <rect x="-50.368" y="1018.64" width="467.385" height="13.325" style="fill:rgb(242,232,99);"/>
            </g>
            <g transform="matrix(1,0,0,0.749264,3.81661,116.22)">
                <rect x="-50.368" y="1018.64" width="467.385" height="13.325" style="fill:rgb(242,232,99);"/>
            </g>
            <g transform="matrix(1,0,0,0.749264,3.81661,36.2196)">
                <rect x="-50.368" y="1018.64" width="467.385" height="13.325" style="fill:rgb(242,232,99);"/>
            </g>
            <g transform="matrix(1,0,0,0.749264,3.81661,-43.7804)">
                <rect x="-50.368" y="1018.64" width="467.385" height="13.325" style="fill:rgb(242,232,99);"/>
            </g>
            <g transform="matrix(1,0,0,0.749264,3.81661,256.22)">
                <rect x="-50.368" y="1018.64" width="467.385" height="13.325" style="fill:rgb(242,232,99);"/>
            </g>
            <g transform="matrix(1,0,0,0.749264,3.81661,176.22)">
                <rect x="-50.368" y="1018.64" width="467.385" height="13.325" style="fill:rgb(242,232,99);"/>
            </g>
            <g transform="matrix(1,0,0,0.749264,3.81661,96.2196)">
                <rect x="-50.368" y="1018.64" width="467.385" height="13.325" style="fill:rgb(242,232,99);"/>
            </g>
            <g transform="matrix(1,0,0,0.749264,3.81661,16.2196)">
                <rect x="-50.368" y="1018.64" width="467.385" height="13.325" style="fill:rgb(242,232,99);"/>
            </g>
            <g transform="matrix(1,0,0,0.749264,3.81661,-63.7804)">
                <rect x="-50.368" y="1018.64" width="467.385" height="13.325" style="fill:rgb(242,232,99);"/>
            </g>
            <g transform="matrix(1,0,0,0.749264,3.81661,236.22)">
                <rect x="-50.368" y="1018.64" width="467.385" height="13.325" style="fill:rgb(242,232,99);"/>
            </g>
            <g transform="matrix(1,0,0,0.749264,3.81661,156.22)">
                <rect x="-50.368" y="1018.64" width="467.385" height="13.325" style="fill:rgb(242,232,99);"/>
            </g>
            <g transform="matrix(1,0,0,0.749264,3.81661,76.2196)">
                <rect x="-50.368" y="1018.64" width="467.385" height="13.325" style="fill:rgb(242,232,99);"/>
            </g>
            <g transform="matrix(1,0,0,0.749264,3.81661,-3.7804)">
                <rect x="-50.368" y="1018.64" width="467.385" height="13.325" style="fill:rgb(242,232,99);"/>
            </g>
            <g transform="matrix(1,0,0,0.749264,3.81661,-83.7804)">
                <rect x="-50.368" y="1018.64" width="467.385" height="13.325" style="fill:rgb(242,232,99);"/>
            </g>
        </g>
        <g transform="matrix(12.4881,0,0,12.4881,-5954.45,-4905.69)">
            <path d="M500.26,436.43L497.38,436.43L497.38,435.71L499.276,435.71C499.828,435.71 500.26,435.278 500.26,434.726L500.26,428.27L487.828,428.27C486.7,428.27 485.86,429.11 485.86,430.238L485.86,443.87L498.292,443.87C499.42,443.87 500.26,443.03 500.26,441.902L500.26,436.43Z" style="fill:rgb(45,45,52);fill-rule:nonzero;"/>
            <path d="M507.82,428.27L502.948,428.27C501.82,428.27 500.98,429.11 500.98,430.238L500.98,443.87L506.836,443.87C507.148,443.87 507.82,443.51 507.82,442.886L507.82,428.27Z" style="fill:rgb(45,45,52);fill-rule:nonzero;"/>
            <path d="M521.956,435.71C522.508,435.71 522.94,435.278 522.94,434.726L522.94,428.27L510.508,428.27C509.38,428.27 508.54,429.11 508.54,430.238L508.54,443.87L516.94,443.87L516.94,442.718C516.94,442.238 516.748,441.806 516.388,441.494L513.724,439.19L514.252,438.662L517.108,441.158C517.468,441.47 517.66,441.902 517.66,442.382L517.66,443.87L520.972,443.87C522.1,443.87 522.94,443.03 522.94,441.902L522.94,436.43L520.06,436.43L520.06,435.71L521.956,435.71ZM517.18,432.638L517.18,433.358L514.3,433.358L514.3,432.638L517.18,432.638Z" style="fill:rgb(45,45,52);fill-rule:nonzero;"/>
            <path d="M538.06,436.43L535.18,436.43L535.18,435.71L537.076,435.71C537.628,435.71 538.06,435.278 538.06,434.726L538.06,428.27L525.628,428.27C524.5,428.27 523.66,429.11 523.66,430.238L523.66,443.87L536.092,443.87C537.22,443.87 538.06,443.03 538.06,441.902L538.06,436.43Z" style="fill:rgb(45,45,52);fill-rule:nonzero;"/>
            <path d="M538.78,441.902C538.78,443.03 539.62,443.87 540.748,443.87L551.212,443.87C552.34,443.87 553.18,443.03 553.18,441.902L553.18,428.27L547.324,428.27C546.772,428.27 546.34,428.702 546.34,429.254L546.34,431.15L545.62,431.15L545.62,428.27L538.78,428.27L538.78,441.902Z" style="fill:rgb(45,45,52);fill-rule:nonzero;"/>
            <path d="M560.74,428.27L555.868,428.27C554.74,428.27 553.9,429.11 553.9,430.238L553.9,443.87L559.756,443.87C560.068,443.87 560.74,443.51 560.74,442.886L560.74,428.27Z" style="fill:rgb(45,45,52);fill-rule:nonzero;"/>
            <path d="M572.98,435.71L574.876,435.71C575.428,435.71 575.86,435.278 575.86,434.726L575.86,428.27L563.428,428.27C562.3,428.27 561.46,429.11 561.46,430.238L561.46,435.71L563.356,435.71C563.908,435.71 564.34,436.142 564.34,436.694L564.34,443.87L571.012,443.87C572.14,443.87 572.98,443.03 572.98,441.902L572.98,435.71Z" style="fill:rgb(45,45,52);fill-rule:nonzero;"/>
        </g>
        <g transform="matrix(1,0,0,1,-2.39877,-28.1515)">
            <circle cx="2.399" cy="1108.15" r="365.6" style="fill:rgb(189,55,31);"/>
        </g>
        <g transform="matrix(1,0,0,1,46.5511,153.309)">
            <g transform="matrix(1,0,0,0.749264,3.81661,136.22)">
                <rect x="-50.368" y="1018.64" width="467.385" height="13.325" style="fill:rgb(242,232,99);"/>
            </g>
            <g transform="matrix(1,0,0,0.749264,3.81661,56.2196)">
                <rect x="-50.368" y="1018.64" width="467.385" height="13.325" style="fill:rgb(242,232,99);"/>
            </g>
            <g transform="matrix(1,0,0,0.749264,3.81661,-23.7804)">
                <rect x="-50.368" y="1018.64" width="467.385" height="13.325" style="fill:rgb(242,232,99);"/>
            </g>
            <g transform="matrix(1,0,0,0.749264,3.81661,116.22)">
                <rect x="-50.368" y="1018.64" width="467.385" height="13.325" style="fill:rgb(242,232,99);"/>
            </g>
            <g transform="matrix(1,0,0,0.749264,3.81661,36.2196)">
                <rect x="-50.368" y="1018.64" width="467.385" height="13.325" style="fill:rgb(242,232,99);"/>
            </g>
            <g transform="matrix(1,0,0,0.749264,3.81661,-43.7804)">
                <rect x="-50.368" y="1018.64" width="467.385" height="13.325" style="fill:rgb(242,232,99);"/>
            </g>
            <g transform="matrix(1,0,0,0.749264,3.81661,96.2196)">
                <rect x="-50.368" y="1018.64" width="467.385" height="13.325" style="fill:rgb(242,232,99);"/>
            </g>
            <g transform="matrix(1,0,0,0.749264,3.81661,16.2196)">
                <rect x="-50.368" y="1018.64" width="467.385" height="13.325" style="fill:rgb(242,232,99);"/>
            </g>
            <g transform="matrix(1,0,0,0.749264,3.81661,-63.7804)">
                <rect x="-50.368" y="1018.64" width="467.385" height="13.325" style="fill:rgb(242,232,99);"/>
            </g>
            <g transform="matrix(1,0,0,0.749264,3.81661,156.22)">
                <rect x="-50.368" y="1018.64" width="467.385" height="13.325" style="fill:rgb(242,232,99);"/>
            </g>
            <g transform="matrix(1,0,0,0.749264,3.81661,76.2196)">
                <rect x="-50.368" y="1018.64" width="467.385" height="13.325" style="fill:rgb(242,232,99);"/>
            </g>
            <g transform="matrix(1,0,0,0.749264,3.81661,-3.7804)">
                <rect x="-50.368" y="1018.64" width="467.385" height="13.325" style="fill:rgb(242,232,99);"/>
            </g>
            <g transform="matrix(1,0,0,0.749264,3.81661,-83.7804)">
                <rect x="-50.368" y="1018.64" width="467.385" height="13.325" style="fill:rgb(242,232,99);"/>
            </g>
        </g>
    </g>
</svg>
