<?xml version="1.0" encoding="UTF-8" standalone="no"?>
<!DOCTYPE svg PUBLIC "-//W3C//DTD SVG 1.1//EN" "http://www.w3.org/Graphics/SVG/1.1/DTD/svg11.dtd">
<svg width="100%" height="100%" viewBox="0 0 1350 1080" version="1.1" xmlns="http://www.w3.org/2000/svg" xmlns:xlink="http://www.w3.org/1999/xlink" xml:space="preserve" xmlns:serif="http://www.serif.com/" style="fill-rule:evenodd;clip-rule:evenodd;stroke-linejoin:round;stroke-miterlimit:2;">
    <g transform="matrix(1,0,0,1,-2900,0)">
        <rect id="typography3" x="2900" y="0" width="1350" height="1080" style="fill:none;"/>
        <clipPath id="_clip1">
            <rect id="typography31" serif:id="typography3" x="2900" y="0" width="1350" height="1080"/>
        </clipPath>
        <g clip-path="url(#_clip1)">
            <rect x="2900" y="0" width="1350" height="1080" style="fill:rgb(255,1,3);"/>
            <g transform="matrix(2.90178,0,0,2.90178,-5668.79,-108.598)">
                <path d="M2952.94,163.016L2966.25,163.016L2966.25,130.504L2967.65,130.504L2967.65,163.016L2980.96,163.016L2980.96,62.76L2952.94,62.76L2952.94,163.016ZM2966.25,112.745L2966.25,80.233L2967.65,80.233L2967.65,112.745L2966.25,112.745Z" style="fill:rgb(72,169,166);fill-rule:nonzero;"/>
                <path d="M3010.39,62.76L2982.37,62.76L2982.37,163.016L3010.39,163.016L3010.39,113.747L2996.38,113.747L2996.38,112.172L3010.39,112.172L3010.39,62.76ZM2995.68,80.663L2997.22,80.663L2997.22,94.985L2995.68,94.985L2995.68,80.663ZM2997.08,145.113L2995.54,145.113L2995.54,130.791L2997.08,130.791L2997.08,145.113Z" style="fill:rgb(72,169,166);fill-rule:nonzero;"/>
                <path d="M3039.82,62.76L3011.79,62.76L3011.79,163.016L3039.82,163.016L3039.82,146.546L3034.91,146.546L3034.91,79.23L3039.82,79.23L3039.82,62.76Z" style="fill:rgb(72,169,166);fill-rule:nonzero;"/>
                <path d="M3041.22,163.016L3064.34,163.016L3069.25,112.888L3064.34,62.76L3041.22,62.76L3041.22,163.016ZM3055.93,79.23L3055.93,146.546L3054.53,146.546L3054.53,79.23L3055.93,79.23Z" style="fill:rgb(72,169,166);fill-rule:nonzero;"/>
                <path d="M3098.67,62.76L3070.65,62.76L3070.65,163.016L3098.67,163.016L3098.67,130.361L3084.66,130.361L3084.66,128.786L3098.67,128.786L3098.67,96.847L3084.66,96.847L3084.66,95.271L3098.67,95.271L3098.67,62.76Z" style="fill:rgb(72,169,166);fill-rule:nonzero;"/>
                <path d="M3128.1,62.76L3100.07,62.76L3100.07,163.016L3123.2,163.016L3123.2,128.786L3128.1,128.786L3128.1,96.847L3114.09,96.847L3114.09,95.271L3128.1,95.271L3128.1,62.76Z" style="fill:rgb(72,169,166);fill-rule:nonzero;"/>
                <path d="M3157.53,130.791L3157.53,62.76L3129.5,62.76L3129.5,163.016L3157.53,163.016L3157.53,132.366L3144.22,132.366L3144.22,145.113L3142.67,145.113L3142.67,130.791L3157.53,130.791Z" style="fill:rgb(72,169,166);fill-rule:nonzero;"/>
                <path d="M3173.64,95.271L3172.24,95.271L3172.24,62.76L3158.93,62.76L3158.93,163.016L3172.24,163.016L3172.24,130.504L3173.64,130.504L3173.64,163.016L3186.95,163.016L3186.95,62.76L3173.64,62.76L3173.64,95.271Z" style="fill:rgb(72,169,166);fill-rule:nonzero;"/>
                <rect x="3188.36" y="62.76" width="23.121" height="100.257" style="fill:rgb(72,169,166);fill-rule:nonzero;"/>
                <path d="M3217.78,62.76L3217.78,130.361L3212.88,130.361L3212.88,163.016L3240.91,163.016L3240.91,62.76L3217.78,62.76Z" style="fill:rgb(72,169,166);fill-rule:nonzero;"/>
                <path d="M3257.02,95.271L3255.62,95.271L3259.82,62.76L3242.31,62.76L3242.31,163.016L3259.82,163.016L3255.62,130.504L3257.02,130.504L3261.22,163.016L3270.33,163.016L3270.33,62.76L3261.22,62.76L3257.02,95.271Z" style="fill:rgb(72,169,166);fill-rule:nonzero;"/>
                <path d="M3271.73,163.016L3299.76,163.016L3299.76,130.361L3294.86,130.361L3294.86,62.76L3271.73,62.76L3271.73,163.016Z" style="fill:rgb(72,169,166);fill-rule:nonzero;"/>
                <path d="M3324,95.271L3322.6,95.271L3322.6,62.76L3301.16,62.76L3301.16,163.016L3318.68,163.016L3314.47,130.504L3315.87,130.504L3320.08,163.016L3326.38,163.016L3330.59,130.504L3331.99,130.504L3327.78,163.016L3346,163.016L3346,62.76L3324,62.76L3324,95.271Z" style="fill:rgb(72,169,166);fill-rule:nonzero;"/>
                <path d="M2967.65,196.82L2966.25,196.82L2962.05,164.309L2952.94,164.309L2952.94,264.565L2970.45,264.565L2966.25,232.053L2967.65,232.053L2971.86,264.565L2980.96,264.565L2980.96,164.309L2963.45,164.309L2967.65,196.82Z" style="fill:rgb(72,169,166);fill-rule:nonzero;"/>
                <path d="M2982.37,264.565L3010.39,264.565L3010.39,164.309L2982.37,164.309L2982.37,264.565ZM2997.08,180.779L2997.08,248.095L2995.68,248.095L2995.68,180.779L2997.08,180.779Z" style="fill:rgb(72,169,166);fill-rule:nonzero;"/>
                <path d="M3011.79,264.565L3035.62,264.565L3035.62,197.25L3039.82,192.953L3039.82,164.309L3011.79,164.309L3011.79,264.565ZM3026.65,175.05L3026.65,182.212L3025.11,182.212L3025.11,175.05L3026.65,175.05Z" style="fill:rgb(72,169,166);fill-rule:nonzero;"/>
                <path d="M3041.22,264.565L3069.25,264.565L3069.25,164.309L3041.22,164.309L3041.22,264.565ZM3055.93,180.779L3055.93,247.522L3058.88,250.529L3057.76,251.389L3054.53,248.095L3054.53,180.779L3055.93,180.779Z" style="fill:rgb(72,169,166);fill-rule:nonzero;"/>
                <path d="M3070.65,164.309L3070.65,264.565L3083.96,264.565L3081.86,197.25L3083.26,197.25L3085.36,264.565L3098.67,264.565L3094.47,197.25L3098.67,192.953L3098.67,164.309L3070.65,164.309ZM3083.96,182.212L3083.96,175.05L3085.5,175.05L3085.5,182.212L3083.96,182.212Z" style="fill:rgb(72,169,166);fill-rule:nonzero;"/>
                <path d="M3128.1,164.309L3100.07,164.309L3100.07,230.335L3114.09,230.335L3114.09,231.91L3100.07,231.91L3100.07,264.565L3128.1,264.565L3128.1,198.396L3114.09,198.396L3114.09,196.82L3128.1,196.82L3128.1,164.309Z" style="fill:rgb(72,169,166);fill-rule:nonzero;"/>
                <path d="M3129.5,196.964L3134.41,196.964L3134.41,264.565L3152.62,264.565L3152.62,196.964L3157.53,196.964L3157.53,164.309L3129.5,164.309L3129.5,196.964Z" style="fill:rgb(72,169,166);fill-rule:nonzero;"/>
                <path d="M3173.64,231.624L3172.24,231.624L3172.24,164.309L3158.93,164.309L3158.93,264.565L3186.95,264.565L3186.95,164.309L3173.64,164.309L3173.64,231.624Z" style="fill:rgb(72,169,166);fill-rule:nonzero;"/>
                <path d="M3203.07,231.624L3201.67,231.624L3201.67,164.309L3188.36,164.309L3192.56,264.565L3212.18,264.565L3216.38,164.309L3203.07,164.309L3203.07,231.624Z" style="fill:rgb(72,169,166);fill-rule:nonzero;"/>
                <path d="M3248.61,196.82L3247.21,196.82L3243.01,164.309L3236.7,164.309L3232.5,196.82L3231.1,196.82L3235.3,164.309L3217.78,164.309L3217.78,264.565L3239.22,264.565L3239.22,232.053L3240.62,232.053L3240.62,264.565L3262.62,264.565L3262.62,164.309L3244.41,164.309L3248.61,196.82Z" style="fill:rgb(72,169,166);fill-rule:nonzero;"/>
                <path d="M3292.05,164.309L3278.46,164.309L3278.46,178.631L3276.92,178.631L3276.92,164.309L3264.03,164.309L3264.03,264.565L3276.92,264.565L3276.92,250.243L3278.46,250.243L3278.46,264.565L3292.05,264.565L3292.05,215.153L3285.75,215.153L3285.75,213.578L3292.05,213.578L3292.05,164.309ZM3264.31,215.153L3264.31,213.578L3270.61,213.578L3270.61,215.153L3264.31,215.153Z" style="fill:rgb(72,169,166);fill-rule:nonzero;"/>
                <path d="M3308.17,197.966L3306.77,197.966L3306.77,164.309L3293.45,164.309L3293.45,197.966L3297.66,197.966L3297.66,264.565L3317.28,264.565L3317.28,197.966L3321.48,197.966L3321.48,164.309L3308.17,164.309L3308.17,197.966Z" style="fill:rgb(72,169,166);fill-rule:nonzero;"/>
                <path d="M3350.91,164.309L3322.88,164.309L3322.88,196.82L3336.89,196.82L3336.89,198.396L3322.88,198.396L3322.88,264.565L3350.91,264.565L3350.91,231.91L3336.89,231.91L3336.89,230.335L3350.91,230.335L3350.91,164.309Z" style="fill:rgb(72,169,166);fill-rule:nonzero;"/>
                <path d="M2952.94,366.114L2980.96,366.114L2980.96,265.858L2952.94,265.858L2952.94,366.114ZM2967.65,282.328L2967.65,349.644L2966.25,349.644L2966.25,282.328L2967.65,282.328Z" style="fill:rgb(72,169,166);fill-rule:nonzero;"/>
                <path d="M2982.37,302.809L2987.27,298.513L2987.27,366.114L3010.39,366.114L3010.39,265.858L2982.37,265.858L2982.37,302.809Z" style="fill:rgb(72,169,166);fill-rule:nonzero;"/>
                <path d="M3039.82,265.858L3011.79,265.858L3011.79,298.369L3025.8,298.369L3025.8,299.945L3011.79,299.945L3011.79,366.114L3039.82,366.114L3039.82,333.459L3025.8,333.459L3025.8,331.884L3039.82,331.884L3039.82,265.858Z" style="fill:rgb(72,169,166);fill-rule:nonzero;"/>
                <path d="M3041.22,298.369L3055.23,298.369L3055.23,299.945L3041.22,299.945L3041.22,331.884L3055.23,331.884L3055.23,333.459L3041.22,333.459L3041.22,366.114L3069.25,366.114L3069.25,265.858L3041.22,265.858L3041.22,298.369Z" style="fill:rgb(72,169,166);fill-rule:nonzero;"/>
                <path d="M3070.65,300.231L3070.65,361.101L3078.35,361.101L3078.35,366.114L3098.67,366.114L3098.67,265.858L3074.85,265.858L3070.65,300.231ZM3083.96,332.313L3083.96,299.802L3085.36,299.802L3085.36,332.313L3083.96,332.313Z" style="fill:rgb(72,169,166);fill-rule:nonzero;"/>
                <path d="M3128.1,265.858L3100.07,265.858L3100.07,331.884L3114.09,331.884L3114.09,333.459L3100.07,333.459L3100.07,366.114L3128.1,366.114L3128.1,299.945L3114.09,299.945L3114.09,298.369L3128.1,298.369L3128.1,265.858Z" style="fill:rgb(72,169,166);fill-rule:nonzero;"/>
                <path d="M3157.53,265.858L3129.5,265.858L3129.5,366.114L3157.53,366.114L3157.53,288.773L3145.34,288.773L3142.39,291.781L3141.55,290.635L3144.78,287.341L3157.53,287.341L3157.53,265.858ZM3144.22,316.416L3144.22,348.927L3142.81,348.927L3142.81,316.416L3144.22,316.416Z" style="fill:rgb(72,169,166);fill-rule:nonzero;"/>
                <path d="M3158.93,298.513L3163.83,298.513L3158.93,366.114L3186.95,366.114L3186.95,265.858L3158.93,265.858L3158.93,298.513Z" style="fill:rgb(72,169,166);fill-rule:nonzero;"/>
                <path d="M3188.36,366.114L3216.38,366.114L3216.38,265.858L3188.36,265.858L3188.36,366.114ZM3203.21,283.761L3203.21,298.083L3201.67,298.083L3201.67,283.761L3203.21,283.761ZM3203.07,333.889L3203.07,348.211L3201.53,348.211L3201.53,333.889L3203.07,333.889Z" style="fill:rgb(72,169,166);fill-rule:nonzero;"/>
                <path d="M3245.81,343.198L3245.81,265.858L3217.78,265.858L3217.78,366.114L3245.81,366.114L3245.81,344.631L3233.06,344.631L3229.84,341.337L3230.68,340.191L3233.62,343.198L3245.81,343.198ZM3232.5,283.044L3232.5,315.556L3231.1,315.556L3231.1,283.044L3232.5,283.044Z" style="fill:rgb(72,169,166);fill-rule:nonzero;"/>
                <path d="M3247.21,382.585L3263.33,366.114L3263.33,349.644L3247.21,349.644L3247.21,382.585Z" style="fill:rgb(72,169,166);fill-rule:nonzero;"/>
                <rect x="3264.73" y="349.644" width="16.115" height="16.471" style="fill:rgb(72,169,166);fill-rule:nonzero;"/>
                <path d="M3282.24,326.155L3298.36,326.155L3298.36,309.684L3282.24,309.684L3282.24,326.155ZM3282.24,360.385L3298.36,360.385L3298.36,343.915L3282.24,343.915L3282.24,360.385Z" style="fill:rgb(72,169,166);fill-rule:nonzero;"/>
                <path d="M3299.76,326.155L3315.87,326.155L3315.87,309.684L3299.76,309.684L3299.76,326.155ZM3299.76,382.585L3315.87,366.114L3315.87,349.644L3299.76,349.644L3299.76,382.585Z" style="fill:rgb(72,169,166);fill-rule:nonzero;"/>
                <path d="M3317.28,348.211L3333.39,348.211L3333.39,265.858L3317.28,265.858L3317.28,348.211ZM3317.28,366.114L3333.39,366.114L3333.39,349.644L3317.28,349.644L3317.28,366.114Z" style="fill:rgb(72,169,166);fill-rule:nonzero;"/>
                <path d="M3334.79,306.39L3348.81,306.39L3348.81,307.965L3334.79,307.965L3334.79,348.211L3362.82,348.211L3362.82,265.858L3334.79,265.858L3334.79,306.39ZM3350.91,366.114L3350.91,349.644L3334.79,349.644L3334.79,366.114L3350.91,366.114Z" style="fill:rgb(72,169,166);fill-rule:nonzero;"/>
                <path d="M3364.22,366.114L3380.33,366.114L3384.54,265.858L3368.42,265.858L3364.22,366.114Z" style="fill:rgb(72,169,166);fill-rule:nonzero;"/>
                <rect x="3385.94" y="307.679" width="32.23" height="16.471" style="fill:rgb(72,169,166);fill-rule:nonzero;"/>
            </g>
        </g>
    </g>
</svg>
