<?xml version="1.0" encoding="UTF-8" standalone="no"?>
<!DOCTYPE svg PUBLIC "-//W3C//DTD SVG 1.1//EN" "http://www.w3.org/Graphics/SVG/1.1/DTD/svg11.dtd">
<svg width="100%" height="100%" viewBox="0 0 1350 1080" version="1.1" xmlns="http://www.w3.org/2000/svg" xmlns:xlink="http://www.w3.org/1999/xlink" xml:space="preserve" xmlns:serif="http://www.serif.com/" style="fill-rule:evenodd;clip-rule:evenodd;stroke-linejoin:round;stroke-miterlimit:2;">
    <g transform="matrix(1,0,0,1,-1450,0)">
        <rect id="typography2" x="1450" y="0" width="1350" height="1080" style="fill:none;"/>
        <g id="typography21" serif:id="typography2">
            <rect x="1450" y="0" width="1350" height="1080"/>
            <g transform="matrix(20.6801,0,0,21.1368,-38430.4,-6160.77)">
                <path d="M1928.44,297.232L1928.44,307.432L1929.76,307.432L1929.76,308.272L1933.24,308.272L1933.24,291.472L1929.16,291.472L1928.44,297.232ZM1930.72,302.608L1930.72,297.16L1930.96,297.16L1930.96,302.608L1930.72,302.608Z" style="fill:rgb(67,87,173);fill-rule:nonzero;"/>
                <path d="M1938.28,291.472L1933.48,291.472L1933.48,302.536L1935.88,302.536L1935.88,302.8L1933.48,302.8L1933.48,308.272L1938.28,308.272L1938.28,297.184L1935.88,297.184L1935.88,296.92L1938.28,296.92L1938.28,291.472Z" style="fill:rgb(67,87,173);fill-rule:nonzero;"/>
                <path d="M1948.36,291.472L1943.56,291.472L1943.56,308.272L1948.36,308.272L1948.36,305.512L1947.52,305.512L1947.52,294.232L1948.36,294.232L1948.36,291.472Z" style="fill:rgb(67,87,173);fill-rule:nonzero;"/>
                <path d="M1951.12,296.92L1950.88,296.92L1950.88,291.472L1948.6,291.472L1948.6,308.272L1950.88,308.272L1950.88,302.824L1951.12,302.824L1951.12,308.272L1953.4,308.272L1953.4,291.472L1951.12,291.472L1951.12,296.92Z" style="fill:rgb(67,87,173);fill-rule:nonzero;"/>
                <path d="M1953.64,308.272L1955.92,308.272L1955.92,302.824L1956.16,302.824L1956.16,308.272L1958.44,308.272L1958.44,291.472L1953.64,291.472L1953.64,308.272ZM1955.92,299.848L1955.92,294.4L1956.16,294.4L1956.16,299.848L1955.92,299.848Z" style="fill:rgb(67,87,173);fill-rule:nonzero;"/>
                <path d="M1958.68,291.472L1958.68,308.272L1960.96,308.272L1960.6,296.992L1960.84,296.992L1961.2,308.272L1963.48,308.272L1962.76,296.992L1963.48,296.272L1963.48,291.472L1958.68,291.472ZM1960.96,294.472L1960.96,293.272L1961.23,293.272L1961.23,294.472L1960.96,294.472Z" style="fill:rgb(67,87,173);fill-rule:nonzero;"/>
                <path d="M1963.72,308.272L1966,308.272L1966,302.824L1966.24,302.824L1966.24,308.272L1968.52,308.272L1968.52,291.472L1963.72,291.472L1963.72,308.272ZM1966,299.848L1966,294.4L1966.24,294.4L1966.24,299.848L1966,299.848Z" style="fill:rgb(67,87,173);fill-rule:nonzero;"/>
                <path d="M1973.56,291.472L1968.76,291.472L1968.76,308.272L1973.56,308.272L1973.56,305.512L1972.72,305.512L1972.72,294.232L1973.56,294.232L1973.56,291.472Z" style="fill:rgb(67,87,173);fill-rule:nonzero;"/>
                <path d="M1973.8,296.944L1974.64,296.944L1974.64,308.272L1977.76,308.272L1977.76,296.944L1978.6,296.944L1978.6,291.472L1973.8,291.472L1973.8,296.944Z" style="fill:rgb(67,87,173);fill-rule:nonzero;"/>
                <path d="M1983.64,291.472L1978.84,291.472L1978.84,308.272L1983.64,308.272L1983.64,302.8L1981.24,302.8L1981.24,302.536L1983.64,302.536L1983.64,297.184L1981.24,297.184L1981.24,296.92L1983.64,296.92L1983.64,291.472Z" style="fill:rgb(67,87,173);fill-rule:nonzero;"/>
                <path d="M1983.88,291.472L1983.88,308.272L1986.16,308.272L1985.8,296.992L1986.04,296.992L1986.4,308.272L1988.68,308.272L1987.96,296.992L1988.68,296.272L1988.68,291.472L1983.88,291.472ZM1986.16,294.472L1986.16,293.272L1986.42,293.272L1986.42,294.472L1986.16,294.472Z" style="fill:rgb(67,87,173);fill-rule:nonzero;"/>
                <path d="M1993.72,291.472L1988.92,291.472L1988.92,302.536L1991.32,302.536L1991.32,302.8L1988.92,302.8L1988.92,308.272L1993.72,308.272L1993.72,297.184L1991.32,297.184L1991.32,296.92L1993.72,296.92L1993.72,291.472Z" style="fill:rgb(67,87,173);fill-rule:nonzero;"/>
                <path d="M1930.96,319.784L1930.72,319.784L1930.72,308.504L1928.44,308.504L1929.16,325.304L1932.52,325.304L1933.24,308.504L1930.96,308.504L1930.96,319.784Z" style="fill:rgb(67,87,173);fill-rule:nonzero;"/>
                <path d="M1938.28,308.504L1933.48,308.504L1933.48,325.304L1938.28,325.304L1938.28,319.832L1935.88,319.832L1935.88,319.568L1938.28,319.568L1938.28,314.216L1935.88,314.216L1935.88,313.952L1938.28,313.952L1938.28,308.504Z" style="fill:rgb(67,87,173);fill-rule:nonzero;"/>
                <path d="M1938.52,308.504L1938.52,325.304L1940.8,325.304L1940.44,314.024L1940.68,314.024L1941.04,325.304L1943.32,325.304L1942.6,314.024L1943.32,313.304L1943.32,308.504L1938.52,308.504ZM1940.8,311.504L1940.8,310.304L1941.07,310.304L1941.07,311.504L1940.8,311.504Z" style="fill:rgb(67,87,173);fill-rule:nonzero;"/>
                <path d="M1946.08,314.144L1945.84,314.144L1945.84,308.504L1943.56,308.504L1943.56,314.144L1944.28,314.144L1944.28,325.304L1947.64,325.304L1947.64,314.144L1948.36,314.144L1948.36,308.504L1946.08,308.504L1946.08,314.144Z" style="fill:rgb(67,87,173);fill-rule:nonzero;"/>
                <path d="M1958.44,308.504L1953.64,308.504L1953.64,325.304L1958.44,325.304L1958.44,322.544L1957.6,322.544L1957.6,311.264L1958.44,311.264L1958.44,308.504Z" style="fill:rgb(67,87,173);fill-rule:nonzero;"/>
                <path d="M1958.68,325.304L1963.48,325.304L1963.48,308.504L1958.68,308.504L1958.68,325.304ZM1961.2,311.264L1961.2,322.544L1960.96,322.544L1960.96,311.264L1961.2,311.264Z" style="fill:rgb(67,87,173);fill-rule:nonzero;"/>
                <path d="M1963.72,325.304L1968.52,325.304L1968.52,308.504L1963.72,308.504L1963.72,325.304ZM1966.24,311.264L1966.24,322.544L1966,322.544L1966,311.264L1966.24,311.264Z" style="fill:rgb(67,87,173);fill-rule:nonzero;"/>
                <path d="M1968.76,325.304L1973.56,325.304L1973.56,319.832L1972.72,319.832L1972.72,308.504L1968.76,308.504L1968.76,325.304Z" style="fill:rgb(67,87,173);fill-rule:nonzero;"/>
                <path d="M1930.96,336.816L1930.72,336.816L1930.72,325.536L1928.44,325.536L1928.44,342.336L1933.24,342.336L1933.24,325.536L1930.96,325.536L1930.96,336.816Z" style="fill:rgb(67,87,173);fill-rule:nonzero;"/>
                <path d="M1933.48,325.536L1933.48,342.336L1935.76,342.336L1935.4,331.056L1935.64,331.056L1936,342.336L1938.28,342.336L1937.56,331.056L1938.28,330.336L1938.28,325.536L1933.48,325.536ZM1935.76,328.536L1935.76,327.336L1936.03,327.336L1936.03,328.536L1935.76,328.536Z" style="fill:rgb(67,87,173);fill-rule:nonzero;"/>
                <path d="M1943.32,325.536L1938.52,325.536L1938.52,342.336L1943.32,342.336L1943.32,334.08L1940.92,334.08L1940.92,333.816L1943.32,333.816L1943.32,325.536ZM1940.8,328.536L1941.07,328.536L1941.07,330.936L1940.8,330.936L1940.8,328.536ZM1941.04,339.336L1940.78,339.336L1940.78,336.936L1941.04,336.936L1941.04,339.336Z" style="fill:rgb(67,87,173);fill-rule:nonzero;"/>
                <path d="M1943.56,342.336L1945.84,342.336L1945.84,336.888L1946.08,336.888L1946.08,342.336L1948.36,342.336L1948.36,325.536L1943.56,325.536L1943.56,342.336ZM1945.84,333.912L1945.84,328.464L1946.08,328.464L1946.08,333.912L1945.84,333.912Z" style="fill:rgb(67,87,173);fill-rule:nonzero;"/>
                <path d="M1951.12,330.984L1950.88,330.984L1950.16,325.536L1948.6,325.536L1948.6,342.336L1951.6,342.336L1950.88,336.888L1951.12,336.888L1951.84,342.336L1953.4,342.336L1953.4,325.536L1950.4,325.536L1951.12,330.984Z" style="fill:rgb(67,87,173);fill-rule:nonzero;"/>
                <path d="M1958.68,331.008L1959.52,331.008L1959.52,342.336L1962.64,342.336L1962.64,331.008L1963.48,331.008L1963.48,325.536L1958.68,325.536L1958.68,331.008Z" style="fill:rgb(67,87,173);fill-rule:nonzero;"/>
                <path d="M1966.24,330.984L1966,330.984L1966,325.536L1963.72,325.536L1963.72,342.336L1966,342.336L1966,336.888L1966.24,336.888L1966.24,342.336L1968.52,342.336L1968.52,325.536L1966.24,325.536L1966.24,330.984Z" style="fill:rgb(67,87,173);fill-rule:nonzero;"/>
                <path d="M1973.56,325.536L1968.76,325.536L1968.76,342.336L1973.56,342.336L1973.56,336.864L1971.16,336.864L1971.16,336.6L1973.56,336.6L1973.56,331.248L1971.16,331.248L1971.16,330.984L1973.56,330.984L1973.56,325.536Z" style="fill:rgb(67,87,173);fill-rule:nonzero;"/>
                <path d="M1977.71,330.984L1977.47,330.984L1977.47,325.536L1973.8,325.536L1973.8,342.336L1976.8,342.336L1976.08,336.888L1976.32,336.888L1977.04,342.336L1978.12,342.336L1978.84,336.888L1979.08,336.888L1978.36,342.336L1981.48,342.336L1981.48,325.536L1977.71,325.536L1977.71,330.984Z" style="fill:rgb(67,87,173);fill-rule:nonzero;"/>
                <path d="M1986.52,325.536L1981.72,325.536L1981.72,342.336L1986.52,342.336L1986.52,336.864L1984.12,336.864L1984.12,336.6L1986.52,336.6L1986.52,331.248L1984.12,331.248L1984.12,330.984L1986.52,330.984L1986.52,325.536Z" style="fill:rgb(67,87,173);fill-rule:nonzero;"/>
            </g>
            <g transform="matrix(0.287247,0,0,0.287247,1490.5,564.805)">
                <path d="M3224.08,168.121L3124.81,168.121L3124.81,523.218L3224.08,523.218L3224.08,464.881L3206.71,464.881L3206.71,226.458L3224.08,226.458L3224.08,168.121Z" style="fill:rgb(72,169,166);fill-rule:nonzero;"/>
                <path d="M3281.16,283.274L3276.19,283.274L3276.19,168.121L3229.04,168.121L3229.04,523.218L3276.19,523.218L3276.19,408.065L3281.16,408.065L3281.16,523.218L3328.31,523.218L3328.31,168.121L3281.16,168.121L3281.16,283.274Z" style="fill:rgb(72,169,166);fill-rule:nonzero;"/>
                <rect x="3333.27" y="168.121" width="81.893" height="355.097" style="fill:rgb(72,169,166);fill-rule:nonzero;"/>
                <path d="M3420.13,523.218L3504.5,523.218L3504.5,284.795L3519.39,269.577L3519.39,168.121L3420.13,168.121L3420.13,523.218ZM3472.74,206.167L3472.74,231.531L3467.28,231.531L3467.28,206.167L3472.74,206.167Z" style="fill:rgb(72,169,166);fill-rule:nonzero;"/>
                <path d="M3727.85,168.121L3628.58,168.121L3628.58,283.274L3678.21,283.274L3678.21,288.854L3628.58,288.854L3628.58,523.218L3727.85,523.218L3727.85,407.558L3678.21,407.558L3678.21,401.978L3727.85,401.978L3727.85,168.121Z" style="fill:rgb(72,169,166);fill-rule:nonzero;"/>
                <path d="M3732.81,523.218L3832.08,523.218L3832.08,168.121L3732.81,168.121L3732.81,523.218ZM3784.92,226.458L3784.92,464.881L3779.96,464.881L3779.96,226.458L3784.92,226.458Z" style="fill:rgb(72,169,166);fill-rule:nonzero;"/>
                <path d="M3936.3,168.121L3837.04,168.121L3837.04,283.274L3886.67,283.274L3886.67,288.854L3837.04,288.854L3837.04,523.218L3936.3,523.218L3936.3,407.558L3886.67,407.558L3886.67,401.978L3936.3,401.978L3936.3,168.121Z" style="fill:rgb(72,169,166);fill-rule:nonzero;"/>
                <path d="M4040.53,168.121L3941.27,168.121L3941.27,401.978L3990.9,401.978L3990.9,407.558L3941.27,407.558L3941.27,523.218L4040.53,523.218L4040.53,288.854L3990.9,288.854L3990.9,283.274L4040.53,283.274L4040.53,168.121Z" style="fill:rgb(72,169,166);fill-rule:nonzero;"/>
            </g>
        </g>
    </g>
</svg>
